<svg width="51" height="50" viewBox="0 0 51 50" fill="none" xmlns="http://www.w3.org/2000/svg">
<g filter="url(#filter0_di_145_4)">
<rect x="0.5" width="50" height="50" rx="25" fill="#F5F5F5" shape-rendering="crispEdges"/>
<rect x="1.5" y="1" width="48" height="48" rx="24" stroke="#0076E3" stroke-width="2" shape-rendering="crispEdges"/>
<path d="M33 20.1209H30.9285C31.4132 19.3993 31.5999 18.5182 31.4495 17.662C31.299 16.8059 30.8231 16.0411 30.1215 15.528C29.4198 15.0149 28.5468 14.7932 27.6853 14.9093C26.8238 15.0255 26.0407 15.4705 25.5 16.1512C24.9593 15.4705 24.1762 15.0255 23.3147 14.9093C22.4532 14.7932 21.5802 15.0149 20.8785 15.528C20.1769 16.0411 19.701 16.8059 19.5505 17.662C19.4001 18.5182 19.5868 19.3993 20.0715 20.1209H18C17.6023 20.1213 17.221 20.2795 16.9398 20.5607C16.6586 20.8419 16.5004 21.2232 16.5 21.6209V24.6209C16.5004 25.0186 16.6586 25.3999 16.9398 25.6811C17.221 25.9624 17.6023 26.1205 18 26.1209V33.6209C18.0004 34.0186 18.1586 34.3999 18.4398 34.6811C18.721 34.9624 19.1023 35.1205 19.5 35.1209H31.5C31.8977 35.1205 32.279 34.9624 32.5602 34.6811C32.8414 34.3999 32.9996 34.0186 33 33.6209V26.1209C33.3977 26.1205 33.779 25.9624 34.0602 25.6811C34.3414 25.3999 34.4996 25.0186 34.5 24.6209V21.6209C34.4996 21.2232 34.3414 20.8419 34.0602 20.5607C33.779 20.2795 33.3977 20.1213 33 20.1209ZM26.25 18.2459C26.25 17.8751 26.36 17.5126 26.566 17.2042C26.772 16.8959 27.0649 16.6556 27.4075 16.5136C27.7501 16.3717 28.1271 16.3346 28.4908 16.4069C28.8545 16.4793 29.1886 16.6579 29.4508 16.9201C29.713 17.1823 29.8916 17.5164 29.964 17.8801C30.0363 18.2438 29.9992 18.6208 29.8573 18.9634C29.7154 19.3061 29.475 19.5989 29.1667 19.8049C28.8584 20.0109 28.4958 20.1209 28.125 20.1209H26.25V18.2459ZM22.875 16.3709C23.3721 16.3715 23.8487 16.5692 24.2002 16.9207C24.5517 17.2722 24.7494 17.7488 24.75 18.2459V20.1209H22.875C22.3777 20.1209 21.9008 19.9234 21.5492 19.5717C21.1975 19.2201 21 18.7432 21 18.2459C21 17.7486 21.1975 17.2717 21.5492 16.9201C21.9008 16.5685 22.3777 16.3709 22.875 16.3709ZM18 21.6209H24.75V24.6209H18V21.6209ZM19.5 26.1209H24.75V33.6209H19.5V26.1209ZM31.5007 33.6209H26.25V26.1209H31.5L31.5007 33.6209ZM26.25 24.6209V21.6209H33L33.0007 24.6209H26.25Z" fill="#0076E3"/>
</g>
<defs>
<filter id="filter0_di_145_4" x="-3.5" y="-4" width="58" height="58" filterUnits="userSpaceOnUse" color-interpolation-filters="sRGB">
<feFlood flood-opacity="0" result="BackgroundImageFix"/>
<feColorMatrix in="SourceAlpha" type="matrix" values="0 0 0 0 0 0 0 0 0 0 0 0 0 0 0 0 0 0 127 0" result="hardAlpha"/>
<feOffset/>
<feGaussianBlur stdDeviation="2"/>
<feComposite in2="hardAlpha" operator="out"/>
<feColorMatrix type="matrix" values="0 0 0 0 0 0 0 0 0 0 0 0 0 0 0 0 0 0 0.11 0"/>
<feBlend mode="normal" in2="BackgroundImageFix" result="effect1_dropShadow_145_4"/>
<feBlend mode="normal" in="SourceGraphic" in2="effect1_dropShadow_145_4" result="shape"/>
<feColorMatrix in="SourceAlpha" type="matrix" values="0 0 0 0 0 0 0 0 0 0 0 0 0 0 0 0 0 0 127 0" result="hardAlpha"/>
<feOffset dy="3"/>
<feGaussianBlur stdDeviation="2"/>
<feComposite in2="hardAlpha" operator="arithmetic" k2="-1" k3="1"/>
<feColorMatrix type="matrix" values="0 0 0 0 1 0 0 0 0 1 0 0 0 0 1 0 0 0 0.52 0"/>
<feBlend mode="normal" in2="shape" result="effect2_innerShadow_145_4"/>
</filter>
</defs>
</svg>
