<svg width="25.51" height="25.51" viewBox="0 0 25.51 25.51" fill="none" xmlns="http://www.w3.org/2000/svg">
  <path d="M12.755 23.51C13.855 23.51 14.755 22.61 14.755 21.51H10.755C10.755 22.61 11.655 23.51 12.755 23.51ZM18.755 17.51V12.51C18.755 9.44 17.125 6.87 14.255 6.19V5.51C14.255 4.68 13.585 4.01 12.755 4.01C11.925 4.01 11.255 4.68 11.255 5.51V6.19C8.395 6.87 6.755 9.43 6.755 12.51V17.51L4.755 19.51V20.51H20.755V19.51L18.755 17.51ZM16.755 18.51H8.755V12.51C8.755 10.03 10.265 8.01 12.755 8.01C15.245 8.01 16.755 10.03 16.755 12.51V18.51Z" fill="#003829"/>
</svg>