<svg width="174" height="190" viewBox="0 0 174 190" fill="none" xmlns="http://www.w3.org/2000/svg">
<path fill-rule="evenodd" clip-rule="evenodd" d="M123.429 187.312C123.41 187.643 123.459 187.975 123.573 188.286L121.061 188.268C121.172 187.989 121.264 187.661 121.362 187.283C122.046 187.292 122.735 187.302 123.429 187.312ZM113.538 187.176C113.606 187.63 113.731 187.966 113.894 188.216L36.051 187.655C35.003 187.644 34.709 187.604 34.82 187.055C34.955 186.11 35.456 182.11 35.207 182.01C35.1357 181.985 35.0348 182.242 34.9125 182.555C34.8548 182.702 34.7924 182.862 34.726 183.01C34.3936 183.814 34.0001 184.591 33.549 185.335C33.079 185.982 32.853 185.91 32.596 184.982C32.5117 184.678 32.4131 184.316 32.3049 183.919V183.918C31.6983 181.691 30.7941 178.37 30.464 178.163C30.3801 180.476 30.4469 182.793 30.664 185.098C30.8198 186.803 29.0546 184.208 27.5513 181.997C26.3142 180.178 25.2544 178.62 25.588 179.933C26.5709 182.464 27.7822 184.9 29.207 187.211C29.7499 188.063 29.4485 188.072 26.072 188.17C25.4432 188.188 24.7076 188.209 23.851 188.24C13.8686 188.594 8.7608 188.913 6.1405 189.076C3.8078 189.222 3.4464 189.244 3.372 189.06C3.0933 188.367 16.4501 187.796 23.686 187.487C26.1607 187.381 27.9195 187.306 28.172 187.267C28.403 187.232 28.397 187.183 28.151 186.804C26.6498 184.581 25.5342 182.121 24.851 179.527C24.698 178.546 25.543 178.384 25.912 178.784C26.6697 179.601 27.5708 180.902 28.3214 181.985C29.0745 183.073 29.6763 183.941 29.83 183.884C29.9162 183.852 29.8828 183.129 29.8365 182.128C29.7824 180.956 29.7106 179.403 29.792 178.128C29.857 177.122 30.716 177.097 30.992 177.644C31.8828 179.822 32.6082 182.064 33.162 184.351C33.2773 184.701 33.9204 183.389 34.3959 182.419C34.5719 182.06 34.7252 181.748 34.82 181.584C35.981 179.577 35.797 184.12 35.62 186.42C35.6156 186.476 35.607 186.528 35.5991 186.575C35.5846 186.661 35.5725 186.733 35.5948 186.792C35.6996 187.068 36.5662 187.056 41.519 186.984C43.5099 186.956 46.161 186.918 49.6883 186.885C50.1235 186.981 50.5639 187.055 51.008 187.107C55.775 187.847 66.775 187.379 67.276 187.351C68.0477 187.305 68.1765 187.197 68.1744 186.818C79.1804 186.829 93.888 186.92 113.538 187.176ZM167.088 188.6L131.445 188.343C131.59 188.028 131.598 187.731 131.54 187.436C142.097 187.603 153.812 187.811 166.814 188.07C167.212 188.078 167.4 188.6 167.088 188.6Z" fill="#44BF99"/>
<path fill-rule="evenodd" clip-rule="evenodd" d="M131.25 183.023C132.55 182.448 133.024 181.923 132.54 180.683C132.49 180.5 132.392 180.334 132.257 180.202C132.121 180.069 131.953 179.975 131.769 179.93C131.464 179.869 131.259 179.776 131.277 179.58C131.334 178.95 131.019 178.37 130.52 177.448C130.42 177.262 130.311 177.062 130.197 176.845C129.829 176.142 129.513 175.963 129.329 175.859C129.201 175.787 129.138 175.751 129.166 175.599C129.335 174.656 125.293 172.614 123.909 173.526C122.768 173.409 121.615 173.519 120.517 173.85C118.811 174.334 118.327 175.112 118.028 175.591C117.838 175.896 117.723 176.081 117.417 175.994C117.181 175.931 116.935 175.917 116.694 175.954C116.453 175.992 116.222 176.079 116.017 176.211C115.786 176.344 115.627 176.124 115.395 175.805C115.005 175.269 114.41 174.451 112.927 174.557C112.554 174.607 112.197 174.736 111.878 174.934C111.558 175.132 111.285 175.396 111.075 175.708C110.865 176.02 110.723 176.372 110.66 176.743C110.596 177.113 110.611 177.493 110.705 177.857C110.964 178.507 112.652 178.595 113.241 178.581C113.68 178.57 112.652 179.269 111.69 179.294C111.278 179.305 111.248 179.521 111.444 179.835C112.553 181.203 114.057 182.196 115.75 182.68C115.964 182.749 116.03 182.807 115.889 182.952C115.344 183.415 114.905 183.989 114.601 184.636C114.296 185.283 114.133 185.987 114.123 186.702C114.209 188.232 114.833 188.292 115.465 188.354C115.568 188.364 115.672 188.374 115.773 188.39C115.956 188.42 116.234 188.337 116.253 188.129C116.182 186.831 116.504 185.541 117.177 184.429C117.316 184.194 117.64 184.229 117.446 184.673C117.072 185.534 116.446 187.34 116.96 188.12C117.279 188.446 117.677 188.684 118.115 188.81C118.553 188.936 119.017 188.947 119.46 188.84C119.687 188.833 119.906 188.756 120.087 188.619C120.268 188.482 120.402 188.292 120.47 188.076C120.598 187.778 120.886 186.617 120.94 186.399L120.948 186.365C120.992 186.195 121.028 186.195 121.093 186.205C122.078 186.366 122.747 186.46 123.199 186.524C123.589 186.579 123.817 186.611 123.945 186.643C124.089 186.679 124.085 186.771 124.077 186.945C124.075 186.983 124.074 187.024 124.073 187.07C124.067 187.7 124.113 188.475 124.652 188.811C124.851 188.922 125.072 188.989 125.299 189.006C125.527 189.023 125.755 188.991 125.969 188.911C126.251 188.785 126.225 188.66 126.174 188.423C126.161 188.359 126.145 188.287 126.134 188.204C125.99 187.182 126.134 186.215 126.234 186.415C126.318 186.58 126.369 186.848 126.428 187.156C126.666 188.399 127.031 190.306 130.186 188.858C130.385 188.767 130.557 188.627 130.686 188.45C130.714 188.378 130.749 188.317 130.784 188.255C130.877 188.095 130.969 187.934 130.925 187.591C130.903 187.416 130.831 187.257 130.76 187.097C130.69 186.943 130.62 186.788 130.595 186.617C130.443 186.261 130.35 185.883 130.321 185.497C130.301 185.123 130.404 185.045 130.698 184.963C132.001 184.653 133.182 183.963 134.091 182.98C134.106 182.952 134.113 182.921 134.112 182.89C134.11 182.858 134.1 182.828 134.083 182.801C134.066 182.775 134.042 182.754 134.013 182.74C133.985 182.727 133.953 182.721 133.922 182.724C133.092 183.039 132.217 183.219 131.33 183.256C131.13 183.249 131.138 183.086 131.254 183.035L131.25 183.023ZM129.2 176.329C129.473 176.589 131.165 179.595 130.61 179.929C129.8 180.322 128.937 180.592 128.047 180.729C127.937 180.74 127.826 180.708 127.739 180.64C127.313 179.749 127.005 178.806 126.824 177.835C126.811 177.786 126.797 177.74 126.785 177.698C126.709 177.443 126.67 177.313 126.948 177.18C127.676 176.843 128.136 176.564 128.438 176.382C128.576 176.299 128.681 176.235 128.762 176.196C128.976 176.093 129.035 176.155 129.132 176.259C129.152 176.281 129.174 176.305 129.2 176.329ZM124.22 175.929C124.286 175.393 124.322 174.855 124.33 174.315C124.112 172.655 129.259 175.359 128.653 175.693C128.307 175.885 128.016 176.049 127.77 176.189C126.6 176.85 126.411 176.957 125.921 176.788C125.345 176.587 124.96 176.487 124.704 176.42C124.212 176.293 124.198 176.289 124.22 175.929ZM126.041 177.39C126.313 177.473 126.328 177.595 126.372 177.956C126.417 178.324 126.493 178.94 126.902 180.018C127.08 180.488 127.177 180.807 127.085 180.918C126.912 181.118 122.504 181.855 121.129 180.618C120.904 180.418 120.912 180.208 121.003 179.837C121.084 179.508 121.23 179.056 121.43 178.438L121.51 178.191C121.67 177.696 122.034 177.555 122.499 177.375C122.851 177.239 123.262 177.08 123.686 176.729C123.807 176.628 123.879 176.654 124.343 176.823C124.668 176.941 125.183 177.128 126.041 177.39ZM123.071 173.93C123.123 173.929 123.172 173.928 123.218 173.927C123.748 173.914 123.835 173.911 123.8 174.578C123.737 175.761 123.661 176.058 123.4 176.247C121.071 177.944 119.489 176.898 118.39 176.172C118.34 176.139 118.292 176.107 118.244 176.076C119.3 174.3 121.02 174.117 123.071 173.93ZM120.462 179.682C120.316 179.616 120.168 179.227 119.989 178.759C119.829 178.341 119.645 177.859 119.418 177.489C119.287 177.276 119.574 177.331 119.618 177.343C120.102 177.431 120.578 177.562 121.04 177.733C121.066 177.755 121.044 177.825 121.017 177.914C121.004 177.956 120.99 178.002 120.979 178.05C120.882 178.615 120.708 179.164 120.462 179.682ZM117.635 183.806C117.254 183.574 116.939 183.247 116.722 182.857C116.764 182.818 116.794 182.789 116.818 182.766C116.852 182.733 116.873 182.712 116.895 182.694C116.929 182.666 116.965 182.641 117.058 182.579C117.177 182.5 117.389 182.359 117.804 182.07C117.951 181.968 117.998 182.047 118.077 182.18C118.1 182.22 118.126 182.264 118.159 182.31C118.23 182.409 118.291 182.483 118.339 182.54C118.413 182.629 118.457 182.682 118.462 182.738C118.469 182.821 118.39 182.911 118.195 183.135C118.064 183.286 117.88 183.497 117.635 183.806ZM126.862 184.476C126.548 184.94 126.498 185.28 126.463 185.515C126.429 185.742 126.41 185.872 126.184 185.926C124.601 186.193 122.979 186.118 121.428 185.705C121.416 185.702 121.404 185.699 121.393 185.696C121.32 185.678 121.269 185.666 121.241 185.634C121.178 185.564 121.225 185.397 121.373 184.859C121.406 184.738 121.445 184.597 121.489 184.434C121.59 184.059 121.69 184.079 122.217 184.181C122.774 184.288 123.809 184.489 125.828 184.412C126.101 184.402 126.324 184.378 126.495 184.361C126.842 184.324 126.973 184.31 126.862 184.476ZM121.699 183.282C118.959 182.749 118.644 181.658 118.202 180.129C118.064 179.649 117.913 179.126 117.671 178.564C117.545 178.27 117.23 178.083 116.92 177.899C116.77 177.811 116.621 177.722 116.495 177.623C115.429 176.785 116.511 175.996 117.707 176.575C119.026 177.214 119.334 178.183 119.628 179.11C119.914 180.01 120.187 180.87 121.36 181.35C122.901 181.981 125.504 181.95 128.217 181.277C128.919 181.103 129.503 180.916 129.989 180.761C131.351 180.325 131.938 180.138 132.167 181.169C132.208 181.298 132.217 181.435 132.192 181.569C132.167 181.702 132.11 181.827 132.026 181.933C131.48 182.403 130.828 182.733 130.126 182.895C127.374 183.606 124.505 183.738 121.7 183.282H121.699ZM111.694 176.19C111.715 175.705 112.239 175.757 112.149 176.262C112.075 176.675 111.673 176.687 111.694 176.19ZM113.388 175.9C113.065 175.918 113.065 176.691 113.365 176.685C113.483 176.682 113.591 176.539 113.618 176.331C113.645 176.123 113.536 175.891 113.388 175.9Z" fill="#44BF99"/>
<path fill-rule="evenodd" clip-rule="evenodd" d="M152.547 116.748C146.489 112.568 146.426 112.493 145.402 111.258C144.997 110.77 144.441 110.101 143.306 108.925C141.786 107.351 139.765 108.078 138.321 109.725C138.14 109.93 138.069 110.1 138.008 110.245C137.925 110.444 137.86 110.597 137.565 110.735C136.765 111.108 135.279 112.145 135.038 112.997C134.884 113.54 134.554 113.552 134.098 113.57C133.601 113.59 132.955 113.615 132.222 114.332C131.493 115.044 131.675 115.643 131.788 116.018C131.852 116.23 131.895 116.37 131.742 116.421C125.092 118.637 120.515 119.619 116.591 120.461C112.743 121.286 109.524 121.977 105.595 123.564C105.094 123.753 104.608 123.981 104.142 124.246C103.047 124.908 102.777 123.983 103.08 123.646C103.956 122.678 105.812 121.722 107.41 120.899V120.898C108.987 120.086 110.314 119.402 110.199 118.964C109.796 117.414 109.494 116.449 109.177 115.432C109.096 115.171 109.013 114.905 108.927 114.626L108.914 114.585C108.886 114.495 108.867 114.435 108.879 114.382C108.904 114.273 109.061 114.194 109.541 113.954C109.74 113.855 109.995 113.728 110.318 113.559C110.781 113.318 110.911 113.147 110.663 112.44C106.386 100.223 104.092 95.9873 103.128 94.2059C102.763 93.5326 102.589 93.2103 102.569 92.9403C102.413 91.1611 102.084 89.4011 101.588 87.6853C101.555 87.598 101.543 87.5042 101.552 87.4113C101.562 87.3184 101.593 87.2291 101.643 87.1503C102.23 85.9533 102.239 85.1173 102.243 84.6291C102.248 84.12 102.25 83.9891 102.9 84.2213C103.948 84.5953 105.087 83.0683 105.566 82.0643C105.784 81.6043 105.609 81.3112 105.47 81.0791C105.428 81.0085 105.389 80.9436 105.366 80.8813C105.315 80.7433 105.347 80.7105 105.578 80.4718L105.604 80.4453C106.017 80.0197 106.876 79.2337 107.975 78.2273L107.977 78.2263L107.978 78.2247L107.98 78.2235C109.425 76.9014 111.284 75.1996 113.094 73.4353C116.827 69.7903 119.363 67.1153 120.847 62.0583C124.319 50.2244 116.237 45.0805 104.785 37.7911C103.51 36.9798 102.194 36.1419 100.847 35.2653C98.6639 33.8448 98.2009 33.1878 97.4549 32.1308C97.2219 31.8 96.9609 31.4301 96.6109 30.9853C95.2569 29.2633 93.9799 28.2853 90.2849 27.3853C87.7849 26.8764 85.2115 26.8449 82.6999 27.2923C80.5304 27.8831 79.7033 28.5661 79.2813 28.9145C78.8462 29.2739 78.842 29.2773 78.2409 28.4563C76.4345 25.9918 76.2884 25.7772 75.8846 25.1842C75.8172 25.0852 75.7426 24.9756 75.6519 24.8433C75.4236 24.5096 75.8796 23.9051 76.5344 23.0371C77.7728 21.3954 79.7223 18.811 79.0989 15.3323C78.9735 14.6312 79.3004 14.323 79.626 14.0161C79.9756 13.6865 80.3238 13.3582 80.1089 12.5463C79.9153 11.806 80.5873 11.1466 81.2336 10.5122C81.5887 10.1637 81.9361 9.82294 82.1279 9.48034C82.2271 9.32544 82.2915 9.15094 82.3165 8.96874C82.3416 8.78654 82.3269 8.60104 82.2732 8.42504C82.2196 8.24914 82.1284 8.08694 82.0059 7.94974C81.8834 7.81254 81.7326 7.70354 81.5639 7.63034C79.7119 6.84534 79.4039 6.73534 78.9639 7.20734C78.7526 7.43174 78.5158 7.88714 78.2721 8.35584C77.8643 9.14014 77.4372 9.96144 77.0779 9.79934C76.657 9.61014 76.7481 9.49034 77.0274 9.12264C77.2751 8.79664 77.6707 8.27594 77.9889 7.33934C78.1889 6.76334 78.0669 6.50834 77.5809 6.25734C75.6808 5.27794 75.3284 6.32364 74.9855 7.34114C74.7158 8.14154 74.4519 8.92464 73.4449 8.69034C73.0616 8.60174 73.312 8.27574 73.6111 7.88624C73.6663 7.81444 73.7231 7.74044 73.7779 7.66534C76.3409 4.16036 72.0379 4.00136 71.7319 5.46534C71.0719 8.63034 69.6679 7.84634 70.0259 7.22234C70.0381 7.20104 70.0722 7.15604 70.1207 7.09204C70.5068 6.58284 71.8073 4.8677 70.2759 4.23436C69.6759 3.98836 68.4279 4.00736 68.2139 4.75036C68.1031 5.48734 67.9278 6.21314 67.6899 6.91934C67.4129 7.60534 66.4329 7.41934 66.7399 6.81034C67.0468 6.31124 67.2722 5.76634 67.4079 5.19634C67.5969 3.56236 65.4389 3.29636 65.2379 4.63436C65.1882 5.29204 65.0767 5.94354 64.9049 6.58034C64.7709 6.99934 63.8229 6.89234 63.9749 6.28034C64.0044 6.16114 64.0432 6.02664 64.0849 5.88254L64.085 5.88204C64.4091 4.76047 64.8998 3.06188 62.4349 3.53236C61.5723 3.69681 61.5975 4.6807 61.6194 5.53454C61.6343 6.11884 61.6478 6.64234 61.3739 6.80034C61.2195 6.90104 61.0879 7.03294 60.9876 7.18764C60.8874 7.34224 60.8206 7.51624 60.7917 7.69824C60.7627 7.88024 60.7723 8.06634 60.8197 8.24444C60.8671 8.42254 60.9513 8.58874 61.0669 8.73234C61.4926 9.16384 61.3057 9.55114 61.1255 9.92464C60.9916 10.202 60.8614 10.4718 60.9889 10.7463C61.233 11.2719 61.088 11.5768 60.6575 12.4822C60.3278 13.1753 59.8308 14.2205 59.2129 15.9863C57.0409 22.1863 55.7129 30.5713 62.2729 31.6273C63.7773 31.8701 64.651 31.8576 65.1654 31.8502C65.8819 31.8399 65.9014 31.8397 65.9579 32.5533C65.9622 32.6091 65.6996 32.8734 65.2504 33.3256C62.478 36.1163 52.5969 46.0622 54.4669 58.3113C54.5197 58.6572 54.5713 58.9355 54.6135 59.1633C54.7075 59.6707 54.7551 59.9278 54.6673 60.1243C54.5771 60.326 54.3443 60.4639 53.8725 60.7434C53.1516 61.1705 51.8726 61.9282 49.6919 63.7493C49.4057 63.9869 49.1298 63.6873 48.7726 63.2996C48.1314 62.6035 47.2285 61.6233 45.5349 62.9573C45.2551 63.178 44.9695 63.1869 44.6529 63.1967C44.2623 63.2089 43.8244 63.2225 43.2919 63.6373C42.0768 64.5839 42.3997 65.2244 42.6444 65.7099C42.7505 65.9204 42.8419 66.1018 42.7869 66.2663C42.7153 66.4415 42.6919 66.6327 42.7192 66.82C42.7464 67.0072 42.8233 67.1838 42.9419 67.3313C42.9972 67.414 43.0705 67.4845 43.1422 67.5535C43.2726 67.6789 43.3976 67.7992 43.3989 67.9773C43.3564 68.2647 43.4043 68.5581 43.536 68.817C43.6676 69.076 43.8766 69.2875 44.1339 69.4223C44.4009 69.5521 44.5634 69.583 44.6727 69.6038C44.8432 69.6363 44.8847 69.6442 44.9919 69.9633C45.2919 70.8703 46.9829 70.8433 47.6969 70.4223C48.35 70.0367 48.7664 69.7414 49.0677 69.5276C49.5242 69.2038 49.7167 69.0672 50.0679 69.0883C51.6373 69.1821 53.5705 69.2601 55.0702 69.3205C56.336 69.3716 57.293 69.4101 57.4619 69.4353C58.0723 69.527 58.2435 69.8257 59.0724 71.2724C59.4547 71.9397 59.977 72.8512 60.7469 74.0993C61.3439 75.0672 61.9723 76.0443 62.633 77.0718C63.4365 78.3212 64.2879 79.6452 65.1889 81.1173C66.8747 83.8756 67.4853 84.9304 67.8259 85.5187C68.0245 85.8618 68.1313 86.0462 68.3059 86.3173C68.8925 87.2278 69.3434 87.8838 69.6772 88.3692C70.2836 89.2515 70.5034 89.5712 70.4485 89.8334C70.4172 89.9824 70.2972 90.1128 70.1089 90.3174C69.9466 90.4938 69.7335 90.7253 69.4829 91.0713C66.4161 95.5172 63.6791 100.182 61.2939 105.028C55.7239 116.7 55.8489 116.988 57.4279 117.885C57.6829 118.03 57.2617 118.907 56.5973 120.291C54.8781 123.872 51.5307 130.843 54.0609 137.285C54.9382 139.52 57.7306 141.15 58.9404 141.856C59.0213 141.903 59.0952 141.946 59.1609 141.985C59.6279 142.263 58.5989 143.559 55.9609 141.625C54.9039 140.849 54.1749 140.725 54.1849 142.154C54.1998 144.336 54.3062 144.722 55.3517 148.52C55.5671 149.303 55.8223 150.23 56.1249 151.348C56.301 151.998 56.484 152.664 56.6693 153.338L56.6696 153.339C57.8618 157.674 59.1497 162.357 59.3089 165.589C59.3709 166.862 59.5429 172.738 59.2229 172.873C59.132 172.911 59.0302 172.822 58.894 172.702C58.5268 172.379 57.9086 171.835 56.5739 172.973C55.4599 173.921 54.3129 176.173 55.2219 177.321C55.2596 177.368 55.309 177.415 55.3593 177.463C55.5012 177.598 55.65 177.739 55.5629 177.91C55.497 178.041 55.3614 178.102 55.2088 178.171C55.1577 178.194 55.1048 178.218 55.0519 178.245C54.7432 178.402 55.0039 178.733 55.3085 179.12C55.5869 179.473 55.902 179.873 55.8519 180.229C55.8496 180.286 55.8304 180.341 55.7968 180.387C55.7632 180.433 55.7167 180.468 55.6631 180.488C55.6096 180.507 55.5514 180.511 55.496 180.497C55.4406 180.484 55.3904 180.454 55.3519 180.412C55.095 180.207 54.8797 179.915 54.6737 179.637C54.2704 179.091 53.9028 178.594 53.3289 178.884C53.1008 179 53.1161 179.018 53.428 179.382C53.5986 179.581 53.858 179.883 54.2149 180.362C54.4149 180.633 54.6799 181.229 54.3289 181.382C54.0687 181.496 53.8461 181.191 53.5339 180.764L53.5331 180.763C53.4856 180.698 53.436 180.63 53.3839 180.56C52.8929 179.903 52.2759 179.121 51.8499 179.343C51.6559 179.443 51.6919 179.549 51.7339 179.625C51.7942 179.735 51.9171 179.885 52.0617 180.06C52.4228 180.498 52.919 181.099 52.9119 181.669C52.9119 181.856 52.6119 181.999 52.3399 181.736C51.8146 181.225 51.5339 180.804 51.3243 180.489C50.7133 179.571 50.7075 179.562 47.0089 180.909C44.7089 181.745 44.6379 183.169 44.7089 184.198C44.7032 184.537 44.7715 184.873 44.9089 185.183C45.4068 185.719 45.9981 186.159 46.6539 186.483C49.4539 187.814 53.1249 187.972 55.4879 188.057C58.3079 188.157 62.5069 188.243 65.7879 188.057C66.1321 188.038 66.4353 188.022 66.702 188.009C68.0433 187.941 68.466 187.92 68.5769 187.632C68.7126 187.054 68.7126 186.452 68.5769 185.874C68.5392 185.701 68.508 185.583 68.4844 185.494C68.4233 185.265 68.4134 185.228 68.4769 184.921C69.0802 182.09 68.8523 180.886 68.6997 180.08C68.5903 179.501 68.5195 179.127 68.8219 178.504C69.4409 177.231 69.7899 175.935 68.7219 175.004C68.5918 174.866 68.5075 174.692 68.4805 174.504C68.4535 174.316 68.4851 174.125 68.5709 173.956C70.0046 165.771 70.3691 164.9 71.3881 162.466C71.9697 161.077 72.7645 159.179 74.0929 155.121C77.0286 146.152 74.7105 141.066 73.3599 138.103C72.839 136.961 72.462 136.133 72.5859 135.521C72.8939 134 74.5669 132.108 78.0559 128.429C78.2907 128.181 78.4965 127.96 78.6791 127.764C79.4773 126.907 79.8327 126.526 80.2341 126.469C80.5561 126.423 80.9078 126.586 81.5417 126.88C81.9198 127.055 82.3983 127.277 83.0309 127.529C83.4926 127.71 83.8941 127.868 84.244 128.006L84.247 128.008C86.0836 128.732 86.4944 128.895 86.7078 128.755C86.7693 128.715 86.8144 128.649 86.8724 128.565L86.873 128.564L86.8993 128.527L86.9179 128.5C87.1559 128.165 87.4029 127.809 87.6069 127.514L87.6079 127.512H87.6089C87.8669 127.138 88.0589 126.862 88.0819 126.846C88.2929 126.705 88.4749 126.582 88.6319 126.476C89.5839 125.833 89.6119 125.814 89.7059 126.036C99.8579 150.142 105.652 148.786 136.545 123.3C136.759 123.123 136.812 123.326 136.917 123.725C137.098 124.418 137.435 125.706 139.045 126.629C139.306 126.823 139.608 126.956 139.927 127.02C140.246 127.083 140.575 127.075 140.891 126.995C141.207 126.916 141.501 126.768 141.752 126.561C142.004 126.354 142.206 126.095 142.345 125.8C142.548 125.384 142.692 125.035 142.81 124.75C143.162 123.9 143.274 123.629 143.979 123.881C144.12 123.932 144.276 123.988 144.447 124.049H144.448C145.881 124.564 148.385 125.463 152.379 126.73C158.591 128.704 161.245 122.751 152.56 116.759L152.547 116.748ZM42.9599 64.6733C43.3299 63.8733 44.3489 63.5813 44.4929 63.7243C44.5639 63.7963 44.3089 64.5493 43.8859 64.5973C43.6129 64.6293 43.5309 64.9633 43.8549 65.0863C43.8944 65.1013 43.9488 65.1068 44.0053 65.1125C44.1147 65.1235 44.2319 65.1353 44.2649 65.2183C44.2771 65.2488 44.296 65.289 44.3177 65.335C44.4101 65.5309 44.5528 65.8335 44.4419 65.9533C44.2134 66.0597 43.9541 66.0797 43.712 66.0096C43.4699 65.9396 43.2613 65.7842 43.1249 65.5723C43.0346 65.4431 42.9731 65.2959 42.9446 65.1408C42.9161 64.9857 42.9213 64.8262 42.9599 64.6733ZM43.7599 67.3973C43.3539 67.2973 42.9359 66.6313 43.3599 66.5973C43.7729 66.5583 44.0526 66.5177 44.2467 66.4894C44.55 66.4453 44.6444 66.4316 44.7109 66.5023C44.9509 66.7553 45.2109 67.3023 45.0919 67.3123C44.6551 67.4151 44.2044 67.4449 43.7579 67.4003L43.7599 67.3973ZM44.7999 69.1003C44.6687 69.1078 44.5377 69.084 44.4174 69.031C44.2972 68.978 44.1913 68.8972 44.1084 68.7953C44.0254 68.6935 43.9678 68.5734 43.9402 68.4449C43.9127 68.3164 43.916 68.1833 43.9499 68.0563C44.009 67.9566 44.1764 67.9348 44.2946 67.9193C44.3103 67.9173 44.3253 67.9153 44.3389 67.9133L44.5092 67.8888C45.1272 67.7995 45.3934 67.761 45.5599 67.8713C45.891 68.092 46.1033 68.0052 46.3935 67.8866C46.6291 67.7903 46.9162 67.6729 47.3599 67.6823C47.7489 67.6903 47.9599 68.0293 47.7139 68.2373C46.8448 68.7971 45.8337 69.0965 44.7999 69.1003ZM48.9709 68.9003C48.4147 69.3348 47.8104 69.7039 47.1699 70.0003C46.9224 70.0985 46.655 70.1358 46.3901 70.109C46.1252 70.0822 45.8707 69.9921 45.6479 69.8463C45.3359 69.6009 45.6684 69.5131 46.198 69.3733C46.6138 69.2635 47.1509 69.1216 47.5929 68.8463C47.9712 68.5444 48.4537 68.4045 48.9349 68.4573C49.3669 68.5743 49.1759 68.7743 48.9749 68.9003H48.9709ZM56.2589 68.6553C54.4472 68.6204 53.1495 68.6075 52.2121 68.5982C49.8221 68.5745 49.7742 68.574 49.5199 68.2903C49.3916 68.1442 49.2243 68.0377 49.0376 67.9833C48.8509 67.9289 48.6526 67.9289 48.4659 67.9833C48.3754 67.9887 48.3128 67.8633 48.2358 67.709L48.2109 67.6593C48.0531 67.3445 47.7467 67.33 47.4857 67.3176C47.3778 67.3125 47.2776 67.3078 47.1989 67.2823C47.0499 67.2343 46.9759 67.0713 47.0119 66.6273C47.0369 66.3163 47.3039 66.4213 47.5889 66.5623C48.0369 66.7853 49.3449 66.9263 49.4239 66.4883C49.4451 66.3691 49.2862 66.338 49.0202 66.2858C48.5321 66.1901 47.6832 66.0237 46.9239 65.1123C46.0623 64.0771 46.1895 64.9139 46.3334 65.8602C46.3825 66.1836 46.4336 66.5197 46.4479 66.7983C46.4691 66.9152 46.4488 67.0358 46.3903 67.1392C46.3318 67.2426 46.239 67.3223 46.1279 67.3643C45.8989 67.4373 45.5489 66.8723 45.4499 66.7123C44.7669 65.5983 44.4939 64.9383 45.1309 64.1003C45.5238 63.5309 46.0824 63.0963 46.7309 62.8553C47.4841 62.6375 48.1501 63.3837 48.6696 63.9659L48.6702 63.9665C48.7967 64.1082 48.9147 64.2405 49.0229 64.3463L49.0553 64.3781C49.1444 64.4659 49.2076 64.5281 49.2828 64.5512C49.4656 64.6074 49.7196 64.4322 50.5913 63.8307L50.5922 63.8301C51.0012 63.5479 51.5459 63.172 52.2829 62.6823C52.6181 62.4596 52.9109 62.2613 53.1672 62.0877L53.1676 62.0873C54.952 60.8786 54.9656 60.8694 55.2139 62.1713C55.735 64.2617 56.4612 66.2956 57.3819 68.2433C57.5579 68.6413 57.3469 68.6773 56.2629 68.6563L56.2589 68.6553ZM102.584 95.6082C102.602 95.5162 102.614 95.4262 102.625 95.3462C102.702 94.7931 102.715 94.7016 103.891 97.4202C104.991 99.9532 107.652 106.438 108.538 109.054C108.547 109.212 108.514 109.222 108.212 109.316C107.365 109.577 104.411 110.488 94.3909 117.114C93.3969 117.771 93.4279 117.717 94.2549 116.267C95.0809 114.819 96.7019 111.978 98.8909 107.061C101.796 100.547 101.981 99.3632 102.306 97.2742C102.381 96.7932 102.463 96.2632 102.588 95.6092L102.584 95.6082ZM99.1969 89.2083C98.8969 89.4959 98.7879 89.4648 98.6159 89.4154C98.4769 89.3757 98.2959 89.3241 97.9409 89.4173C97.4959 89.5366 97.2539 89.3845 97.0159 89.235C96.7459 89.0648 96.4799 88.8978 95.9269 89.1373C95.3589 89.3836 95.1459 89.1649 94.9079 88.9198C94.6559 88.6614 94.3759 88.3737 93.6209 88.5713C93.5529 88.5891 93.4849 88.61 93.4179 88.6309C93.3199 88.6616 93.2219 88.6921 93.1209 88.7123C91.9489 88.9481 92.6899 87.329 93.3379 85.9122C93.7899 84.9253 94.1969 84.0366 93.8809 83.9413C93.5969 83.8555 93.2599 84.5864 92.9779 85.1968C92.7839 85.6176 92.6169 85.9811 92.5109 85.9803C92.4019 85.9028 92.3159 85.798 92.2609 85.6765C92.2059 85.555 92.1839 85.4211 92.1969 85.2883C92.2129 85.0648 92.2769 84.8473 92.3839 84.6503C92.6039 84.3035 92.7779 83.9998 92.9289 83.736C93.4239 82.8707 93.6729 82.4349 94.5159 82.3123C97.0749 81.9413 97.5849 81.7853 98.0009 81.1033C98.1569 80.8493 98.2229 80.8733 99.5949 81.4883C99.6859 81.5286 99.7579 81.6029 99.7949 81.6953C99.9179 82.2321 100.541 82.7009 101.024 83.0648C101.206 83.2017 101.368 83.3241 101.476 83.4293C101.826 83.7603 101.863 86.6483 99.1999 89.2063L99.1969 89.2083ZM98.9349 62.7293C98.7949 64.6092 98.8319 66.5271 98.8699 68.4654C98.9279 71.4597 98.9869 74.5026 98.3939 77.5293C98.3359 77.8244 98.1129 77.4171 97.1939 75.7404C96.5339 74.5358 95.5159 72.6758 93.9409 69.9503C93.6489 69.4448 93.7619 69.189 94.2829 68.0184C94.5119 67.5033 94.8189 66.811 95.2059 65.8423C95.8989 64.1088 96.1949 63.0019 96.3739 62.3323C96.5229 61.7753 96.5909 61.5207 96.7389 61.4596C96.8639 61.408 97.0449 61.4936 97.3789 61.6512L97.3939 61.6583L97.5929 61.7521C98.8289 62.3331 98.9639 62.3963 98.9389 62.7273L98.9349 62.7293ZM98.9519 78.4683C99.6259 78.6549 100.277 78.9155 100.894 79.2453C100.955 79.3197 100.842 79.4716 100.725 79.6308C100.673 79.7005 100.621 79.7716 100.581 79.8383C100.547 79.8962 100.515 79.9502 100.486 80.0007L100.415 80.1236L100.414 80.1243C100.159 80.5643 100.092 80.68 99.9239 80.7313C99.8019 80.7683 99.6679 80.7012 99.5209 80.628C99.4579 80.5963 99.3919 80.5634 99.3239 80.5373C99.1949 80.4874 99.0759 80.4428 98.9669 80.402C97.8699 79.9912 97.7869 79.96 98.5479 78.5973C98.5649 78.5609 98.5889 78.5284 98.6199 78.5017C98.6499 78.4751 98.6849 78.455 98.7229 78.4427C98.7619 78.4304 98.8019 78.4261 98.8419 78.4302C98.8819 78.4343 98.9209 78.4466 98.9559 78.4663L98.9519 78.4683ZM79.8279 31.3713C82.4279 28.5473 84.7519 28.0233 88.5909 28.1343C93.2699 28.271 94.8139 30.0788 97.1539 32.8183C97.3139 33.006 97.4779 33.1981 97.6469 33.3943C99.6549 35.7255 102.935 37.7285 106.406 39.8477C111.459 42.933 116.916 46.2645 119.435 51.2133C121.446 55.1633 120.946 59.7993 119.535 63.3283C117.587 68.1887 113.799 71.7592 109.365 75.9383C107.989 77.2354 106.55 78.5912 105.085 80.0623C104.972 80.1753 104.897 80.2473 104.696 80.0893C104.12 79.5425 103.476 79.0735 102.778 78.6943C102.432 78.5916 102.178 78.6553 101.943 78.7145C101.699 78.7757 101.474 78.8322 101.185 78.6943C100.482 78.3633 100.014 78.1545 99.7039 78.016C99.2309 77.8047 99.1249 77.7573 99.1099 77.6897C99.1059 77.6702 99.1089 77.649 99.1129 77.6217L99.1139 77.6143C99.6089 73.8238 99.6519 70.7 99.6929 67.6655C99.7429 64.0067 99.7909 60.4777 100.628 56.0663C100.723 55.5663 100.299 55.4473 100.128 55.9733C99.6589 57.6511 99.3269 59.3645 99.1369 61.0963C99.0709 61.3763 98.9489 61.4263 98.6269 61.2663C87.8519 55.9068 83.4126 50.7039 81.3415 48.2767C80.4526 47.2348 79.9999 46.7043 79.6699 46.8923C79.5049 46.9873 79.5939 47.3833 80.1099 48.0433C83.5498 52.4484 86.0895 54.4098 87.3899 55.4139C88.3469 56.1533 88.6319 56.3736 88.1099 56.6683C86.573 57.4276 84.8649 57.7735 83.1537 57.672C81.4425 57.5704 79.7872 57.025 78.3509 56.0893C72.0619 51.6693 74.0099 37.6843 79.8279 31.3713ZM64.2999 43.4833C62.6399 41.8623 65.1899 36.6233 66.3269 35.3313C66.4167 35.4616 66.5144 35.6349 66.6189 35.8202C66.8889 36.2994 67.2044 36.859 67.5469 36.9643C67.8737 37.0645 67.7249 36.5471 67.4683 35.6542C67.1971 34.7108 66.8055 33.3483 66.7269 31.8523C66.7223 31.7714 66.8986 31.7348 67.1512 31.6823C67.5014 31.6096 67.9985 31.5063 68.3639 31.2123C69.0569 30.6551 68.5348 30.7181 67.4598 30.8479C66.7293 30.9361 65.7433 31.0552 64.7099 31.0313C59.6639 30.9163 58.5039 29.1653 58.1229 25.4313C58.1037 21.9825 58.8114 18.5683 60.1999 15.4113C60.4283 15.0821 60.7648 14.8433 61.1509 14.7363C61.4898 14.5995 61.8148 14.4985 62.0761 14.4174C62.4315 14.3069 62.6691 14.2331 62.6639 14.1553C62.6479 13.8963 62.3879 13.6823 61.6919 13.8803C61.5939 13.9081 61.5039 13.9365 61.4226 13.9621C60.7429 14.1765 60.6717 14.199 61.5819 12.0633C61.7415 11.689 61.7892 11.6982 62.0445 11.7472C62.2803 11.7925 62.6931 11.8718 63.5349 11.7143C63.9369 11.6395 64.0975 11.8238 64.283 12.0367C64.5932 12.3927 64.9731 12.8286 66.6669 12.2673C67.2752 12.0659 67.4341 12.2964 67.6388 12.5935C67.7868 12.8083 67.9588 13.0579 68.3419 13.2043C69.1429 13.527 70.0388 13.5217 70.8359 13.1893C71.3297 12.9906 71.6043 13.2327 72.0873 13.6585L72.0878 13.6589C72.1562 13.7193 72.2289 13.7833 72.3069 13.8503C73.1907 14.6087 74.2784 14.3777 74.9944 14.2256C75.1234 14.1982 75.2404 14.1733 75.3419 14.1573C75.7366 14.0955 75.9453 14.2561 76.2833 14.5162C76.4429 14.6391 76.6314 14.7841 76.8819 14.9383C77.5856 15.369 78.0203 15.3383 78.2738 15.3203C78.4912 15.3049 78.5754 15.299 78.5819 15.6013C78.6429 18.3223 78.2129 19.4553 76.6349 21.7893C76.4769 22.0233 76.2799 22.1583 76.2349 21.9703C76.1832 21.668 76.0602 21.3824 75.876 21.1371C75.6918 20.8919 75.4518 20.6941 75.1759 20.5602C74.9 20.4262 74.5962 20.36 74.2896 20.367C73.9829 20.374 73.6824 20.454 73.4129 20.6003C72.4179 21.0483 72.1019 22.1603 72.5989 21.9263C73.038 21.5151 73.5756 21.2237 74.1599 21.0803C75.4599 20.8513 76.0259 22.5593 74.9599 23.6353C74.8057 23.7909 74.7269 23.6703 74.5954 23.4692C74.4472 23.2424 74.2322 22.9133 73.7669 22.7623C73.0669 22.5343 71.1739 23.2333 71.7589 24.7503C72.0354 25.4674 71.5966 25.8592 71.1423 26.265C70.9574 26.4301 70.7698 26.5976 70.6269 26.7903C69.9829 27.6573 71.0269 29.2473 73.2699 26.9183C73.8058 26.4373 74.2309 25.8457 74.5159 25.1843C74.7088 24.6811 74.7677 24.7708 76.2349 27.0071C76.5782 27.5304 76.9986 28.1711 77.5159 28.9493C77.6509 29.1523 77.7628 29.3006 77.8488 29.4145C78.0954 29.7411 78.1285 29.7848 77.8779 30.0243C76.3834 31.2908 75.0775 32.7644 73.9999 34.4003C73.8737 34.5967 73.4213 35.1394 72.8673 35.8038L72.8667 35.8044L72.8662 35.8051C72.2919 36.4939 71.6087 37.3132 71.0669 38.0133C70.6556 38.5449 70.2451 39.1076 69.8374 39.6663C67.8371 42.4074 65.9056 45.0542 64.2999 43.4833ZM72.3169 24.4303C72.2169 23.9933 72.3669 23.5513 73.1649 23.3363C73.8989 23.1363 74.1789 23.6223 74.1139 24.5273C74.0089 25.9793 71.3969 27.9033 71.1249 27.4843C70.9739 27.2515 71.0731 27.1533 71.3773 26.8523C71.5564 26.675 71.8067 26.4274 72.1189 26.0403C72.2909 25.8132 72.3998 25.5447 72.4345 25.262C72.4693 24.9792 72.4287 24.6923 72.3169 24.4303ZM51.0079 187.107C49.5036 186.932 48.0407 186.499 46.6829 185.828C45.1357 184.952 45.1556 184.68 45.2287 183.68L45.2349 183.595C45.2549 183.323 45.3619 183.262 45.6059 183.372C46.1164 183.601 46.5181 183.816 46.8916 184.016C48.4796 184.867 49.5578 185.445 56.3219 185.605C61.125 185.719 63.9688 185.552 65.6562 185.453C67.9109 185.321 68.1011 185.31 68.1429 186.251C68.1475 186.356 68.1541 186.45 68.1599 186.536C68.2021 187.149 68.2122 187.295 67.2759 187.351C66.7749 187.379 55.7749 187.847 51.0079 187.107ZM69.5359 165.526C68.5487 169.316 68.2135 171.608 67.9927 173.117C67.7601 174.708 67.6542 175.431 67.0469 176.126C65.3899 178.026 62.9869 178.514 61.9749 177.858C60.0047 176.58 60.0754 174.485 60.1759 171.509C60.2387 169.651 60.313 167.449 59.9099 164.888C59.8161 164.29 59.8559 164.297 60.8055 164.473C61.2523 164.556 61.9005 164.676 62.8309 164.788C64.4903 164.987 65.973 165.047 67.1199 165.094C68.6829 165.157 69.6224 165.194 69.5359 165.526ZM74.0629 151.72C72.9909 155.873 71.6804 159.962 70.1379 163.964C69.9562 164.47 69.8703 164.466 69.397 164.447L69.3129 164.444C68.3881 164.339 67.1016 164.246 65.7714 164.15C62.8798 163.941 59.7816 163.717 59.7439 163.316C59.0184 158.938 58.0163 154.611 56.7439 150.36C56.5888 149.838 56.7308 149.888 57.4496 150.139C58.1538 150.384 59.4115 150.823 61.4859 151.107C68.3364 152.046 71.6393 151.586 73.0928 151.383C74.0079 151.255 74.19 151.23 74.0629 151.72ZM86.5699 127.832C86.2165 128.405 79.7578 125.143 76.7754 123.636L76.7693 123.633C76.2519 123.372 75.8397 123.164 75.5829 123.038L75.4962 122.996C75.2913 122.897 75.1786 122.842 75.1298 122.752C75.0701 122.643 75.1061 122.481 75.1862 122.121C75.2988 121.616 75.4985 120.719 75.6419 119.027L75.6431 119.012C75.7085 118.24 75.8313 116.79 75.2749 117.327C74.0133 118.542 73.2087 119.37 72.6677 119.927C71.8993 120.717 71.6627 120.961 71.404 120.987C71.2888 120.999 71.1693 120.968 70.9967 120.922C70.9344 120.906 70.8652 120.888 70.7869 120.869C66.2299 119.941 61.7589 118.631 57.4209 116.955L57.4172 116.954C57.2748 116.895 57.1887 116.859 57.1561 116.796C57.106 116.699 57.1816 116.537 57.3732 116.127C57.5004 115.855 57.6785 115.474 57.9049 114.93C58.1217 114.408 58.1273 114.41 59.3021 114.87C60.6195 115.386 63.4073 116.478 69.6119 118.051C70.1167 118.18 70.2024 118.12 71.5828 117.153C72.1164 116.78 72.8435 116.271 73.8629 115.585C74.2799 115.305 77.2449 113.335 77.4409 113.23C77.461 113.219 77.4805 113.208 77.4995 113.198C77.9292 112.954 78.0938 112.861 78.8829 119.413C78.9279 119.789 78.9412 120.036 78.9515 120.227C78.9763 120.685 78.9835 120.82 79.3689 121.625C79.6039 122.118 86.6591 124.716 87.9319 125.185H87.9329C88.0569 125.231 88.1259 125.256 88.1279 125.257C87.6629 126.147 87.1429 127.007 86.5699 127.832ZM87.9259 124.278C86.3001 123.683 84.8967 123.198 83.7433 122.8L83.7428 122.799C81.3817 121.984 80.0681 121.53 80.0399 121.228C79.9329 120.088 79.3539 116.636 78.7799 114.115L78.7694 114.069C78.294 111.982 78.2789 111.916 72.7879 115.342C71.7175 116.01 71.0988 116.501 70.6846 116.829C70.0598 117.325 69.9003 117.452 69.3579 117.259C64.5921 115.569 61.8572 114.761 60.3245 114.308C58.9699 113.907 58.5544 113.785 58.5059 113.576C58.4845 113.484 58.535 113.375 58.6078 113.218C58.6218 113.188 58.6366 113.156 58.6519 113.122C62.0347 105.28 66.0545 97.7292 70.6709 90.5443C71.3439 89.5233 79.7649 86.1443 89.7229 84.9383C90.1689 84.8844 90.5159 84.835 90.7849 84.7967L90.7859 84.7966C91.3669 84.7138 91.5869 84.6826 91.6529 84.7688C91.6929 84.8209 91.6759 84.9162 91.6499 85.0693C91.6449 85.0979 91.6389 85.1286 91.6339 85.1613C91.5249 85.825 91.7729 86.0936 91.9739 86.3111C92.1429 86.4938 92.2779 86.6403 92.1409 86.9543C91.7349 87.8823 91.5039 88.5183 91.9769 89.0613C92.4929 89.6523 93.0169 89.5033 93.5829 89.2203C93.9499 89.0377 94.2239 89.2791 94.5269 89.5452C94.9079 89.8809 95.3349 90.2558 96.0469 89.8693C96.3769 89.6891 96.5719 89.8427 96.7979 90.0202C97.0729 90.2366 97.3919 90.4884 98.0569 90.2143C98.2269 90.1438 98.3689 90.1898 98.5209 90.2386C98.7869 90.3242 99.0809 90.4191 99.6019 89.9143C99.8609 89.6631 100.089 89.3848 100.284 89.1464C100.704 88.6322 100.973 88.3035 101.079 88.8323L101.123 89.0519L101.171 89.2891L101.175 89.307L101.176 89.3108C102.495 95.8282 103.144 99.0332 89.0099 123.894C88.6439 124.541 88.6389 124.539 87.9519 124.288L87.9259 124.278ZM91.0959 121.772C92.6499 119.126 92.8489 118.787 93.1439 118.592C93.1869 118.563 93.2319 118.537 93.2839 118.508L93.3219 118.486C97.7289 115.968 100.877 114.152 103.129 112.854L103.13 112.853C108.009 110.039 108.677 109.653 108.834 109.803C108.859 109.827 108.871 109.864 108.885 109.908C108.891 109.927 108.898 109.948 108.906 109.969C109.006 110.213 109.706 112.169 109.828 112.518C109.977 112.951 109.971 112.953 108.892 113.439C107.639 114.004 104.938 115.22 99.3529 118.518C95.3799 120.86 92.7099 122.753 91.1299 123.873C89.3319 125.147 88.9439 125.422 89.6539 124.221C90.2339 123.238 90.7069 122.433 91.0959 121.772ZM121.306 134.072C120.359 134.752 116.649 123.381 116.341 122.172L116.339 122.163C116.288 121.964 116.254 121.831 116.295 121.728C116.377 121.519 116.766 121.43 117.94 121.162C119.135 120.89 121.144 120.432 124.473 119.472C124.77 119.387 124.787 119.461 124.876 119.836C124.946 120.135 125.062 120.625 125.399 121.377C127.339 125.708 128.218 126.67 128.92 127.438C129.09 127.624 129.25 127.799 129.412 128.008C128.926 128.61 122.546 133.183 121.438 133.978H121.437L121.306 134.072ZM130.62 127.185L130.612 127.191C130.075 127.636 130.048 127.658 129.629 127.095C127.987 124.729 126.562 122.219 125.374 119.595C125.245 119.242 125.254 119.239 126.15 118.982C126.775 118.802 127.832 118.498 129.574 117.865C131.074 117.319 132.041 116.911 132.715 116.626C134.264 115.972 134.275 115.967 135.669 116.43C136.435 116.712 137.092 117.228 137.549 117.904C138.005 118.581 138.237 119.384 138.211 120.199C138.211 120.264 138.211 120.325 138.212 120.381C138.214 120.58 138.215 120.727 138.179 120.865C138.079 121.248 137.685 121.555 136.189 122.72C135.066 123.594 133.324 124.951 130.62 127.185ZM140.656 108.8C140.753 108.705 140.872 108.634 141.003 108.594C141.133 108.554 141.271 108.546 141.405 108.57C141.789 108.619 142.157 108.751 142.485 108.956C142.813 109.162 143.093 109.435 143.305 109.759C146.368 113.41 148.483 114.777 150.503 116.083C151.925 117.002 153.299 117.89 154.922 119.522C155.899 120.504 158.322 123.898 157.063 124.196C155.933 124.466 154.929 123.366 153.442 121.736C152.176 120.349 150.56 118.578 148.217 116.94C143.68 113.768 141.54 111.472 140.856 110.04C140.53 109.362 140.492 109.009 140.656 108.8ZM153.408 125.34C152.76 124.792 152.235 124.203 151.633 123.526C150.805 122.596 149.829 121.5 148.181 120.117C147.835 119.827 147.381 119.506 146.848 119.131C144.773 117.666 141.516 115.367 138.921 110.806C138.707 110.431 138.86 110.283 139.506 109.658L139.636 109.532C139.677 109.492 139.72 109.45 139.765 109.406C139.91 109.265 139.929 109.323 140.011 109.572C140.119 109.904 140.339 110.575 141.116 111.563C143.053 113.754 145.261 115.689 147.688 117.321C150.347 119.278 151.885 121.066 153.047 122.419C154.44 124.04 155.296 125.035 156.9 124.946C157.008 124.94 157.1 124.928 157.174 124.918C157.332 124.896 157.412 124.885 157.4 124.969C157.229 126.237 155.42 127.033 153.408 125.336V125.34ZM72.3059 53.6001C74.0819 60.1691 80.3839 63.9561 90.9819 59.7201C91.6379 59.4581 91.9439 59.3601 91.9199 59.6591L91.9189 59.6666C91.9059 59.843 91.8979 59.9471 91.3919 60.2321C89.2439 61.2925 86.9294 61.9765 84.5499 62.2541C74.7999 63.4001 70.5189 56.5271 71.0999 47.6271C71.3908 44.2783 72.1502 40.9869 73.3559 37.8491C73.3831 37.8053 73.425 37.7725 73.4741 37.7566C73.5231 37.7406 73.5762 37.7425 73.6241 37.7618C73.6719 37.7812 73.7113 37.8168 73.7354 37.8624C73.7596 37.908 73.7668 37.9607 73.7559 38.0111C73.685 38.2708 73.5875 38.5942 73.4732 38.9732C72.6056 41.8505 70.7728 47.9292 72.3059 53.6001ZM142.182 120.224C142.177 120.316 142.052 120.403 141.838 120.551C141.718 120.634 141.57 120.736 141.4 120.87C142.2 121.439 148.934 123.787 147.686 122.894C146.509 122.29 145.376 121.604 144.295 120.842C144.037 120.663 144.27 120.518 144.496 120.377C144.72 120.238 144.938 120.103 144.67 119.942C142.842 118.843 141.831 118.09 141.204 117.623C140.644 117.206 140.392 117.017 140.138 117.016C139.929 117.015 139.72 117.141 139.338 117.369C139.23 117.434 139.109 117.507 138.97 117.587C138.764 117.707 138.631 117.827 139.1 118.149C140.155 118.872 140.898 119.319 141.39 119.615C141.954 119.954 142.188 120.094 142.182 120.224ZM58.2649 182.137H58.266C60.2031 181.11 60.6527 180.871 60.5729 181.365C60.5327 181.616 60.4878 181.81 60.4533 181.959C60.3605 182.359 60.3421 182.438 60.6889 182.443C62.7906 181.822 63.9487 181.317 64.5994 181.034C65.072 180.828 65.2769 180.739 65.3811 180.806C65.4607 180.857 65.4815 181 65.5182 181.252L65.5209 181.27L65.539 181.393L65.5593 181.528C65.6707 182.269 65.6834 182.354 65.3289 182.441C63.6728 182.849 62.4767 183.144 61.611 183.358L61.5658 183.369L61.5613 183.37L61.5603 183.371H61.5588H61.5563L61.5523 183.372C59.4114 183.901 59.3443 183.918 59.2849 183.903L59.2769 183.901C59.0953 183.853 59.1314 183.641 59.1672 183.43C59.2129 183.161 59.2581 182.896 58.8519 182.975C57.9491 183.221 57.0277 183.392 56.0969 183.486C56.0737 183.486 56.0513 183.478 56.0335 183.463C56.0157 183.448 56.0036 183.427 55.9993 183.405C55.9951 183.382 55.9989 183.358 56.0101 183.338C56.0214 183.318 56.0393 183.302 56.0609 183.293C56.9507 182.834 57.6764 182.449 58.2649 182.137ZM100.915 81.3296C100.895 81.4004 100.89 81.4745 100.9 81.5474C100.918 81.6807 100.986 81.8023 101.09 81.8877C101.194 81.9731 101.326 82.0161 101.461 82.0082C101.595 82.0002 101.721 81.9419 101.814 81.8448C101.908 81.7476 101.961 81.619 101.963 81.4844C101.964 81.4109 101.95 81.3378 101.922 81.2699C101.894 81.202 101.852 81.1406 101.799 81.0897C101.746 81.0388 101.683 80.9994 101.614 80.974C101.544 80.9486 101.471 80.9377 101.397 80.9421C101.324 80.9464 101.252 80.9659 101.187 80.9993C101.121 81.0327 101.063 81.0792 101.017 81.1361C100.97 81.1929 100.935 81.2588 100.915 81.3296ZM102.018 80.4004C101.957 80.4069 101.895 80.4008 101.837 80.3823C101.778 80.3638 101.724 80.3335 101.678 80.2932C101.632 80.2528 101.595 80.2034 101.569 80.148C101.542 80.0925 101.528 80.0323 101.526 79.971C101.524 79.9097 101.535 79.8487 101.558 79.7918C101.581 79.7349 101.615 79.6834 101.659 79.6404C101.703 79.5975 101.755 79.564 101.812 79.5422C101.87 79.5203 101.931 79.5105 101.992 79.5134C102.053 79.507 102.115 79.5131 102.173 79.5316C102.232 79.5501 102.286 79.5804 102.332 79.6207C102.378 79.661 102.415 79.7105 102.441 79.7659C102.468 79.8214 102.482 79.8816 102.484 79.9429C102.486 80.0042 102.475 80.0652 102.452 80.1221C102.429 80.1789 102.395 80.2305 102.351 80.2734C102.307 80.3164 102.255 80.3499 102.198 80.3717C102.14 80.3936 102.079 80.4034 102.018 80.4004ZM102.411 83.232C102.543 83.3702 102.725 83.4502 102.916 83.4545C103.014 83.4569 103.112 83.4394 103.203 83.403C103.294 83.3666 103.377 83.312 103.446 83.2426C103.515 83.1732 103.57 83.0904 103.606 82.9992C103.642 82.9081 103.66 82.8105 103.657 82.7125C103.66 82.6191 103.643 82.5262 103.608 82.4395C103.573 82.3528 103.521 82.2742 103.454 82.2086C103.388 82.143 103.309 82.0917 103.222 82.0579C103.134 82.0242 103.041 82.0087 102.948 82.0125C102.757 82.0082 102.572 82.0801 102.433 82.2123C102.295 82.3445 102.215 82.5262 102.211 82.7175C102.207 82.9087 102.279 83.0938 102.411 83.232ZM103.459 81.4364C103.381 81.4396 103.304 81.4271 103.231 81.3997C103.159 81.3722 103.092 81.3303 103.036 81.2766C102.98 81.2228 102.936 81.1583 102.905 81.0868C102.875 81.0154 102.859 80.9385 102.859 80.8609C102.859 80.7832 102.875 80.7063 102.905 80.6349C102.936 80.5635 102.98 80.4989 103.036 80.4452C103.092 80.3914 103.159 80.3495 103.231 80.3221C103.304 80.2946 103.381 80.2821 103.459 80.2854C103.537 80.2821 103.614 80.2946 103.687 80.3221C103.759 80.3495 103.826 80.3914 103.882 80.4452C103.938 80.4989 103.982 80.5635 104.013 80.6349C104.043 80.7063 104.059 80.7832 104.059 80.8609C104.059 80.9385 104.043 81.0154 104.013 81.0868C103.982 81.1583 103.938 81.2228 103.882 81.2766C103.826 81.3303 103.759 81.3722 103.687 81.3997C103.614 81.4271 103.537 81.4396 103.459 81.4364ZM104.342 81.5828C104.286 81.6171 104.238 81.6626 104.2 81.7165C104.137 81.8168 104.114 81.9374 104.136 82.054C104.158 82.1706 104.224 82.2744 104.319 82.3444C104.415 82.4144 104.534 82.4454 104.652 82.4311C104.77 82.4169 104.878 82.3584 104.954 82.2675C105.022 82.1702 105.054 82.0517 105.043 81.9333C105.031 81.8149 104.978 81.7043 104.893 81.6215C104.842 81.5797 104.783 81.5489 104.72 81.531C104.657 81.513 104.591 81.5084 104.526 81.5173C104.461 81.5262 104.398 81.5485 104.342 81.5828Z" fill="#44BF99"/>
<path d="M65.875 24.6853C64.546 25.0413 62.335 25.5683 61.068 24.6963C60.738 24.4683 60.598 24.8453 60.954 25.1333C62.059 26.0283 64.394 25.6893 65.254 25.4763C65.654 25.3763 64.88 27.1763 61.922 28.4003C61.53 28.5623 61.903 28.8813 62.811 28.5433C66.131 27.3053 66.682 24.4693 65.875 24.6853Z" fill="#44BF99"/>
<path d="M62.9238 22.3812C64.2178 22.5562 64.6528 22.4692 64.7698 22.2352C64.8598 22.0542 64.5888 21.8452 64.0998 21.7452C61.8598 21.2852 62.0378 22.0032 63.5528 17.3892C63.7798 16.6982 63.2988 16.6212 63.0188 17.2892C61.4168 21.1332 60.8508 22.1002 62.9238 22.3812Z" fill="#44BF99"/>
<path d="M72.1138 15.8366C75.9938 16.8306 78.5458 17.5456 77.9648 17.0846C77.1478 16.4356 71.7888 14.5436 71.6538 15.4466C71.6178 15.6846 71.8998 15.7816 72.1138 15.8366Z" fill="#44BF99"/>
<path d="M71.7441 17.4433C71.7441 17.7113 71.691 17.6213 75.922 18.7713C79.785 19.8223 71.7441 16.3003 71.7441 17.4433Z" fill="#44BF99"/>
<path d="M65.532 15.1051C66.02 15.2051 67.353 14.8291 68.046 15.6231C68.318 15.9341 68.724 15.5101 68.236 14.9121C67.077 13.4921 64.553 14.9061 65.532 15.1051Z" fill="#44BF99"/>
<path d="M71.877 19.0056C71.268 19.4676 72.133 19.5336 73.922 19.7146C74.7 19.3006 72.085 18.8476 71.877 19.0056Z" fill="#44BF99"/>
<path d="M61.718 17.6521C61.79 17.3381 61.79 16.8602 61.407 16.8772C60.897 16.9002 60.697 17.8522 60.99 18.1342C61.2 18.3322 61.6 18.1722 61.718 17.6521Z" fill="#44BF99"/>
<path d="M65.9899 17.4732C65.4689 17.4102 65.2279 18.6732 65.7649 18.7502C66.3019 18.8272 66.6209 17.5492 65.9899 17.4732Z" fill="#44BF99"/>
<path d="M1.48696 15.4272C-0.229044 14.8442 -0.349044 12.3572 8.23996 12.5822C8.90296 12.5992 8.86496 12.5672 8.63296 12.1722C7.93296 10.9642 7.85496 7.39524 14.726 9.58124C17.559 10.4812 17.218 10.7262 17.243 8.84624C17.302 4.48227 20.332 1.46727 23.571 4.02927C24.637 4.96317 25.5045 6.10164 26.122 7.37724C26.433 7.90224 26.408 7.66324 27.637 6.34624C30.784 2.97627 36.837 1.56127 37.867 5.74624C38.377 7.81624 36.744 10.0902 37.482 9.82624C39.615 9.06624 43.014 8.33424 44.025 10.3592C44.525 11.3672 43.659 12.3662 43.495 12.6652C43.924 12.8802 45.768 12.7982 47.195 13.8992C47.809 14.3722 47.95 15.1252 47.195 15.4122C44.7 16.3632 2.76596 15.8632 1.48696 15.4272ZM41.624 15.1212C41.624 15.0602 52.024 15.5212 44.152 13.5322C41.658 12.9022 42.092 13.4702 42.996 11.9322C43.472 11.1222 43.403 10.2882 42.31 10.0462C39.524 9.43024 37.093 11.0882 36.58 11.1112C35.54 11.1582 36.289 9.88024 36.828 8.13524C38.173 3.77527 34.128 2.79027 30.055 5.44124C26.455 7.79024 26.86 10.2162 25.461 7.86624C24.473 6.20524 23.918 5.00624 22.389 4.18527C20.938 3.40727 19.241 3.88527 18.411 6.70824C17.581 9.53124 18.878 11.8182 16.45 10.9592C13.188 9.80624 11.721 9.27824 9.77996 9.75924C9.10496 9.92524 8.71896 11.2682 9.46096 12.1412C9.60696 12.3142 9.76996 12.4762 9.90696 12.6542C10.916 13.9732 4.09796 12.7752 1.73296 14.0462C-1.06004 15.5442 6.99995 15.1212 41.624 15.1212Z" fill="#44BF99"/>
<path d="M107.879 24.5424C108.653 21.6734 118.661 22.2334 119.241 22.1424C119.397 22.1194 119.374 22.0304 119.292 21.8964C119.009 21.4776 118.814 21.0055 118.72 20.509C118.625 20.0125 118.633 19.5019 118.742 19.0084C119.061 17.8084 120.23 16.8494 123.076 17.0244C127.043 17.2684 130.905 19.7534 130.961 18.7244C130.991 18.1844 131.039 17.6454 131.041 17.1044C131.066 11.9884 134.241 7.37844 138.599 9.46044C139.325 9.80744 139.199 9.92344 139.344 9.26744C142.209 -3.68656 160.684 -2.68856 162.63 9.88144C163.516 15.6034 160.705 17.6444 161.677 17.5254C161.877 17.5004 165.962 16.5884 167.82 18.3334C168.694 19.1544 168.744 20.4254 167.628 22.1334C167.517 22.3034 167.565 22.3564 167.793 22.3944C168.188 22.4594 171.803 22.7644 173.1 24.3844C173.786 25.2414 173.376 26.0624 172.351 26.2384C166.543 27.2384 121.314 26.7984 111.086 26.2974C110.305 26.2634 107.438 26.1754 107.879 24.5424ZM147.297 21.8724C149.081 22.5377 151.009 22.7182 152.886 22.3954C154.762 22.0725 156.52 21.258 157.979 20.0347C159.438 18.8114 160.547 17.2232 161.192 15.4319C161.837 13.6405 161.996 11.7101 161.652 9.83744C159.621 -1.12156 144.227 -2.14556 140.787 8.39344C139.93 11.0466 140.129 13.9278 141.342 16.4382C142.555 18.9486 144.689 20.8948 147.3 21.8724H147.297ZM108.977 24.5004C108.066 25.3404 110.594 25.5804 115.741 25.7004C142.263 26.3004 168.841 25.9494 171.585 25.5344C172.631 25.3764 173.132 25.0524 171.267 24.2404C169.956 23.6743 168.574 23.2878 167.159 23.0914C166.002 22.8764 165.88 22.8704 166.494 22.1084C166.83 21.7789 167.079 21.371 167.219 20.9214C167.359 20.4717 167.384 19.9944 167.294 19.5324C166.832 17.9454 163.587 17.7654 160.787 18.7894C160.071 19.0514 156.46 24.2744 149.645 23.6004C144.923 23.1334 140.281 19.5684 139.175 13.3074C138.893 11.7074 139.314 11.1544 138.767 10.8134C136.86 9.62444 135.204 9.82844 133.891 11.3334C131.552 14.0144 132.25 18.3184 131.799 19.6544C131.212 21.3934 127.199 18.2114 123.162 17.9224C121.213 17.7834 119.643 18.1494 119.677 20.1054C119.693 20.5425 119.809 20.97 120.018 21.3547C120.226 21.7394 120.52 22.0709 120.877 22.3234C121.258 22.6454 120.667 22.9064 120.417 22.9164C117.233 22.9325 114.054 23.1664 110.902 23.6164C110.195 23.7401 109.532 24.0446 108.977 24.5004Z" fill="#44BF99"/>
</svg>
