<svg width="24" height="24" viewBox="0 0 24 24" fill="none" xmlns="http://www.w3.org/2000/svg">
<g clip-path="url(#clip0_145_1323)">
<path d="M11.946 2.29053C7.4805 2.29053 3.5895 4.84653 2.466 8.47803H1.641C1.42232 8.47827 1.20633 8.52632 1.00817 8.61882C0.810011 8.71132 0.634474 8.84603 0.493858 9.01351C0.353241 9.181 0.250946 9.3772 0.194139 9.58838C0.137332 9.79956 0.127388 10.0206 0.165002 10.236L0.546002 12.426C0.636797 12.9481 0.908964 13.4214 1.31454 13.7625C1.72011 14.1036 2.23307 14.2906 2.763 14.2905H3.1575C3.6075 15.06 4.1895 15.7575 4.875 16.3635L3.7815 20.079C3.74862 20.1909 3.74227 20.3089 3.76297 20.4236C3.78367 20.5384 3.83083 20.6467 3.90073 20.7401C3.97062 20.8334 4.06131 20.9092 4.1656 20.9613C4.26989 21.0135 4.3849 21.0406 4.5015 21.0405H7.5015C7.65625 21.0405 7.80722 20.9927 7.93371 20.9035C8.06019 20.8144 8.15601 20.6883 8.208 20.5425L8.931 18.516C9.8835 18.7755 10.896 18.9165 11.9475 18.9165C13.008 18.9165 14.0295 18.774 14.9895 18.5085L15.804 20.5665C15.8593 20.7064 15.9554 20.8263 16.0798 20.9108C16.2042 20.9954 16.3511 21.0406 16.5015 21.0405H19.5015C19.6185 21.0404 19.7339 21.0129 19.8384 20.9602C19.9429 20.9075 20.0336 20.8311 20.1033 20.7371C20.173 20.6431 20.2197 20.534 20.2397 20.4187C20.2597 20.3034 20.2524 20.185 20.2185 20.073L19.077 16.314C20.715 14.8425 21.75 12.8385 21.75 10.6035C21.75 10.386 21.7395 10.1685 21.72 9.95703C22.1115 9.79203 22.482 9.55803 22.7775 9.29103C23.25 9.75003 24 9.75003 24 8.66553C24 9.00003 23.25 9.00003 23.3085 8.62653C23.3715 8.50612 23.417 8.37731 23.4435 8.24403C23.4788 8.07029 23.4695 7.89046 23.4165 7.72128C23.3635 7.55211 23.2686 7.3991 23.1405 7.27653C23.0054 7.1373 22.8277 7.04721 22.6355 7.02058C22.4434 6.99395 22.2479 7.03229 22.08 7.12953C21.9257 7.21482 21.794 7.33588 21.6961 7.48256C21.5983 7.62925 21.537 7.79727 21.5175 7.97253C21.4815 8.33703 21.6405 8.69253 21.9975 8.95353C21.8736 9.03916 21.7438 9.11586 21.609 9.18303C20.808 5.18703 16.683 2.29053 11.946 2.29053ZM22.7055 8.10453C22.6788 8.21856 22.6287 8.32581 22.5585 8.41953C22.5361 8.40782 22.514 8.39531 22.4925 8.38203C22.2735 8.24703 22.257 8.11953 22.2645 8.04753C22.2719 7.99371 22.2916 7.94231 22.322 7.89731C22.3524 7.85231 22.3928 7.81492 22.44 7.78803C22.5135 7.74753 22.56 7.75653 22.6095 7.80603C22.6512 7.8423 22.6822 7.88928 22.6991 7.94189C22.716 7.99451 22.7182 8.05075 22.7055 8.10453ZM9.207 7.12953C9.11091 7.16213 9.00921 7.1749 8.90804 7.16706C8.80688 7.15921 8.70835 7.13092 8.61844 7.0839C8.52852 7.03688 8.44908 6.9721 8.38493 6.89348C8.32078 6.81487 8.27324 6.72405 8.24521 6.62653C8.21717 6.52901 8.20921 6.42682 8.22182 6.32613C8.23442 6.22545 8.26733 6.12837 8.31854 6.04077C8.36975 5.95318 8.43821 5.87688 8.51976 5.81651C8.60131 5.75613 8.69427 5.71293 8.793 5.68953C9.81833 5.39653 10.8796 5.24859 11.946 5.25003C13.0905 5.25003 14.1915 5.41503 15.216 5.72253C15.3104 5.75079 15.3982 5.79737 15.4746 5.85959C15.5509 5.92182 15.6143 5.99847 15.661 6.08518C15.7077 6.17188 15.7369 6.26694 15.7469 6.36493C15.7569 6.46292 15.7475 6.56192 15.7193 6.65628C15.691 6.75063 15.6444 6.8385 15.5822 6.91485C15.52 6.99121 15.4433 7.05456 15.3566 7.10129C15.2699 7.14802 15.1748 7.17721 15.0768 7.18721C14.9789 7.1972 14.8799 7.18779 14.7855 7.15953C13.8639 6.88592 12.9074 6.74798 11.946 6.75003C10.986 6.75003 10.0635 6.88503 9.207 7.13103V7.12953ZM7.5 9.37503C7.5 9.6734 7.38148 9.95954 7.1705 10.1705C6.95952 10.3815 6.67337 10.5 6.375 10.5C6.07663 10.5 5.79048 10.3815 5.57951 10.1705C5.36853 9.95954 5.25 9.6734 5.25 9.37503C5.25 9.07666 5.36853 8.79051 5.57951 8.57953C5.79048 8.36855 6.07663 8.25003 6.375 8.25003C6.67337 8.25003 6.95952 8.36855 7.1705 8.57953C7.38148 8.79051 7.5 9.07666 7.5 9.37503Z" fill="#707974"/>
</g>
<defs>
<clipPath id="clip0_145_1323">
<rect width="24" height="24" fill="white"/>
</clipPath>
</defs>
</svg>
