<svg width="72" height="15" viewBox="0 0 72 15" fill="none" xmlns="http://www.w3.org/2000/svg">
<mask id="mask0_145_166" style="mask-type:luminance" maskUnits="userSpaceOnUse" x="0" y="1" width="20" height="14">
<path fill-rule="evenodd" clip-rule="evenodd" d="M0.0606689 1.22876L9.56985 14.1553L19.079 1.22876H0.0606689Z" fill="white"/>
</mask>
<g mask="url(#mask0_145_166)">
<path fill-rule="evenodd" clip-rule="evenodd" d="M9.56888 1.22876C1.72381 1.22876 -4.69489 7.0457 -4.69489 14.1553C-4.69489 21.2649 1.72381 27.0818 9.56888 27.0818C17.414 27.0818 23.8327 21.2649 23.8327 14.1553C23.8327 7.0457 17.414 1.22876 9.56888 1.22876ZM9.56952 23.8502C3.62628 23.8502 -1.12831 19.5414 -1.12831 14.1553C-1.12831 8.76925 3.62628 4.46041 9.56952 4.46041C15.5128 4.46041 20.2674 8.76925 20.2674 14.1553C20.2674 19.5414 15.5128 23.8502 9.56952 23.8502Z" fill="#3F3D56" fill-opacity="0.24"/>
<path fill-rule="evenodd" clip-rule="evenodd" d="M9.56898 4.46021C3.62575 4.46021 -1.12885 8.76905 -1.12885 14.1551C-1.12885 19.5412 3.62575 23.85 9.56898 23.85C15.5122 23.85 20.2668 19.5412 20.2668 14.1551C20.2668 8.76905 15.5122 4.46021 9.56898 4.46021ZM9.56981 20.6184C5.64727 20.6184 2.43792 17.7099 2.43792 14.1551C2.43792 10.6004 5.64727 7.69188 9.56981 7.69188C13.4923 7.69188 16.7017 10.6004 16.7017 14.1551C16.7017 17.7099 13.4923 20.6184 9.56981 20.6184Z" fill="#00513D"/>
<path fill-rule="evenodd" clip-rule="evenodd" d="M9.56762 7.69189C5.64508 7.69189 2.43573 10.6004 2.43573 14.1552C2.43573 17.71 5.64508 20.6184 9.56762 20.6184C13.4902 20.6184 16.6995 17.71 16.6995 14.1552C16.6995 10.6004 13.4902 7.69189 9.56762 7.69189ZM9.56788 17.3868C7.54718 17.3868 6.00194 15.9864 6.00194 14.1552C6.00194 12.3239 7.54718 10.9235 9.56788 10.9235C11.5886 10.9235 13.1338 12.3239 13.1338 14.1552C13.1338 15.9864 11.5886 17.3868 9.56788 17.3868Z" fill="#00513D"/>
<path fill-rule="evenodd" clip-rule="evenodd" d="M9.57028 17.3868C11.5397 17.3868 13.1362 15.94 13.1362 14.1552C13.1362 12.3704 11.5397 10.9236 9.57028 10.9236C7.60086 10.9236 6.00433 12.3704 6.00433 14.1552C6.00433 15.94 7.60086 17.3868 9.57028 17.3868Z" fill="#00513D"/>
</g>
<mask id="mask1_145_166" style="mask-type:luminance" maskUnits="userSpaceOnUse" x="30" y="1" width="16" height="14">
<path fill-rule="evenodd" clip-rule="evenodd" d="M45.2289 14.1553V1.22876L30.9651 14.1553H45.2289Z" fill="white"/>
</mask>
<g mask="url(#mask1_145_166)">
<path fill-rule="evenodd" clip-rule="evenodd" d="M41.6627 1.22876V14.1553H45.2287V1.22876H41.6627Z" fill="#3F3D56" fill-opacity="0.24"/>
<path fill-rule="evenodd" clip-rule="evenodd" d="M38.0981 1.22876V14.1553H41.6641V1.22876H38.0981Z" fill="#3F3D56" fill-opacity="0.24"/>
<path fill-rule="evenodd" clip-rule="evenodd" d="M34.5316 1.22876V14.1553H38.0975V1.22876H34.5316Z" fill="#00513D"/>
<path fill-rule="evenodd" clip-rule="evenodd" d="M30.9651 1.22876V14.1553H34.531V1.22876H30.9651Z" fill="#00513D"/>
</g>
<mask id="mask2_145_166" style="mask-type:luminance" maskUnits="userSpaceOnUse" x="61" y="0" width="11" height="15">
<path fill-rule="evenodd" clip-rule="evenodd" d="M70.1911 1.22882H69.0024V0.151611H64.2478V1.22882H63.0592C62.346 1.22882 61.8705 1.65971 61.8705 2.30603V13.0781C61.8705 13.7245 62.346 14.1554 63.0592 14.1554H70.1911C70.9043 14.1554 71.3797 13.7245 71.3797 13.0781V2.30603C71.3797 1.65971 70.9043 1.22882 70.1911 1.22882Z" fill="white"/>
</mask>
<g mask="url(#mask2_145_166)">
<path fill-rule="evenodd" clip-rule="evenodd" d="M61.871 10.9236V14.1552H71.3802V10.9236H61.871Z" fill="#00513D"/>
<path fill-rule="evenodd" clip-rule="evenodd" d="M61.871 7.69189V10.9235H71.3802V7.69189H61.871Z" fill="#00513D"/>
<path fill-rule="evenodd" clip-rule="evenodd" d="M61.871 4.46045V7.69208H71.3802V4.46045H61.871Z" fill="#3F3D56" fill-opacity="0.24"/>
<path fill-rule="evenodd" clip-rule="evenodd" d="M61.871 1.22876V4.46039H71.3802V1.22876H61.871Z" fill="#3F3D56" fill-opacity="0.24"/>
<path fill-rule="evenodd" clip-rule="evenodd" d="M64.2501 0.151611V1.22882H69.0047V0.151611H64.2501Z" fill="#3F3D56" fill-opacity="0.24"/>
</g>
</svg>
