<svg width="238" height="180" viewBox="0 0 238 180" fill="none" xmlns="http://www.w3.org/2000/svg">
<path fill-rule="evenodd" clip-rule="evenodd" d="M210.074 64.3503C210.274 64.7628 211.037 64.8878 211.537 64.9753C215.612 65.7003 233.274 66.0753 234.974 64.6128C236.462 63.3628 235.637 42.9378 234.187 42.1128C232.312 41.0003 211.862 40.7878 210.437 41.9253C209.399 42.7878 208.749 61.4628 210.074 64.3503ZM210.749 42.1878C211.887 41.2378 231.862 41.9503 233.662 42.8253C234.624 45.4003 235.249 61.5753 234.312 63.8753C232.787 64.9253 214.099 64.8878 210.837 63.8753C209.562 60.8128 210.037 42.7878 210.749 42.1878ZM160.362 40.0003C159.866 40.8483 159.197 41.5819 158.398 42.1528C157.598 42.7237 156.687 43.119 155.724 43.3128C155.695 43.3052 155.664 43.3045 155.634 43.3107C155.604 43.3169 155.576 43.3299 155.552 43.3486C155.528 43.3672 155.509 43.3912 155.495 43.4186C155.482 43.446 155.475 43.4761 155.475 43.5065C155.475 43.537 155.482 43.5671 155.495 43.5945C155.509 43.6219 155.528 43.6458 155.552 43.6645C155.576 43.6832 155.604 43.6962 155.634 43.7024C155.664 43.7086 155.695 43.7079 155.724 43.7003C157.924 44.2753 160.787 42.2753 160.787 40.0753C160.797 40.0189 160.784 39.9609 160.751 39.914C160.718 39.8672 160.668 39.8352 160.612 39.8253C160.556 39.8153 160.498 39.8282 160.451 39.861C160.404 39.8938 160.372 39.9439 160.362 40.0003ZM150.149 28.8128V30.0628C150.149 30.2286 150.215 30.3875 150.333 30.5047C150.45 30.6219 150.609 30.6878 150.774 30.6878C150.939 30.6846 151.096 30.6177 151.213 30.5012C151.329 30.3847 151.396 30.2275 151.399 30.0628V28.8128C151.399 28.647 151.334 28.4881 151.216 28.3708C151.099 28.2536 150.94 28.1878 150.774 28.1878C150.609 28.1878 150.45 28.2536 150.333 28.3708C150.215 28.4881 150.149 28.647 150.149 28.8128ZM162.612 30.0003C162.612 30.1661 162.678 30.325 162.795 30.4422C162.912 30.5594 163.071 30.6253 163.237 30.6253C163.403 30.6253 163.562 30.5594 163.679 30.4422C163.796 30.325 163.862 30.1661 163.862 30.0003V28.4503C163.862 28.2845 163.796 28.1256 163.679 28.0084C163.562 27.8911 163.403 27.8253 163.237 27.8253C163.071 27.8253 162.912 27.8911 162.795 28.0084C162.678 28.1256 162.612 28.2845 162.612 28.4503C162.562 28.9878 162.612 29.6128 162.612 30.0003Z" fill="#1CA380"/>
<path fill-rule="evenodd" clip-rule="evenodd" d="M235.087 120.425C235.005 120.286 234.889 120.17 234.75 120.088C233.675 119.563 227.825 119.825 226.612 119.875C226.825 87.0876 209.55 66.6376 184.475 60.7751C179.875 59.7001 179.862 59.6251 179.737 59.7001L178.887 57.3626C181.287 57.2876 183.25 55.4376 185.45 55.8126C187.112 56.0876 187.95 57.5626 189.587 58.1876C192.362 59.2376 197.3 57.6251 198.812 54.9876C199.587 53.6126 198.9 52.1876 199.387 51.2376C200.262 50.4751 202.75 49.2501 203.462 48.3626C204.925 46.5376 204.987 42.4501 204.325 40.2376C203.129 37.734 201.499 35.4615 199.512 33.5251C197.35 31.442 195.434 29.1186 193.8 26.6001C191.787 22.5876 191.712 17.0376 190.05 12.8501C188.217 9.06918 185.381 5.86489 181.85 3.58762C178.401 1.1517 174.243 -0.0745406 170.025 0.100119C166.087 0.350119 164.55 2.02512 162.712 2.60012C160.875 3.17512 160.487 2.60012 157.5 3.91262C156.313 4.63537 155.257 5.5523 154.375 6.62512C154 7.02512 154.025 7.05012 153.387 7.07512C152.701 7.02348 152.011 7.02348 151.325 7.07512C150.154 7.33487 149.035 7.78683 148.012 8.41262C141.05 12.5876 142.925 20.9876 140.3 27.1626C138.512 31.3626 133.537 35.4001 133.112 39.7876C132.962 41.805 133.396 43.823 134.362 45.6001C137.4 50.9376 141.762 46.7501 144.025 50.0126C144.737 51.0376 145.275 52.0376 146.6 52.2376C148.287 52.4626 150.587 51.1251 151.962 50.1376C152.251 50.4745 152.578 50.7765 152.937 51.0376C154.156 51.8591 155.464 52.5385 156.837 53.0626L153.662 57.5001C147.712 56.8251 138.575 58.7501 132.687 60.5626C132.475 59.0626 130.625 46.6751 129.225 46.0751C127.287 45.2251 106.95 47.5876 105.712 48.9251C104.8 49.9001 106.437 68.4626 108.212 71.2376C108.475 71.6626 109.375 71.6751 109.875 71.6876C106.95 73.6876 104.125 75.7126 103.112 76.4501C102.325 73.7251 98.1871 59.3126 96.6621 56.9501C96.2246 56.2626 95.8246 56.2751 93.8121 56.9501C92.665 51.2267 91.213 45.5686 89.4621 40.0001C90.1186 38.9209 90.6432 37.7668 91.0246 36.5626C91.4905 34.6553 91.5586 32.6724 91.2246 30.7376C92.7496 31.2501 101.862 33.7501 103.337 33.0251C103.733 32.7425 104.027 32.3389 104.175 31.8751C105.787 28.3501 108.55 16.3126 108.762 12.5001C108.85 12.0119 108.766 11.5085 108.525 11.0751C107.062 9.55012 87.3871 3.88762 85.7246 4.63762C84.7121 5.10012 81.9746 14.0876 81.6871 15.1501C79.2996 23.1626 80.5121 21.4001 79.1871 21.8626C77.6621 22.4001 76.3496 25.6126 75.8121 27.1001C75.2746 28.5876 74.7121 30.5876 75.3496 31.7626C75.0908 32.2405 74.9866 32.7869 75.0515 33.3266C75.1165 33.8662 75.3473 34.3723 75.7121 34.7751C75.3146 35.2182 75.0555 35.768 74.9667 36.3566C74.8778 36.9452 74.9631 37.5469 75.2121 38.0876C75.5746 39.2251 77.8371 39.9751 78.9621 40.3001C78.0739 42.6937 77.335 45.1401 76.7496 47.6251C75.7525 51.4813 74.9556 55.3865 74.3621 59.3251C73.9924 61.239 73.8705 63.1926 73.9996 65.1376L71.9496 66.0626C71.8708 66.0988 71.8041 66.1569 71.7575 66.2301C71.7109 66.3033 71.6865 66.3884 71.6871 66.4751C71.6871 66.4751 72.0746 81.6251 77.0621 94.2126C83.0871 109.45 92.9996 114.55 108.087 108.85C108.223 110.046 108.517 111.219 108.962 112.338C109.187 112.738 109.95 112.813 110.462 112.863C114.9 113.008 119.342 112.87 123.762 112.45L127.512 136.2C126.5 139.125 115.012 172.45 115.175 175.55C115.175 175.875 115.3 176.125 115.837 176.375C119.15 177.913 150.537 182.013 151.725 178.588C152.025 177.75 152.75 172.413 152.887 171.4L170.55 169.45L187.387 170.563C187.569 172.248 187.869 173.919 188.287 175.563C188.437 175.938 188.612 176.138 189.05 176.1C190.712 175.938 199.575 174.338 202.025 173.875C211.425 172.1 211.212 171.95 210.937 171.025C210.275 168.838 204.125 151.775 201.725 143.813C205.236 144.187 208.776 144.187 212.287 143.813C212.325 143.948 212.397 144.072 212.495 144.172C212.593 144.273 212.715 144.347 212.85 144.388C215.137 145.225 235.575 144.063 237.25 142.388C238.762 141.05 236.225 122.325 235.087 120.425ZM85.7496 5.17512C85.8871 4.96262 85.8371 4.87512 86.9371 5.03762C91.5246 5.68762 106.525 10.5251 107.825 11.6626C108.075 14.5251 104.362 30.2376 102.9 32.1376C101.837 32.5001 94.7871 30.7001 93.6996 30.4126C85.4246 28.2501 85.7496 27.9126 83.8621 27.4751C82.8871 27.1376 82.7871 27.1251 82.8121 26.9876C82.8153 26.9567 82.8298 26.928 82.8529 26.9072C82.876 26.8864 82.9061 26.875 82.9371 26.8751C84.0621 26.8751 87.0746 26.7876 87.8121 25.9126C87.9749 25.7347 88.0964 25.523 88.1679 25.2927C88.2394 25.0623 88.2591 24.8191 88.2257 24.5802C88.1923 24.3414 88.1065 24.1129 87.9745 23.911C87.8425 23.7092 87.6675 23.539 87.4621 23.4126C85.8556 22.769 84.1765 22.324 82.4621 22.0876C81.9496 21.9876 81.3246 21.8126 80.6996 21.7376C81.5621 17.8376 84.4121 7.25012 85.7496 5.17512ZM75.0121 64.7251V62.7876C75.1246 60.4126 76.2621 54.1751 76.5996 52.4626C77.1496 49.6876 77.2746 49.0626 78.8746 43.0376C78.8746 42.8751 79.8371 40.1876 79.8371 40.1876C79.8544 40.141 79.8615 40.0912 79.858 40.0415C79.8545 39.9919 79.8404 39.9436 79.8168 39.8998C79.7931 39.8561 79.7604 39.8178 79.7208 39.7877C79.6812 39.7576 79.6356 39.7362 79.5871 39.7251C79.4496 39.7251 76.1996 38.9251 75.8371 37.8876C75.4746 36.8501 75.3996 35.6001 76.3121 35.0501C76.3457 35.0258 76.373 34.9938 76.3919 34.9569C76.4107 34.92 76.4205 34.8791 76.4205 34.8376C76.4205 34.7962 76.4107 34.7553 76.3919 34.7183C76.373 34.6814 76.3457 34.6495 76.3121 34.6251C75.9127 34.2972 75.6439 33.837 75.5544 33.3279C75.465 32.8189 75.5609 32.2946 75.8246 31.8501C76.1121 31.2626 74.5746 31.5501 76.3996 27.3376C76.8621 26.3001 78.4246 23.1126 79.4871 22.7626C80.4279 22.6708 81.3775 22.7773 82.2746 23.0751C83.8414 23.3219 85.3815 23.7153 86.8746 24.2501C86.9696 24.3011 87.0515 24.3734 87.114 24.4613C87.1764 24.5492 87.2177 24.6503 87.2346 24.7568C87.2516 24.8632 87.2437 24.9722 87.2116 25.0751C87.1795 25.178 87.1241 25.2721 87.0496 25.3501C86.5005 25.6613 85.8988 25.869 85.2746 25.9626C81.3371 26.7376 82.0371 25.8751 81.5246 27.2126C80.0204 27.1244 78.5168 27.3943 77.1371 28.0001C76.5996 28.1126 76.8246 28.4626 77.2121 28.4001C78.8869 27.8513 80.678 27.7606 82.3996 28.1376C83.3985 28.3202 84.3749 28.6093 85.3121 29.0001C86.1621 29.3454 86.9166 29.8898 87.5121 30.5876C87.6185 30.8521 87.6582 31.1386 87.6276 31.422C87.5971 31.7054 87.4974 31.9769 87.3371 32.2126C87.0371 32.6751 85.5871 32.3626 85.0371 32.2126C84.2871 31.9876 83.4996 31.8001 82.7621 31.5626C81.7246 31.2376 81.8371 31.1501 81.5121 31.1751C80.3657 31.3375 79.2443 31.6441 78.1746 32.0876C78.1444 32.0911 78.1153 32.1014 78.0897 32.1178C78.064 32.1342 78.0424 32.1563 78.0266 32.1823C78.0107 32.2083 78.001 32.2376 77.9982 32.2679C77.9954 32.2982 77.9996 32.3288 78.0104 32.3573C78.0212 32.3857 78.0383 32.4114 78.0606 32.4322C78.0828 32.453 78.1094 32.4685 78.1386 32.4775C78.1677 32.4864 78.1984 32.4886 78.2285 32.4839C78.2586 32.4791 78.2872 32.4676 78.3121 32.4501C79.2695 32.1802 80.248 31.992 81.2371 31.8876C81.7996 31.8876 81.4371 31.8876 82.8496 32.4501C83.4871 32.6876 84.0996 32.8751 84.7746 33.1001C85.2089 33.2489 85.657 33.3536 86.1121 33.4126C86.9121 34.1626 87.4871 35.9126 86.4121 36.2251C85.9898 36.298 85.5553 36.2458 85.1621 36.0751C82.2996 35.1376 84.2371 34.4626 78.0246 35.7376C77.9738 35.7439 77.9273 35.7694 77.8948 35.809C77.8622 35.8485 77.8461 35.899 77.8496 35.9501C77.8496 36.2751 78.0621 36.0751 81.4996 35.9501C81.9153 35.9083 82.334 35.9083 82.7496 35.9501C83.8246 36.5001 85.4246 37.4376 86.6621 37.0751C88.1746 36.5876 88.1246 34.9126 87.1496 33.6876C86.7996 33.2626 86.7621 33.3876 87.0621 33.3376C87.2815 33.3138 87.4936 33.2449 87.685 33.1352C87.8765 33.0255 88.0432 32.8774 88.1746 32.7001C88.4706 32.2918 88.6362 31.8034 88.6496 31.2992C88.663 30.7951 88.5236 30.2986 88.2496 29.8751L90.3496 30.5001C90.7654 32.4362 90.7312 34.4419 90.2496 36.3626C90.1156 36.8315 89.9399 37.2875 89.7246 37.7251C88.8121 39.6501 88.4746 39.7126 88.5871 40.0751C90.3241 45.7231 91.7554 51.4606 92.8746 57.2626C88.1621 58.9126 79.5246 62.7126 75.0121 64.7251ZM173.925 151.588C179.275 151.813 190.775 152.225 196.05 152.063C195.687 153.638 195.462 154.638 195.4 154.863C192.887 154.863 176.65 152.05 173.925 151.588ZM198.075 150.95C194.725 151.738 151.237 150.038 147.512 148.45C147.9 145.65 151.55 129.913 152.287 126.7C155.568 127.704 158.981 128.21 162.412 128.2C163.662 128.85 165.725 129.975 166.962 130.563C166.825 131.625 166.487 134.138 167.237 134.888C167.987 135.638 185.25 141.975 200.387 143.75C199.777 146.199 199.004 148.604 198.075 150.95ZM151.887 120.863C151.312 120.688 150.779 120.394 150.325 120C150 119.65 150.112 118.588 150.325 118.088C150.441 117.845 150.647 117.656 150.9 117.563C151.205 117.43 151.53 117.35 151.862 117.325C151.961 117.323 152.058 117.29 152.138 117.232C152.218 117.173 152.279 117.092 152.311 116.998C152.344 116.904 152.347 116.803 152.32 116.707C152.294 116.611 152.239 116.526 152.162 116.463C151.431 115.847 150.922 115.008 150.712 114.075C150.712 113.388 150.975 112.675 152.075 112.05C153.325 112.15 157.075 115.25 158.812 113.463C160.55 111.675 158.5 107.488 160.437 107.138C162.375 106.788 163.35 112.613 163.687 113.25C164.812 115.438 167.837 117 169.562 118.8C168.52 122.526 167.686 126.307 167.062 130.125C164.562 128.788 162.712 127.625 162.525 127.625C159.912 127.538 152.9 126.813 151.075 124.95C150.75 124.699 150.528 124.339 150.45 123.936C150.372 123.534 150.443 123.117 150.65 122.763C150.783 122.528 150.962 122.322 151.177 122.159C151.392 121.996 151.638 121.878 151.9 121.813C152.007 121.786 152.102 121.725 152.169 121.638C152.237 121.55 152.273 121.443 152.271 121.333C152.27 121.222 152.231 121.116 152.161 121.031C152.092 120.945 151.995 120.886 151.887 120.863ZM165.812 79.2376C163.49 79.0155 161.157 78.9236 158.825 78.9626C158.525 78.9626 158.275 79.1126 158.187 79.4001C157.975 80.2001 154.437 106.2 154.262 107.475C153.512 94.9751 152.737 81.8126 152.162 72.1626C156.512 79.1001 156.887 79.7876 157.575 79.3001C159.893 77.3939 162.085 75.3396 164.137 73.1501C164.512 74.5376 165.112 76.8001 165.812 79.2376ZM177.25 74.8501C176.4 73.6001 175.562 72.3501 175.25 71.8876L179.287 61.7251L177.25 74.8501ZM180.162 60.5001C184.89 61.475 189.5 62.9543 193.912 64.9126C193.725 65.5001 191.312 72.8751 188.425 81.6751C187.1 81.5126 179.512 80.5876 177.175 80.3376L180.162 60.5001ZM175.05 73.2751L177.025 76.2501L176.4 80.2501L174.462 80.0001C174.75 77.2876 174.95 74.7126 175.05 73.2751ZM209.562 86.4626C209.546 88.0901 209.388 89.713 209.087 91.3126C204.8 90.2126 167.4 81.0126 163.6 83.1751C161.7 84.2751 155.45 109.925 154.85 112.238L154.4 112.013C156.375 98.1251 159 79.9126 159 79.8626C163.262 79.3751 204.325 84.0251 209.562 86.4626ZM187.75 112.6C184.95 112.413 173.837 111.863 171.5 113.413C171.137 113.663 170.987 113.713 169.7 118.338C168.037 116.575 165.25 114.913 164.312 112.95C163.887 112.088 163.2 105.788 160.287 106.275C156.362 106.938 161.375 115.025 155.575 112.525C155.95 110.938 162.1 84.4626 163.812 83.4876C167.437 81.4251 206.975 91.4876 211.975 92.9001C211.687 95.9501 208.012 112.225 207.337 115.2C200.864 113.956 194.324 113.088 187.75 112.6ZM168.5 25.1626C169.2 25.6376 169.175 26.7751 169.05 27.6001C168.175 33.1876 162.575 36.5751 158.687 31.2251C157.8 29.9751 157.112 26.0001 157.712 25.1251C158.112 24.6126 161.337 24.5876 161.987 24.5876C163.187 24.6001 167.875 24.7876 168.45 25.1626H168.5ZM153.612 26.0626C153.612 28.4126 152.825 32.3126 150.737 33.4376C147.375 35.1876 143.962 32.4126 143.875 28.8001C143.746 27.4813 143.81 26.1509 144.062 24.8501L144.187 24.7876C143.987 24.4376 152.775 24.3251 153.562 25.1126C153.589 25.4287 153.589 25.7465 153.562 26.0626H153.612ZM157.962 53.2751C160.125 53.9001 163.612 53.6001 165.287 51.8876C165.322 51.8505 165.342 51.8013 165.342 51.7501C165.342 51.699 165.322 51.6498 165.287 51.6126C165 51.2626 165.287 51.9376 162.037 52.4251C158.787 52.9126 156.825 52.4251 153.537 50.2876C152.026 48.8994 150.894 47.1482 150.25 45.2001C148.904 41.9032 148.061 38.4226 147.75 34.8751C148.926 35.0678 150.133 34.8702 151.187 34.3126C152.21 33.7145 153.002 32.79 153.437 31.6876C153.015 33.0086 152.669 34.3524 152.4 35.7126C152.341 35.8868 152.332 36.0738 152.374 36.2527C152.416 36.4315 152.507 36.5952 152.637 36.7251C153.502 37.2534 154.519 37.4737 155.525 37.3501C155.554 37.3577 155.585 37.3584 155.615 37.3522C155.645 37.346 155.673 37.3331 155.697 37.3144C155.721 37.2957 155.74 37.2717 155.754 37.2443C155.767 37.2169 155.774 37.1869 155.774 37.1564C155.774 37.1259 155.767 37.0958 155.754 37.0684C155.74 37.041 155.721 37.0171 155.697 36.9984C155.673 36.9797 155.645 36.9667 155.615 36.9605C155.585 36.9543 155.554 36.9551 155.525 36.9626C154.783 36.8801 154.067 36.6415 153.425 36.2626C153.137 36.0626 153.262 36.1876 153.35 35.7751C153.437 35.3626 155.062 29.4001 155.15 29.0251C155.537 29.0251 157.012 28.8251 157.012 28.4626C157.012 28.1001 155.837 28.0001 155.4 28.0251C155.4 27.8626 155.475 27.7251 155.512 27.6001C155.532 27.5504 155.531 27.4948 155.51 27.4456C155.489 27.3963 155.449 27.3575 155.4 27.3376C155.35 27.3177 155.294 27.3184 155.245 27.3395C155.196 27.3606 155.157 27.4004 155.137 27.4501C154.7 28.3001 155 27.9876 154.412 28.1376C154.638 26.9818 154.638 25.7934 154.412 24.6376C153.7 23.5376 149.412 23.7876 148.012 23.8751C148.725 19.6876 151.5 17.6251 153.2 14.2751C153.676 13.4976 154.311 12.8289 155.062 12.3126C155.437 12.2126 156.175 13.1501 156.625 13.3751C157.075 13.6001 157.5 14.8376 157.875 15.2626C159.054 16.6052 160.412 17.7787 161.912 18.7501C163.162 19.6376 165.112 19.7751 165.962 20.9126C166.321 21.8799 166.495 22.9061 166.475 23.9376C164.862 23.8376 158.137 23.7376 157.337 24.8876C156.612 25.8126 156.925 30.0376 157.987 31.6626C160.662 35.7126 164.775 35.9626 167.987 32.3126C168.333 31.8818 168.626 31.4119 168.862 30.9126C171.262 34.6626 173.15 36.9001 173.237 41.3001C173.337 46.8751 171.762 56.1126 177.8 57.2751L178.837 60.1376C173.837 72.7126 174.1 71.9251 174.1 72.0501C174.1 72.1751 173.862 75.8001 173.425 79.9501C171.025 79.7001 168.787 79.4876 166.8 79.3251C166.65 78.8126 164.787 72.1876 164.825 72.0501C165.012 71.4251 164.075 70.2001 163.35 69.1126C160.631 65.1764 157.662 61.4186 154.462 57.8626L157.962 53.2751ZM153.562 58.2001C153.775 58.5251 162.775 68.4251 163.875 72.0626C161.852 74.3042 159.667 76.3932 157.337 78.3126C156.5 77.2126 154.237 73.5876 152.087 70.2001C151.7 63.6626 151.437 59.1126 151.375 58.1626C152.075 58.1126 152.862 58.1501 153.512 58.2001H153.562ZM108.925 70.7001C107.5 68.2001 105.525 51.9501 105.987 49.4501C105.987 49.2251 105.987 49.1501 107.037 48.8626C111.512 47.7001 127.212 46.3626 128.862 46.9251C130.112 49.3626 132.85 65.2751 132.2 67.7251C130.925 68.7501 112.6 71.3376 108.875 70.7001H108.925ZM109.8 111.825C108.362 109 107.3 90.8876 108.012 90.2001C109.075 89.1751 129.025 88.3001 130.912 89.0376C132.162 91.6626 133.937 107.788 133.2 109.975C131.5 111.25 112.75 112.5 109.75 111.825H109.8ZM138.337 90.8751C139.237 90.6376 145.512 89.0376 146.262 88.5876C146.8 88.2751 147.412 89.2876 136.9 60.4376C138.15 59.2876 149.075 57.8126 150.8 58.3501C150.8 59.0376 152.437 88.2126 153.725 111.625C153.112 111.325 152.225 110.863 151.662 111.175C149.312 112.425 149.162 114.5 150.9 116.525C150.575 116.605 150.274 116.759 150.02 116.976C149.766 117.193 149.566 117.467 149.437 117.775C149.237 118.244 149.152 118.755 149.189 119.263C149.226 119.772 149.384 120.265 149.65 120.7C149.941 120.979 150.274 121.211 150.637 121.388C150.264 121.638 149.969 121.989 149.787 122.4C149.623 122.754 149.526 123.136 149.5 123.525L138.337 90.8751ZM169.45 168.663L153.125 170.475C153.2 169.875 155.037 155.388 155.625 150.475C159.025 150.775 163.125 151.038 167.512 151.275C168.237 160.288 169.512 166.513 169.4 168.663H169.45ZM170.312 168.563C170.487 165.713 168.137 151.425 168.125 151.3L169.375 151.363C173.625 152.15 184.575 154.088 185.762 154.288C186.162 158.313 187.162 167.688 187.4 169.613C168.762 168.413 170.775 168.513 170.25 168.563H170.312ZM236.637 141.813C235.387 142.813 217.025 144.488 213.237 143.663C211.775 140.825 210.737 122.725 211.45 122.038C212.525 121 232.475 120.15 234.337 120.875C235.512 123.488 237.325 139.675 236.587 141.813H236.637Z" fill="#1CA380"/>
<path fill-rule="evenodd" clip-rule="evenodd" d="M109.825 132.625C109.725 132.175 109.587 131.525 109.225 131.375C107.975 130.625 99.7373 130.475 98.2748 130.45C97.9498 124.488 97.3748 117.6 96.4373 115.75C95.8248 114.5 55.4248 114.375 54.0373 114.363C54.1373 107.638 54.1498 97.3878 54.0373 90.6128C55.7998 90.6128 64.5998 90.6128 65.8123 89.6128C67.3623 88.3628 66.3248 71.6753 65.6248 68.3628C65.5248 67.9128 65.3748 67.2628 65.0248 67.1128C63.1998 66.0253 42.7248 65.7628 41.2748 66.9253C40.5123 67.5628 40.2248 75.3753 40.1873 76.3628C37.3248 76.3628 19.6248 76.0003 13.2998 76.1503V65.9378C14.9373 65.9378 24.5498 66.2003 25.7998 65.1503C27.3123 63.9003 26.8123 43.4753 25.3748 42.6503C23.9373 41.8253 14.9623 41.5628 13.4123 41.5253C13.4123 39.7503 13.2748 35.2753 13.2623 35.1628C19.0498 34.9503 34.2998 35.4378 40.5873 35.4378C40.5873 37.4003 40.4748 44.3878 41.2998 46.1753C41.4998 46.6003 42.2623 46.7253 42.7623 46.8128C46.7373 47.5128 64.4623 47.9253 66.1998 46.4503C67.9373 44.9753 66.7248 26.2878 65.7123 24.2753C65.6452 24.1306 65.5419 24.0058 65.4123 23.9128C63.5248 22.8003 43.0748 22.6628 41.6623 23.7253C40.8498 24.4128 40.5748 33.3628 40.5498 34.4378C34.1623 34.4378 19.1373 33.9503 13.1873 34.1628C13.1873 31.7503 13.0623 29.3128 13.0623 26.9128C14.8373 26.9128 25.5623 26.7503 26.8998 25.5753C28.2373 24.4003 26.8998 5.46281 25.8248 3.41281C25.758 3.26753 25.6491 3.14562 25.5123 3.06281C23.6123 2.00031 3.16232 2.32531 1.76232 3.50031C0.699816 4.42531 0.512316 23.1128 1.93732 26.0003C2.03549 26.1615 2.18525 26.2849 2.36232 26.3503C3.78732 26.9503 10.4373 26.9628 11.9998 26.9628C11.9998 32.5503 12.2498 37.0878 12.2998 41.5503C11.0498 41.5503 2.52482 41.3628 1.57482 42.1253C0.624816 42.8878 -0.525184 61.5628 0.799816 64.6253C0.987316 65.0378 1.74982 65.1878 2.24982 65.2753C5.56262 65.7537 8.90296 66.0168 12.2498 66.0628V84.5128C11.0623 84.5128 2.92482 84.3628 2.01232 85.1003C1.09982 85.8378 -0.100184 104.538 1.22482 107.6C1.41232 108.025 2.17482 108.163 2.67482 108.263C6.72482 109.038 24.3748 109.713 26.1123 108.263C27.8498 106.813 26.9498 88.0753 25.9998 86.0878C25.9322 85.94 25.8292 85.8112 25.6998 85.7128C24.3373 84.8878 14.8623 84.6128 13.1998 84.5753V77.3503C19.6748 77.1878 36.6498 77.5503 40.0748 77.5628C40.0748 79.6753 39.8748 87.6378 40.7748 89.5753C40.8565 89.7431 40.9998 89.873 41.1748 89.9378C42.7873 90.6753 51.1748 90.8253 52.8873 90.8378C53.0498 97.6378 53.0373 107.913 52.8873 114.588C36.0873 114.5 18.6623 114.675 15.1498 115.388C14.7748 115.463 14.1623 115.588 14.1373 116.113C14.1373 116.113 13.4623 126.913 13.1498 130.625C12.0373 130.625 4.72482 130.625 3.87482 131.375C3.02482 132.125 2.08732 150.85 3.46232 153.875C3.64982 154.288 4.41232 154.425 4.91232 154.513C8.89982 155.213 26.6123 155.625 28.3498 154.15C30.0873 152.675 28.8623 133.95 27.8623 131.975C27.9125 131.856 27.9285 131.725 27.9087 131.597C27.8888 131.469 27.8338 131.349 27.7498 131.25C26.3123 130.388 16.0498 130.313 14.3498 130.3C14.6498 126.55 15.2998 116.113 15.2998 116.113C19.5748 114.863 90.6873 115.013 95.6623 116.275C96.4248 118.1 96.9123 124.363 97.3123 130.35C96.0623 130.35 86.5623 130.275 85.5748 131.1C84.5873 131.925 83.8373 150.688 85.1623 153.6C85.25 153.768 85.3971 153.897 85.5748 153.963C87.7873 154.963 108.25 155.413 110.05 153.875C110.359 153.501 110.539 153.036 110.562 152.55C111.15 148.75 110.637 136.375 109.825 132.625ZM41.9248 23.8753C43.0373 22.9503 62.9873 23.6128 64.8373 24.5128C65.3016 26.4857 65.5695 28.4997 65.6373 30.5253C57.6248 29.7128 46.7998 30.3378 41.2748 30.5253C41.2998 29.7753 41.4998 24.1753 41.9248 23.8378V23.8753ZM41.2623 31.2128C50.3623 31.5003 61.1623 31.0253 65.6748 31.0753C65.8123 33.2878 66.2998 43.6503 65.4873 45.5628C64.5623 46.2003 57.2748 46.3128 56.1623 46.3253C53.4748 46.3253 44.6123 46.3253 42.0123 45.5753C41.1123 43.3878 41.1998 33.6753 41.2623 31.1753V31.2128ZM2.08732 3.60031C3.19982 2.62531 23.1873 2.81281 25.0123 3.60031C25.4225 4.99357 25.6823 6.42673 25.7873 7.87531C17.7126 7.63722 9.63187 8.05526 1.62482 9.12531C1.63732 8.67531 1.72482 3.92531 2.08732 3.60031ZM2.74982 25.2878C1.73732 23.0253 1.59982 12.5003 1.62482 9.55031C2.67482 9.42531 25.3748 8.30031 25.8373 8.30031C26.1123 10.8003 27.0873 22.4628 26.2123 24.6503C24.5373 25.8628 5.72482 26.1003 2.74982 25.2878ZM1.88732 42.2003C3.02482 41.2878 22.9623 42.2753 24.7998 43.2003C25.2087 45.0655 25.4347 46.9662 25.4748 48.8753C25.5998 48.8753 7.79982 48.1753 1.16232 48.3878C1.19982 47.6503 1.49982 42.5003 1.88732 42.2003ZM25.4498 107.2C24.0748 108.1 5.63732 107.988 1.98732 106.825C1.08732 104.588 1.36232 94.3253 1.48732 91.7128C1.61232 91.7128 18.6998 93.0378 25.8498 92.2003C25.9748 94.4878 26.3123 105.25 25.4498 107.188V107.2ZM25.1498 86.1253C25.5568 87.9954 25.787 89.8996 25.8373 91.8128C25.9623 91.8128 8.19982 91.1128 1.51232 91.3128C1.56803 89.3034 1.78118 87.3014 2.14982 85.3253C2.23732 85.0753 2.14982 85.0253 3.27482 84.9003C7.74982 84.4003 23.5498 85.3128 25.1498 86.1128V86.1253ZM1.62482 63.8878C0.737316 61.6503 1.01232 51.4628 1.13732 48.7878C1.28732 48.7878 18.3248 50.1128 25.4998 49.2753C25.6248 51.5753 25.9748 62.2753 25.0998 64.2753C23.4123 65.3753 4.63732 64.8503 1.62482 63.8878ZM28.0248 138.45C28.1748 140.775 28.6498 151.113 27.8373 153.075C26.5123 154 7.99982 154.188 4.36232 153.075C3.46232 150.9 3.54982 141.113 3.61232 138.5C11.6748 138.813 18.9998 138.45 28.0248 138.45ZM27.1873 132.025C27.6497 133.995 27.9218 136.004 27.9998 138.025C20.0498 137.225 8.84982 137.863 3.62482 138.1C3.62482 137.313 3.86232 131.725 4.27482 131.388C5.39982 130.463 25.3373 131.125 27.1873 132.025ZM41.4998 67.0878C42.6498 66.1253 62.5998 66.8503 64.4123 67.7253C64.8877 69.7772 65.164 71.8703 65.2373 73.9753C59.8123 73.6878 46.3123 72.8253 40.8623 73.5003C40.9248 72.7878 41.1373 67.4253 41.4998 67.0878ZM41.6248 88.7503C40.7123 86.5628 40.8123 76.5628 40.8873 73.9503C42.6498 73.7753 55.3998 74.5753 61.3248 74.5253C62.8373 74.5253 64.1998 74.4628 65.2998 74.4253C65.4373 76.6503 65.8998 86.8128 65.0998 88.7378C63.4623 89.9003 44.6623 89.7128 41.6248 88.7503ZM85.7873 131.388C86.9123 130.463 106.85 131.125 108.712 132.025C109.17 133.999 109.438 136.013 109.512 138.038C101.637 137.238 90.2373 137.875 85.1498 138.038C85.1623 137.375 85.3748 131.763 85.7873 131.425V131.388ZM109.362 153.075C108 154 89.4873 154.188 85.8873 153.075C84.9748 150.913 85.0623 141.088 85.1373 138.488C93.5498 138.813 99.8623 138.488 109.537 138.488C109.687 140.788 110.162 151.163 109.362 153.113V153.075Z" fill="#1CA380"/>
</svg>
