<svg width="72" height="15" viewBox="0 0 72 15" fill="none" xmlns="http://www.w3.org/2000/svg">
<mask id="mask0_313_2174" style="mask-type:luminance" maskUnits="userSpaceOnUse" x="0" y="1" width="20" height="14">
<path fill-rule="evenodd" clip-rule="evenodd" d="M0.0606689 1.22852L9.56985 14.155L19.079 1.22852H0.0606689Z" fill="white"/>
</mask>
<g mask="url(#mask0_313_2174)">
<path fill-rule="evenodd" clip-rule="evenodd" d="M9.56895 1.22852C1.72387 1.22852 -4.69482 7.04545 -4.69482 14.155C-4.69482 21.2646 1.72387 27.0816 9.56895 27.0816C17.414 27.0816 23.8327 21.2646 23.8327 14.155C23.8327 7.04545 17.414 1.22852 9.56895 1.22852ZM9.56958 23.85C3.62635 23.85 -1.12825 19.5411 -1.12825 14.1551C-1.12825 8.76901 3.62635 4.46016 9.56958 4.46016C15.5128 4.46016 20.2674 8.76901 20.2674 14.1551C20.2674 19.5411 15.5128 23.85 9.56958 23.85Z" fill="#3F3D56" fill-opacity="0.24"/>
<path fill-rule="evenodd" clip-rule="evenodd" d="M9.56892 4.45996C3.62568 4.45996 -1.12891 8.7688 -1.12891 14.1549C-1.12891 19.5409 3.62568 23.8498 9.56892 23.8498C15.5122 23.8498 20.2668 19.5409 20.2668 14.1549C20.2668 8.7688 15.5122 4.45996 9.56892 4.45996ZM9.56975 20.6182C5.64721 20.6182 2.43786 17.7097 2.43786 14.1549C2.43786 10.6001 5.64721 7.69164 9.56975 7.69164C13.4923 7.69164 16.7016 10.6001 16.7016 14.1549C16.7016 17.7097 13.4923 20.6182 9.56975 20.6182Z" fill="#00513D"/>
<path fill-rule="evenodd" clip-rule="evenodd" d="M9.56755 7.69189C5.64502 7.69189 2.43567 10.6004 2.43567 14.1552C2.43567 17.71 5.64502 20.6184 9.56755 20.6184C13.4901 20.6184 16.6994 17.71 16.6994 14.1552C16.6994 10.6004 13.4901 7.69189 9.56755 7.69189ZM9.56782 17.3868C7.54712 17.3868 6.00188 15.9864 6.00188 14.1552C6.00188 12.3239 7.54712 10.9235 9.56782 10.9235C11.5885 10.9235 13.1338 12.3239 13.1338 14.1552C13.1338 15.9864 11.5885 17.3868 9.56782 17.3868Z" fill="#00513D"/>
<path fill-rule="evenodd" clip-rule="evenodd" d="M9.57021 17.3866C11.5396 17.3866 13.1362 15.9398 13.1362 14.155C13.1362 12.3702 11.5396 10.9233 9.57021 10.9233C7.6008 10.9233 6.00427 12.3702 6.00427 14.155C6.00427 15.9398 7.6008 17.3866 9.57021 17.3866Z" fill="#00513D"/>
</g>
<mask id="mask1_313_2174" style="mask-type:luminance" maskUnits="userSpaceOnUse" x="30" y="1" width="16" height="14">
<path fill-rule="evenodd" clip-rule="evenodd" d="M45.2289 14.155V1.22852L30.9651 14.155H45.2289Z" fill="white"/>
</mask>
<g mask="url(#mask1_313_2174)">
<path fill-rule="evenodd" clip-rule="evenodd" d="M41.6627 1.22852V14.155H45.2287V1.22852H41.6627Z" fill="#3F3D56" fill-opacity="0.24"/>
<path fill-rule="evenodd" clip-rule="evenodd" d="M38.0981 1.22852V14.155H41.6641V1.22852H38.0981Z" fill="#3F3D56" fill-opacity="0.24"/>
<path fill-rule="evenodd" clip-rule="evenodd" d="M34.5315 1.22852V14.155H38.0974V1.22852H34.5315Z" fill="#00513D"/>
<path fill-rule="evenodd" clip-rule="evenodd" d="M30.9651 1.22852V14.155H34.531V1.22852H30.9651Z" fill="#00513D"/>
</g>
<mask id="mask2_313_2174" style="mask-type:luminance" maskUnits="userSpaceOnUse" x="61" y="0" width="11" height="15">
<path fill-rule="evenodd" clip-rule="evenodd" d="M70.191 1.22858H69.0024V0.151367H64.2478V1.22858H63.0591C62.3459 1.22858 61.8705 1.65946 61.8705 2.30579V13.0779C61.8705 13.7242 62.3459 14.1551 63.0591 14.1551H70.191C70.9042 14.1551 71.3797 13.7242 71.3797 13.0779V2.30579C71.3797 1.65946 70.9042 1.22858 70.191 1.22858Z" fill="white"/>
</mask>
<g mask="url(#mask2_313_2174)">
<path fill-rule="evenodd" clip-rule="evenodd" d="M61.871 10.9233V14.155H71.3802V10.9233H61.871Z" fill="#00513D"/>
<path fill-rule="evenodd" clip-rule="evenodd" d="M61.871 7.69189V10.9235H71.3802V7.69189H61.871Z" fill="#00513D"/>
<path fill-rule="evenodd" clip-rule="evenodd" d="M61.871 4.45996V7.69159H71.3802V4.45996H61.871Z" fill="#3F3D56" fill-opacity="0.24"/>
<path fill-rule="evenodd" clip-rule="evenodd" d="M61.871 1.22852V4.46015H71.3802V1.22852H61.871Z" fill="#3F3D56" fill-opacity="0.24"/>
<path fill-rule="evenodd" clip-rule="evenodd" d="M64.25 0.151367V1.22858H69.0046V0.151367H64.25Z" fill="#3F3D56" fill-opacity="0.24"/>
</g>
</svg>
