<svg width="50" height="17" viewBox="0 0 50 17" fill="none" xmlns="http://www.w3.org/2000/svg">
<g clip-path="url(#clip0_145_1378)">
<path d="M25.8588 5.16162C25.8303 7.41084 27.8633 8.66592 29.3947 9.41221C30.9682 10.1778 31.4967 10.6688 31.4904 11.3536C31.4787 12.4015 30.2354 12.864 29.0719 12.8819C27.042 12.9134 25.8617 12.3339 24.9234 11.8956L24.1922 15.3173C25.1336 15.7511 26.8768 16.1294 28.6844 16.146C32.9275 16.146 35.7035 14.0515 35.7186 10.804C35.7352 6.68252 30.0178 6.45439 30.0568 4.61221C30.0703 4.05361 30.6033 3.45752 31.7713 3.30596C32.3494 3.22939 33.9453 3.1708 35.7547 4.004L36.4648 0.693458C35.4918 0.339161 34.2412 -9.72748e-05 32.6842 -9.72748e-05C28.6904 -9.72748e-05 25.8814 2.12295 25.8588 5.16162ZM43.2887 0.285059C42.5139 0.285059 41.8609 0.737011 41.5695 1.43057L35.5084 15.9028H39.7484L40.5922 13.571H45.7734L46.2629 15.9028H50L46.7389 0.285059H43.2887ZM43.8818 4.504L45.1055 10.3687H41.7543L43.8818 4.504ZM20.718 0.285254L17.3758 15.9026H21.4162L24.7568 0.284863H20.718V0.285254ZM14.7408 0.284863L10.5354 10.9151L8.83418 1.87666C8.63457 0.867676 7.84629 0.285059 6.9709 0.285059H0.0962891L0 0.738574C1.41133 1.04482 3.01484 1.53877 3.98633 2.06729C4.58086 2.39014 4.75039 2.67236 4.9457 3.43955L8.16777 15.9028H12.4375L18.9836 0.285059H14.7408" fill="#404944"/>
</g>
<defs>
<clipPath id="clip0_145_1378">
<rect width="50" height="16.2109" fill="white"/>
</clipPath>
</defs>
</svg>
