<svg width="32" height="32" viewBox="0 0 32 32" fill="none" xmlns="http://www.w3.org/2000/svg">
<g clip-path="url(#clip0_2_2427)">
<path d="M16 0C12.8355 0 9.74207 0.938384 7.11088 2.69649C4.4797 4.45459 2.42894 6.95345 1.21793 9.87706C0.00693253 12.8007 -0.309921 16.0177 0.307443 19.1214C0.924806 22.2251 2.44866 25.0761 4.6863 27.3137C6.92394 29.5513 9.77487 31.0752 12.8786 31.6926C15.9823 32.3099 19.1993 31.9931 22.1229 30.7821C25.0466 29.5711 27.5454 27.5203 29.3035 24.8891C31.0616 22.2579 32 19.1645 32 16C32 11.7565 30.3143 7.68687 27.3137 4.68629C24.3131 1.68571 20.2435 0 16 0ZM16 29.7143C13.2876 29.7143 10.6361 28.91 8.38076 27.403C6.12545 25.8961 4.36766 23.7542 3.32966 21.2482C2.29166 18.7423 2.02007 15.9848 2.54924 13.3245C3.07841 10.6642 4.38456 8.22051 6.30254 6.30253C8.22052 4.38456 10.6642 3.0784 13.3245 2.54923C15.9848 2.02006 18.7423 2.29165 21.2482 3.32965C23.7542 4.36765 25.8961 6.12545 27.403 8.38075C28.91 10.6361 29.7143 13.2876 29.7143 16C29.7143 19.6373 28.2694 23.1255 25.6975 25.6975C23.1255 28.2694 19.6373 29.7143 16 29.7143Z" fill="#BFC9C3"/>
<path d="M16 26.2857C16.9468 26.2857 17.7143 25.5182 17.7143 24.5715C17.7143 23.6247 16.9468 22.8572 16 22.8572C15.0532 22.8572 14.2857 23.6247 14.2857 24.5715C14.2857 25.5182 15.0532 26.2857 16 26.2857Z" fill="#BFC9C3"/>
<path d="M17.1429 6.85719H15.4286C14.7528 6.85568 14.0833 6.98768 13.4587 7.2456C12.8341 7.50352 12.2665 7.88228 11.7887 8.36014C11.3108 8.838 10.932 9.40554 10.6741 10.0302C10.4162 10.6548 10.2842 11.3243 10.2857 12V12.5715H12.5714V12C12.5714 11.2423 12.8725 10.5156 13.4083 9.97974C13.9441 9.44392 14.6708 9.1429 15.4286 9.1429H17.1429C17.9006 9.1429 18.6273 9.44392 19.1632 9.97974C19.699 10.5156 20 11.2423 20 12C20 12.7578 19.699 13.4845 19.1632 14.0204C18.6273 14.5562 17.9006 14.8572 17.1429 14.8572H14.8571V20H17.1429V17.1429C18.5068 17.1429 19.8149 16.6011 20.7794 15.6366C21.7439 14.6721 22.2857 13.364 22.2857 12C22.2857 10.6361 21.7439 9.32797 20.7794 8.3635C19.8149 7.39903 18.5068 6.85719 17.1429 6.85719Z" fill="#BFC9C3"/>
</g>
<defs>
<clipPath id="clip0_2_2427">
<rect width="32" height="32" fill="white"/>
</clipPath>
</defs>
</svg>
