<svg width="32" height="24" viewBox="0 0 32 24" fill="none" xmlns="http://www.w3.org/2000/svg">
<g clip-path="url(#clip0_2_2424)">
<path d="M23.8331 0.577995C20.7589 0.662566 18.376 1.49685 16.056 2.30371C13.5749 3.16542 11.2331 3.97799 7.98857 4.01114C5.82057 4.04542 3.64914 3.67057 1.51543 2.93228L0 2.40885V21.9311L0.761143 22.202C2.74857 22.9049 4.78057 23.3106 6.80343 23.4066C7.12457 23.4214 7.43886 23.4294 7.74743 23.4294C11.1909 23.4294 13.8274 22.5151 16.384 21.6329C19.0789 20.7003 21.6206 19.8191 25.0891 19.9826C26.9276 20.077 28.7424 20.4405 30.4754 21.0614L32 21.6009V2.07057L31.248 1.79628C29.3033 1.08805 27.2619 0.681072 25.1943 0.589423C24.7409 0.569294 24.2868 0.565481 23.8331 0.577995ZM23.8949 2.84771C24.2834 2.83628 24.6811 2.83628 25.0937 2.85228C25.5211 2.87057 25.9486 2.90942 26.3749 2.95971C26.5487 3.67679 26.9938 4.29856 27.6166 4.69433C28.2393 5.0901 28.9912 5.22905 29.7143 5.082V15.4843C29.3399 15.4081 28.954 15.4079 28.5796 15.4837C28.2051 15.5596 27.8497 15.7099 27.5345 15.9258C27.2193 16.1417 26.9506 16.4187 26.7446 16.7404C26.5385 17.0621 26.3992 17.422 26.3349 17.7986C25.9563 17.7596 25.5767 17.7314 25.1966 17.714C21.2937 17.5426 18.416 18.5243 15.6343 19.4889C12.936 20.4237 10.3794 21.3071 6.91314 21.1426C6.48143 21.12 6.05068 21.0819 5.62171 21.0283C5.44635 20.3132 5.00117 19.6936 4.37936 19.2993C3.75755 18.905 3.00732 18.7665 2.28571 18.9129V8.51057C2.66234 8.58721 3.05058 8.58687 3.42707 8.50955C3.80355 8.43223 4.16051 8.27953 4.47644 8.06065C4.79237 7.84177 5.06075 7.56124 5.26543 7.23593C5.47011 6.91061 5.60685 6.54725 5.66743 6.16771C6.45029 6.24885 7.23314 6.29571 8.01371 6.28314C11.6309 6.24657 14.2606 5.33114 16.8057 4.44657C19.0469 3.66599 21.1829 2.93228 23.8949 2.84771ZM16 7.42599C16 9.07057 15.3589 9.71171 13.7143 9.71171V11.9974C14.6011 11.9974 15.3566 11.8249 16 11.5266V16.5689H18.2857V7.42599H16ZM24.5714 8.56885C24.1168 8.56885 23.6807 8.74946 23.3592 9.07095C23.0378 9.39245 22.8571 9.82848 22.8571 10.2831C22.8571 10.7378 23.0378 11.1738 23.3592 11.4953C23.6807 11.8168 24.1168 11.9974 24.5714 11.9974C25.0261 11.9974 25.4621 11.8168 25.7836 11.4953C26.1051 11.1738 26.2857 10.7378 26.2857 10.2831C26.2857 9.82848 26.1051 9.39245 25.7836 9.07095C25.4621 8.74946 25.0261 8.56885 24.5714 8.56885ZM7.42857 11.9974C6.97391 11.9974 6.53788 12.178 6.21639 12.4995C5.8949 12.821 5.71429 13.2571 5.71429 13.7117C5.71429 14.1664 5.8949 14.6024 6.21639 14.9239C6.53788 15.2454 6.97391 15.426 7.42857 15.426C7.88323 15.426 8.31926 15.2454 8.64075 14.9239C8.96224 14.6024 9.14286 14.1664 9.14286 13.7117C9.14286 13.2571 8.96224 12.821 8.64075 12.4995C8.31926 12.178 7.88323 11.9974 7.42857 11.9974Z" fill="#BFC9C3"/>
</g>
<defs>
<clipPath id="clip0_2_2424">
<rect width="32" height="22.8586" fill="white" transform="translate(0 0.570801)"/>
</clipPath>
</defs>
</svg>
