<svg width="32" height="28" viewBox="0 0 32 28" fill="none" xmlns="http://www.w3.org/2000/svg">
<g clip-path="url(#clip0_2_2421)">
<path d="M6.85713 18.2857V25.1429H29.7143V9.14289H25.1428V6.85718H30.5348C31.0446 6.85718 31.2297 6.90975 31.4148 7.01032C31.5998 7.10734 31.7511 7.2579 31.8491 7.44232C31.9474 7.62746 32 7.81261 32 8.32232V25.9635C32 26.4732 31.9474 26.6583 31.8468 26.8435C31.7498 27.0284 31.5993 27.1798 31.4148 27.2777C31.2297 27.376 31.0446 27.4286 30.5348 27.4286H6.03655C5.52684 27.4286 5.3417 27.376 5.15655 27.2755C4.97162 27.1784 4.82026 27.0279 4.72227 26.8435C4.62627 26.6583 4.57141 26.4732 4.57141 25.9657V18.2857H6.85713Z" fill="#BFC9C3"/>
<path d="M25.1429 2.28571H2.28571V18.2857H25.1429V2.28571ZM27.4286 1.46514V19.1063C27.4286 19.616 27.376 19.8011 27.2754 19.9863C27.1784 20.1712 27.0278 20.3226 26.8434 20.4206C26.6583 20.5189 26.4731 20.5714 25.9634 20.5714H1.46514C0.955429 20.5714 0.770286 20.5189 0.585143 20.4183C0.400209 20.3213 0.248852 20.1707 0.150857 19.9863C0.0548571 19.8011 0 19.616 0 19.1086V1.46514C0 0.955429 0.0525715 0.770286 0.153143 0.585143C0.250163 0.400209 0.400724 0.248852 0.585143 0.150857C0.770286 0.0548571 0.955429 0 1.46286 0H25.9611C26.4709 0 26.656 0.0525712 26.8411 0.153143C27.0261 0.250163 27.1774 0.400724 27.2754 0.585143C27.3737 0.770286 27.4263 0.955429 27.4263 1.46514H27.4286Z" fill="#BFC9C3"/>
<path d="M13.7143 16.0001C12.1988 16.0001 10.7453 15.3981 9.67368 14.3264C8.60204 13.2548 8 11.8013 8 10.2858C8 8.7703 8.60204 7.31684 9.67368 6.24521C10.7453 5.17357 12.1988 4.57153 13.7143 4.57153C15.2298 4.57153 16.6833 5.17357 17.7549 6.24521C18.8265 7.31684 19.4286 8.7703 19.4286 10.2858C19.4286 11.8013 18.8265 13.2548 17.7549 14.3264C16.6833 15.3981 15.2298 16.0001 13.7143 16.0001ZM13.7143 13.7144C14.6236 13.7144 15.4957 13.3532 16.1387 12.7102C16.7816 12.0672 17.1429 11.1951 17.1429 10.2858C17.1429 9.3765 16.7816 8.50443 16.1387 7.86145C15.4957 7.21847 14.6236 6.85725 13.7143 6.85725C12.805 6.85725 11.9329 7.21847 11.2899 7.86145C10.6469 8.50443 10.2857 9.3765 10.2857 10.2858C10.2857 11.1951 10.6469 12.0672 11.2899 12.7102C11.9329 13.3532 12.805 13.7144 13.7143 13.7144Z" fill="#BFC9C3"/>
</g>
<defs>
<clipPath id="clip0_2_2421">
<rect width="32" height="27.4286" fill="white"/>
</clipPath>
</defs>
</svg>
