<svg width="32" height="33" viewBox="0 0 32 33" fill="none" xmlns="http://www.w3.org/2000/svg">
<g clip-path="url(#clip0_41_1954)">
<path d="M28.9423 17.3278V15.5268L31.2024 13.5492C31.619 13.182 31.8924 12.6793 31.9743 12.1301C32.0561 11.5808 31.9412 11.0203 31.6497 10.5475L28.8717 5.839C28.6653 5.48147 28.3685 5.1845 28.011 4.97789C27.6536 4.77128 27.2481 4.6623 26.8353 4.66187C26.5794 4.65991 26.325 4.69967 26.0819 4.77959L23.2215 5.74483C22.7276 5.41666 22.2125 5.12172 21.6794 4.86199L21.0791 1.89561C20.9714 1.35367 20.6766 0.866849 20.2462 0.520374C19.8158 0.173899 19.2773 -0.0101542 18.7248 0.000432514H13.2159C12.6634 -0.0101542 12.1249 0.173899 11.6945 0.520374C11.2641 0.866849 10.9692 1.35367 10.8616 1.89561L10.2613 4.86199C9.7244 5.12166 9.20533 5.41659 8.70744 5.74483L5.90586 4.7325C5.66019 4.66849 5.40579 4.64464 5.1525 4.66187C4.73965 4.6623 4.33417 4.77128 3.97674 4.97789C3.6193 5.1845 3.32249 5.48147 3.11606 5.839L0.338033 10.5475C0.0632751 11.0195 -0.0388238 11.5724 0.0492228 12.1114C0.137269 12.6504 0.409983 13.1421 0.820657 13.5021L3.04543 15.5386V17.3396L0.820657 19.3172C0.398383 19.6797 0.11821 20.1801 0.0298582 20.7297C-0.0584935 21.2792 0.0506902 21.8422 0.338033 22.3188L3.11606 27.0274C3.32249 27.3849 3.6193 27.6819 3.97674 27.8885C4.33417 28.0951 4.73965 28.2041 5.1525 28.2045C5.40835 28.2065 5.66281 28.1667 5.90586 28.0868L8.76629 27.1215C9.26015 27.4497 9.7753 27.7446 10.3083 28.0044L10.9087 30.9708C11.0163 31.5127 11.3111 31.9995 11.7415 32.346C12.172 32.6925 12.7105 32.8765 13.2629 32.8659H18.819C19.3714 32.8765 19.91 32.6925 20.3404 32.346C20.7708 31.9995 21.0656 31.5127 21.1733 30.9708L21.7736 28.0044C22.3104 27.7447 22.8295 27.4498 23.3274 27.1215L26.1761 28.0868C26.4191 28.1667 26.6736 28.2065 26.9294 28.2045C27.3423 28.2041 27.7478 28.0951 28.1052 27.8885C28.4626 27.6819 28.7594 27.3849 28.9659 27.0274L31.6497 22.3188C31.9245 21.8468 32.0266 21.294 31.9385 20.7549C31.8505 20.2159 31.5778 19.7243 31.1671 19.3642L28.9423 17.3278ZM26.8353 25.8502L22.7977 24.4848C21.8525 25.2853 20.7723 25.9111 19.6077 26.3329L18.7719 30.5588H13.2159L12.3801 26.3799C11.2246 25.9463 10.1503 25.3215 9.20183 24.5318L5.1525 25.8502L2.37447 21.1417L5.57627 18.3166C5.35861 17.0981 5.35861 15.8507 5.57627 14.6322L2.37447 11.7247L5.1525 7.01614L9.19006 8.38161C10.1352 7.58103 11.2154 6.95522 12.3801 6.53351L13.2159 2.30761H18.7719L19.6077 6.48643C20.7631 6.92011 21.8375 7.54484 22.7859 8.33452L26.8353 7.01614L29.6133 11.7247L26.4115 14.5498C26.6291 15.7683 26.6291 17.0157 26.4115 18.2342L29.6133 21.1417L26.8353 25.8502Z" fill="#BFC9C3"/>
<path d="M15.9939 23.4959C14.597 23.4959 13.2315 23.0817 12.07 22.3056C10.9085 21.5296 10.0033 20.4265 9.46872 19.136C8.93415 17.8454 8.79428 16.4253 9.0668 15.0553C9.33932 13.6852 10.012 12.4268 10.9997 11.439C11.9875 10.4513 13.246 9.77859 14.616 9.50607C15.986 9.23355 17.4061 9.37342 18.6967 9.90799C19.9873 10.4426 21.0903 11.3478 21.8664 12.5093C22.6424 13.6707 23.0567 15.0363 23.0567 16.4332C23.0661 17.3633 22.8899 18.2859 22.5383 19.1471C22.1867 20.0083 21.6668 20.7906 21.0091 21.4483C20.3513 22.1061 19.569 22.626 18.7078 22.9776C17.8467 23.3291 16.924 23.5054 15.9939 23.4959ZM15.9939 11.7246C15.3716 11.7101 14.7528 11.822 14.175 12.0535C13.5972 12.285 13.0723 12.6313 12.6322 13.0714C12.192 13.5116 11.8457 14.0364 11.6142 14.6143C11.3827 15.1921 11.2709 15.8109 11.2854 16.4332C11.2709 17.0554 11.3827 17.6742 11.6142 18.252C11.8457 18.8299 12.192 19.3547 12.6322 19.7949C13.0723 20.235 13.5972 20.5813 14.175 20.8128C14.7528 21.0443 15.3716 21.1562 15.9939 21.1417C16.6162 21.1562 17.2349 21.0443 17.8128 20.8128C18.3906 20.5813 18.9154 20.235 19.3556 19.7949C19.7957 19.3547 20.142 18.8299 20.3735 18.252C20.605 17.6742 20.7169 17.0554 20.7024 16.4332C20.7169 15.8109 20.605 15.1921 20.3735 14.6143C20.142 14.0364 19.7957 13.5116 19.3556 13.0714C18.9154 12.6313 18.3906 12.285 17.8128 12.0535C17.2349 11.822 16.6162 11.7101 15.9939 11.7246Z" fill="#BFC9C3"/>
</g>
<defs>
<clipPath id="clip0_41_1954">
<rect width="32" height="32.8664" fill="white"/>
</clipPath>
</defs>
</svg>
