<svg width="154" height="155" viewBox="0 0 154 155" fill="none" xmlns="http://www.w3.org/2000/svg">
<path d="M74 0.0529785C88.39 0.0529779 105.492 4.08534 117.707 11.6927C129.921 19.3001 139.76 30.1781 146.107 43.0929C152.453 56.0078 155.054 70.4426 153.613 84.7603C152.173 99.0781 146.749 112.706 137.957 124.098L77 77.053L74 0.0529785Z" fill="#CCF1E5"/>
<path d="M137.957 124.098C130.055 134.338 119.699 142.422 107.848 147.604C95.9963 152.786 83.0302 154.899 70.1466 153.747C57.263 152.596 44.877 148.218 34.132 141.016C23.387 133.815 14.6292 124.023 8.66718 112.544C2.70514 101.065 -0.269067 88.2692 0.0191121 75.3375C0.307291 62.4057 3.84857 49.755 10.3161 38.553C16.7835 27.351 25.9688 17.9587 37.0239 11.2433C48.0791 4.52787 60.6478 0.705625 73.5699 0.129416L77 77.053L137.957 124.098Z" fill="#D4EAFE" stroke="#2A96FA"/>
</svg>
