<svg width="18" height="18" viewBox="0 0 18 18" fill="none" xmlns="http://www.w3.org/2000/svg">
<g clip-path="url(#clip0_145_411)">
<path d="M14.1488 4.62327L11.945 1.35697C11.7816 1.11539 11.5645 0.91723 11.3116 0.778904C11.0588 0.640578 10.7774 0.566073 10.4909 0.561561L6.30863 0.5H6.3C4.14079 0.5 2.48411 0.870562 1.41713 2.67904C0.42375 4.36244 0 7.23001 0 12.2673V12.8829H1.37089L0.4884 17.5H1.71127L2.59376 12.8829H3C3.97994 12.8919 4.924 12.505 5.6283 11.8059C6.26501 11.1808 6.72428 10.3256 6.95651 9.33287L6.95861 9.32395L7.98773 4.26429H6.76185L5.78764 9.05408C5.49094 10.3115 4.60372 11.6517 3 11.6517H1.20225C1.23484 7.29365 1.62158 4.70988 2.44369 3.31647C3.13369 2.14681 4.14225 1.73161 6.29584 1.73104L10.4736 1.7926C10.5691 1.79409 10.6629 1.81892 10.7472 1.86503C10.8315 1.91114 10.9039 1.9772 10.9583 2.05774L13.4513 5.75215L16.8 6.32483V6.97734L16.2416 10.0331C16.0767 10.935 15.795 11.3894 14.6396 11.5318L9.90315 12.3632L9.87184 17.5H11.0718L11.0968 13.4026L14.7981 12.7523C15.6366 12.6466 16.2552 12.3693 16.6891 11.905C17.0599 11.508 17.2857 11.0008 17.421 10.2601L18 7.09177V5.28182L14.1488 4.62327Z" fill="#625D92"/>
</g>
<defs>
<clipPath id="clip0_145_411">
<rect width="18" height="17" fill="white" transform="translate(0 0.5)"/>
</clipPath>
</defs>
</svg>
