<svg width="19" height="18" viewBox="0 0 19 18" fill="none" xmlns="http://www.w3.org/2000/svg">
<g clip-path="url(#clip0_145_607)">
<path d="M2.29997 17.5499H10.9578C11.4772 17.5501 11.9905 17.4379 12.4623 17.2209C12.9341 17.0038 13.3533 16.6871 13.6911 16.2926L18.2828 10.9359C18.379 10.8239 18.4461 10.69 18.4783 10.546C18.5105 10.4019 18.5068 10.2522 18.4675 10.1099C18.4282 9.96766 18.3545 9.83724 18.2529 9.73016C18.1514 9.62309 18.025 9.54264 17.885 9.4959L16.1138 8.90551C15.6858 8.76636 15.23 8.73488 14.7869 8.81384C14.3437 8.89279 13.9269 9.07976 13.5732 9.3582L10.7067 11.6505L10.1514 10.539C9.85396 9.93984 9.39465 9.43597 8.82553 9.08445C8.25641 8.73292 7.60022 8.54779 6.9313 8.55001H2.29997C1.30729 8.55001 0.5 9.3573 0.5 10.35V15.7499C0.5 16.7426 1.30729 17.5499 2.29997 17.5499ZM2.29997 10.35H6.9313C7.61799 10.35 8.23448 10.7307 8.54137 11.3445L8.94366 12.15H4.99993V13.9499H10.4124C10.5509 13.9481 10.6871 13.9142 10.8102 13.8509L10.8129 13.85L10.8165 13.8482H10.8192L10.821 13.8473H10.8246L10.8255 13.8464C10.8336 13.8491 10.8282 13.8455 10.8282 13.8455C10.8372 13.8455 10.83 13.8446 10.83 13.8446H10.8309L10.8327 13.8437L10.8354 13.8428L10.8372 13.8419L10.839 13.841L10.8417 13.8401L10.8435 13.8392C10.8462 13.8392 10.8444 13.8383 10.8453 13.8383L10.848 13.8365L10.8498 13.8356L10.8516 13.8347L10.8543 13.8338L10.8561 13.8329H10.857L10.8588 13.832H10.8597L10.8615 13.8311L10.8633 13.8302C10.8714 13.8293 10.866 13.8293 10.866 13.8293L10.8678 13.8284C10.9025 13.8075 10.9356 13.784 10.9668 13.7582L14.6982 10.773C14.934 10.5858 15.2589 10.5273 15.5442 10.6227L16.0455 10.7901L12.3258 15.1307C12.1547 15.325 11.9443 15.4807 11.7084 15.5874C11.4726 15.6942 11.2167 15.7496 10.9578 15.7499H2.29997V10.35ZM13.0998 0.450143H13.0845C12.9378 0.451943 12.1791 0.485242 11.2998 1.08463C10.4439 0.501442 9.70325 0.454643 9.52865 0.451043L9.50165 0.450143H9.49806C8.77717 0.450143 8.09858 0.731838 7.59099 1.24033C7.08159 1.75062 6.7999 2.42831 6.7999 3.1501C6.7999 3.87189 7.08159 4.54958 7.57479 5.04367L10.6473 8.27102C10.7319 8.35877 10.8333 8.42856 10.9454 8.4762C11.0576 8.52384 11.1782 8.54836 11.3 8.54827C11.4219 8.54819 11.5424 8.52351 11.6545 8.47571C11.7666 8.42792 11.8679 8.35799 11.9523 8.27012L15.0087 5.05897C15.519 4.54958 15.7998 3.87189 15.7998 3.1501C15.7998 2.42831 15.5181 1.75062 15.0096 1.24123C14.7597 0.989725 14.4624 0.7903 14.1348 0.654507C13.8073 0.518714 13.4561 0.449252 13.1016 0.450143H13.0998ZM13.9998 3.1501C13.9998 3.3904 13.9062 3.61629 13.7199 3.80259L11.2998 6.34505L8.86357 3.78639C8.69347 3.61629 8.59987 3.3904 8.59987 3.1501C8.59987 2.9098 8.69347 2.68391 8.86446 2.51291C9.02721 2.34736 9.24882 2.2529 9.48096 2.25011C9.50346 2.25101 9.93275 2.27891 10.4412 2.68661C10.5141 2.74511 10.5879 2.8117 10.6635 2.8864L11.2998 3.52269L11.9361 2.8864C12.0117 2.8117 12.0855 2.74511 12.1584 2.68661C12.6345 2.30411 13.0368 2.25641 13.1052 2.25101C13.2225 2.25099 13.3386 2.2742 13.4469 2.31931C13.5552 2.36441 13.6535 2.43052 13.7361 2.51381C13.9062 2.68391 13.9998 2.9098 13.9998 3.1501Z" fill="#FF7AE2"/>
</g>
<defs>
<clipPath id="clip0_145_607">
<rect width="18" height="17.0997" fill="white" transform="translate(0.5 0.450134)"/>
</clipPath>
</defs>
</svg>
