<svg width="18" height="18" viewBox="0 0 18 18" fill="none" xmlns="http://www.w3.org/2000/svg">
<path d="M17.8227 7.31227C17.9375 7.91477 18 8.5447 18 9.20205C18 14.3439 14.4883 18 9.18426 18C7.97807 18.0004 6.78362 17.7678 5.66916 17.3156C4.55471 16.8635 3.5421 16.2006 2.68919 15.3648C1.83628 14.529 1.15978 13.5367 0.698362 12.4446C0.23694 11.3525 -0.000367335 10.182 4.26794e-07 9C-0.000367335 7.818 0.23694 6.64752 0.698362 5.55542C1.15978 4.46333 1.83628 3.47103 2.68919 2.63524C3.5421 1.79944 4.55471 1.13652 5.66916 0.684351C6.78362 0.232186 7.97807 -0.000359965 9.18426 4.18231e-07C11.6641 4.18231e-07 13.7363 0.894149 15.3261 2.346L12.7371 4.88308V4.87668C11.7733 3.97704 10.5501 3.51534 9.18426 3.51534C6.15394 3.51534 3.69087 6.02408 3.69087 8.99451C3.69087 11.964 6.15394 14.4783 9.18426 14.4783C11.9338 14.4783 13.8053 12.9377 14.1897 10.8221H9.18426V7.31227H17.8237H17.8227Z" fill="#747875"/>
</svg>
