<svg width="18" height="16" viewBox="0 0 18 16" fill="none" xmlns="http://www.w3.org/2000/svg">
<path fill-rule="evenodd" clip-rule="evenodd" d="M3.33628 1.06368C3.16653 0.899733 2.93919 0.809019 2.70321 0.811069C2.46724 0.81312 2.24151 0.907772 2.07464 1.07464C1.90777 1.24151 1.81312 1.46724 1.81107 1.70321C1.80902 1.93919 1.89973 2.16653 2.06368 2.33628L14.6637 14.9363C14.8334 15.1002 15.0608 15.1909 15.2967 15.1889C15.5327 15.1868 15.7584 15.0922 15.9253 14.9253C16.0922 14.7584 16.1868 14.5327 16.1889 14.2967C16.1909 14.0608 16.1002 13.8334 15.9363 13.6637L14.6106 12.338C16.0124 11.2203 17.0489 9.70991 17.5878 7.99998C16.4412 4.34868 13.0302 1.69998 8.99998 1.69998C7.58916 1.69806 6.19783 2.02924 4.93918 2.66658L3.33718 1.06368H3.33628ZM7.17118 4.89768L8.53378 6.26118C8.83896 6.18013 9.16007 6.18067 9.46498 6.26273C9.76989 6.3448 10.0479 6.50551 10.2712 6.72878C10.4944 6.95206 10.6552 7.23006 10.7372 7.53497C10.8193 7.83988 10.8198 8.16099 10.7388 8.46618L12.1014 9.82877C12.5073 9.14119 12.6731 8.33819 12.5727 7.54608C12.4723 6.75398 12.1114 6.01772 11.5468 5.45314C10.9822 4.88855 10.246 4.52768 9.45387 4.42729C8.66176 4.3269 7.85876 4.49269 7.17118 4.89858V4.89768Z" fill="#BFC9C3"/>
<path d="M11.2086 14.0273L8.77503 11.5928C7.89995 11.5379 7.07496 11.1656 6.45488 10.5457C5.83481 9.92583 5.46229 9.10093 5.40723 8.22587L2.10153 4.92017C1.34122 5.82558 0.767146 6.87219 0.412231 7.99997C1.55883 11.6513 4.97073 14.3 9.00003 14.3C9.76233 14.3 10.5021 14.2055 11.2086 14.0273Z" fill="#BFC9C3"/>
</svg>
