<svg width="24" height="24" viewBox="0 0 24 24" fill="none" xmlns="http://www.w3.org/2000/svg">
<g clip-path="url(#clip0_385_944)">
<path d="M11.946 2.2905C7.48049 2.2905 3.58949 4.8465 2.46599 8.478H1.64099C1.42231 8.47824 1.20632 8.52629 1.00816 8.61879C0.810003 8.71129 0.634467 8.846 0.49385 9.01348C0.353234 9.18097 0.250939 9.37717 0.194132 9.58835C0.137325 9.79953 0.12738 10.0206 0.164994 10.236L0.545994 12.426C0.63679 12.9481 0.908956 13.4214 1.31453 13.7625C1.72011 14.1036 2.23306 14.2906 2.76299 14.2905H3.15749C3.60749 15.06 4.18949 15.7575 4.87499 16.3635L3.78149 20.079C3.74861 20.1909 3.74227 20.3089 3.76296 20.4236C3.78366 20.5384 3.83083 20.6467 3.90072 20.74C3.97061 20.8334 4.0613 20.9091 4.16559 20.9613C4.26988 21.0134 4.38489 21.0406 4.50149 21.0405H7.50149C7.65625 21.0405 7.80721 20.9927 7.9337 20.9035C8.06019 20.8144 8.156 20.6882 8.20799 20.5425L8.93099 18.516C9.88349 18.7755 10.896 18.9165 11.9475 18.9165C13.008 18.9165 14.0295 18.774 14.9895 18.5085L15.804 20.5665C15.8593 20.7063 15.9554 20.8263 16.0798 20.9108C16.2042 20.9953 16.3511 21.0405 16.5015 21.0405H19.5015C19.6185 21.0404 19.7339 21.0129 19.8384 20.9602C19.9429 20.9075 20.0336 20.8311 20.1033 20.7371C20.173 20.643 20.2197 20.534 20.2397 20.4187C20.2597 20.3034 20.2524 20.185 20.2185 20.073L19.077 16.314C20.715 14.8425 21.75 12.8385 21.75 10.6035C21.75 10.386 21.7395 10.1685 21.72 9.957C22.1115 9.792 22.482 9.558 22.7775 9.291C23.25 9.75 24 9.75 24 8.6655C24 9 23.25 9 23.3085 8.6265C23.3715 8.50609 23.417 8.37728 23.4435 8.244C23.4788 8.07026 23.4695 7.89043 23.4165 7.72125C23.3635 7.55208 23.2686 7.39907 23.1405 7.2765C23.0054 7.13727 22.8277 7.04718 22.6355 7.02055C22.4434 6.99392 22.2479 7.03226 22.08 7.1295C21.9257 7.21478 21.794 7.33585 21.6961 7.48253C21.5983 7.62922 21.537 7.79724 21.5175 7.9725C21.4815 8.337 21.6405 8.6925 21.9975 8.9535C21.8736 9.03913 21.7438 9.11583 21.609 9.183C20.808 5.187 16.683 2.2905 11.946 2.2905ZM22.7055 8.1045C22.6788 8.21853 22.6287 8.32578 22.5585 8.4195C22.5361 8.40779 22.514 8.39528 22.4925 8.382C22.2735 8.247 22.257 8.1195 22.2645 8.0475C22.2719 7.99368 22.2915 7.94228 22.322 7.89728C22.3524 7.85228 22.3928 7.81489 22.44 7.788C22.5135 7.7475 22.56 7.7565 22.6095 7.806C22.6512 7.84227 22.6822 7.88925 22.6991 7.94186C22.716 7.99448 22.7182 8.05072 22.7055 8.1045ZM9.20699 7.1295C9.11091 7.1621 9.0092 7.17487 8.90803 7.16703C8.80687 7.15918 8.70835 7.13089 8.61843 7.08387C8.52851 7.03685 8.44908 6.97207 8.38492 6.89345C8.32077 6.81484 8.27324 6.72402 8.2452 6.6265C8.21716 6.52898 8.20921 6.42679 8.22181 6.3261C8.23442 6.22542 8.26732 6.12834 8.31853 6.04074C8.36974 5.95315 8.4382 5.87685 8.51975 5.81648C8.60131 5.7561 8.69426 5.7129 8.79299 5.6895C9.81832 5.3965 10.8796 5.24856 11.946 5.25C13.0905 5.25 14.1915 5.415 15.216 5.7225C15.3103 5.75076 15.3982 5.79734 15.4746 5.85956C15.5509 5.92179 15.6143 5.99844 15.661 6.08515C15.7077 6.17185 15.7369 6.26691 15.7469 6.3649C15.7569 6.46289 15.7475 6.56189 15.7192 6.65625C15.691 6.7506 15.6444 6.83846 15.5822 6.91482C15.52 6.99117 15.4433 7.05453 15.3566 7.10126C15.2699 7.14799 15.1748 7.17718 15.0768 7.18718C14.9788 7.19717 14.8798 7.18776 14.7855 7.1595C13.8639 6.88589 12.9074 6.74795 11.946 6.75C10.986 6.75 10.0635 6.885 9.20699 7.131V7.1295ZM7.49999 9.375C7.49999 9.67337 7.38147 9.95951 7.17049 10.1705C6.95951 10.3815 6.67336 10.5 6.37499 10.5C6.07663 10.5 5.79048 10.3815 5.5795 10.1705C5.36852 9.95951 5.24999 9.67337 5.24999 9.375C5.24999 9.07663 5.36852 8.79048 5.5795 8.5795C5.79048 8.36852 6.07663 8.25 6.37499 8.25C6.67336 8.25 6.95951 8.36852 7.17049 8.5795C7.38147 8.79048 7.49999 9.07663 7.49999 9.375Z" fill="#707974"/>
</g>
<defs>
<clipPath id="clip0_385_944">
<rect width="24" height="24" fill="white"/>
</clipPath>
</defs>
</svg>
