<svg width="28" height="32" viewBox="0 0 28 32" fill="none" xmlns="http://www.w3.org/2000/svg">
<path d="M14.6284 4.16192L14.4781 4.29212L14.6284 4.16192C14.4313 3.9345 14.1573 3.8 13.8645 3.8C13.5716 3.8 13.2977 3.9345 13.1006 4.16192C12.9043 4.38844 12.798 4.69026 12.798 5V14.8H4.33266C4.03979 14.8 3.76585 14.9345 3.56878 15.1619C3.37249 15.3884 3.26613 15.6903 3.26613 16C3.26613 16.3097 3.37249 16.6116 3.56878 16.8381C3.76585 17.0655 4.03979 17.2 4.33266 17.2H12.798V27C12.798 27.3097 12.9043 27.6116 13.1006 27.8381C13.2977 28.0655 13.5716 28.2 13.8645 28.2C14.1573 28.2 14.4313 28.0655 14.6284 27.8381C14.8246 27.6116 14.931 27.3097 14.931 27V17.2H23.3963C23.6892 17.2 23.9631 17.0655 24.1602 16.8381C24.3565 16.6116 24.4628 16.3097 24.4628 16C24.4628 15.6903 24.3565 15.3884 24.1602 15.1619C23.9631 14.9345 23.6892 14.8 23.3963 14.8H14.931V5C14.931 4.69026 14.8246 4.38844 14.6284 4.16192Z" fill="#BFC9C3" stroke="#BFC9C3" stroke-width="0.4"/>
</svg>
