<svg width="36" height="36" viewBox="0 0 36 36" fill="none" xmlns="http://www.w3.org/2000/svg">
<path d="M6 28.5V25.5H9V15C9 12.925 9.625 11.0875 10.875 9.4875C12.125 7.8625 13.75 6.8 15.75 6.3V5.25C15.75 4.625 15.9625 4.1 16.3875 3.675C16.8375 3.225 17.375 3 18 3C18.625 3 19.15 3.225 19.575 3.675C20.025 4.1 20.25 4.625 20.25 5.25V6.3C22.25 6.8 23.875 7.8625 25.125 9.4875C26.375 11.0875 27 12.925 27 15V25.5H30V28.5H6ZM18 33C17.175 33 16.4625 32.7125 15.8625 32.1375C15.2875 31.5375 15 30.825 15 30H21C21 30.825 20.7 31.5375 20.1 32.1375C19.525 32.7125 18.825 33 18 33ZM12 25.5H24V15C24 13.35 23.4125 11.9375 22.2375 10.7625C21.0625 9.5875 19.65 9 18 9C16.35 9 14.9375 9.5875 13.7625 10.7625C12.5875 11.9375 12 13.35 12 15V25.5Z" fill="#1CA380"/>
</svg>
