<svg width="25" height="26" viewBox="0 0 25 26" fill="none" xmlns="http://www.w3.org/2000/svg">
<path d="M21.289 12.0723H7.00437L15.5542 4.65039C15.6909 4.53076 15.6079 4.30859 15.4272 4.30859H13.2666C13.1714 4.30859 13.081 4.34277 13.0102 4.40381L3.78415 12.4092C3.69965 12.4824 3.63188 12.573 3.58544 12.6747C3.53899 12.7764 3.51495 12.887 3.51495 12.9988C3.51495 13.1106 3.53899 13.2211 3.58544 13.3229C3.63188 13.4246 3.69965 13.5151 3.78415 13.5884L13.0639 21.6426C13.1006 21.6743 13.1445 21.6914 13.1909 21.6914H15.4248C15.6054 21.6914 15.6884 21.4668 15.5517 21.3496L7.00437 13.9277H21.289C21.3965 13.9277 21.4843 13.8398 21.4843 13.7324V12.2676C21.4843 12.1602 21.3965 12.0723 21.289 12.0723Z" fill="#707974"/>
<path d="M21.289 12.0723H7.00437L15.5542 4.65039C15.6909 4.53076 15.6079 4.30859 15.4272 4.30859H13.2666C13.1714 4.30859 13.081 4.34277 13.0102 4.40381L3.78415 12.4092C3.69965 12.4824 3.63188 12.573 3.58544 12.6747C3.53899 12.7764 3.51495 12.887 3.51495 12.9988C3.51495 13.1106 3.53899 13.2211 3.58544 13.3229C3.63188 13.4246 3.69965 13.5151 3.78415 13.5884L13.0639 21.6426C13.1006 21.6743 13.1445 21.6914 13.1909 21.6914H15.4248C15.6054 21.6914 15.6884 21.4668 15.5517 21.3496L7.00437 13.9277H21.289C21.3965 13.9277 21.4843 13.8398 21.4843 13.7324V12.2676C21.4843 12.1602 21.3965 12.0723 21.289 12.0723Z" stroke="#707974"/>
</svg>
