<svg width="24" height="24" viewBox="0 0 24 24" fill="none" xmlns="http://www.w3.org/2000/svg">
<path d="M4.79995 17.4V13.398L9.60955 16.1592C10.337 16.5769 11.1611 16.7967 12 16.7967C12.8388 16.7967 13.6629 16.5769 14.3904 16.1592L19.1999 13.3992V17.4C19.2001 17.4788 19.1847 17.5569 19.1546 17.6298C19.1246 17.7027 19.0804 17.769 19.0247 17.8248L19.0224 17.826L19.02 17.8296L19.0116 17.8368L18.9839 17.8632L18.8879 17.952C18.7707 18.0549 18.6502 18.1542 18.5268 18.2496C18.0957 18.5805 17.6377 18.8748 17.1576 19.1292C15.5694 19.9716 13.7977 20.4086 12 20.4012C10.2022 20.4086 8.4305 19.9716 6.84235 19.1292C6.36258 18.8747 5.90497 18.5805 5.47435 18.2496C5.316 18.1275 5.16306 17.9986 5.01595 17.8632L4.98835 17.8368C4.92954 17.7801 4.8826 17.7123 4.85026 17.6373C4.81791 17.5623 4.80081 17.4817 4.79995 17.4ZM22.4988 10.1208L13.7928 15.1188C13.2472 15.4321 12.6291 15.597 12 15.597C11.3708 15.597 10.7527 15.4321 10.2072 15.1188L2.39995 10.6368V16.2C2.39995 16.3591 2.33674 16.5117 2.22422 16.6243C2.11169 16.7368 1.95908 16.8 1.79995 16.8C1.64082 16.8 1.48821 16.7368 1.37569 16.6243C1.26317 16.5117 1.19995 16.3591 1.19995 16.2V9.59999C1.19989 9.49182 1.22908 9.38563 1.28442 9.29269C1.33977 9.19974 1.41922 9.12349 1.51435 9.07199L10.2072 4.08119C10.7526 3.76754 11.3708 3.60248 12 3.60248C12.6291 3.60248 13.2473 3.76754 13.7928 4.08119L22.4988 9.08039C22.5902 9.13297 22.6662 9.20875 22.7191 9.30009C22.7719 9.39142 22.7998 9.49507 22.7998 9.60059C22.7998 9.70611 22.7719 9.80977 22.7191 9.9011C22.6662 9.99243 22.5902 10.0682 22.4988 10.1208Z" fill="#707974"/>
</svg>
