<svg width="24" height="24" viewBox="0 0 24 24" fill="none" xmlns="http://www.w3.org/2000/svg">
<path d="M4.79995 17.4001V13.3981L9.60955 16.1593C10.337 16.577 11.1611 16.7968 12 16.7968C12.8388 16.7968 13.6629 16.577 14.3904 16.1593L19.1999 13.3993V17.4001C19.2001 17.4789 19.1847 17.557 19.1546 17.6299C19.1246 17.7028 19.0804 17.769 19.0247 17.8249L19.0224 17.8261L19.02 17.8297L19.0116 17.8369L18.9839 17.8633L18.8879 17.9521C18.7707 18.055 18.6502 18.1542 18.5268 18.2497C18.0957 18.5806 17.6377 18.8748 17.1576 19.1293C15.5694 19.9717 13.7977 20.4086 12 20.4013C10.2022 20.4086 8.4305 19.9717 6.84235 19.1293C6.36258 18.8748 5.90497 18.5806 5.47435 18.2497C5.316 18.1276 5.16306 17.9987 5.01595 17.8633L4.98835 17.8369C4.92954 17.7802 4.8826 17.7124 4.85026 17.6374C4.81791 17.5624 4.80081 17.4817 4.79995 17.4001ZM22.4988 10.1209L13.7928 15.1189C13.2472 15.4322 12.6291 15.597 12 15.597C11.3708 15.597 10.7527 15.4322 10.2072 15.1189L2.39995 10.6369V16.2001C2.39995 16.3592 2.33674 16.5118 2.22422 16.6243C2.11169 16.7368 1.95908 16.8001 1.79995 16.8001C1.64082 16.8001 1.48821 16.7368 1.37569 16.6243C1.26317 16.5118 1.19995 16.3592 1.19995 16.2001V9.60005C1.19989 9.49188 1.22908 9.3857 1.28442 9.29275C1.33977 9.1998 1.41922 9.12355 1.51435 9.07205L10.2072 4.08125C10.7526 3.76761 11.3708 3.60254 12 3.60254C12.6291 3.60254 13.2473 3.76761 13.7928 4.08125L22.4988 9.08045C22.5902 9.13304 22.6662 9.20882 22.7191 9.30015C22.7719 9.39148 22.7998 9.49513 22.7998 9.60065C22.7998 9.70617 22.7719 9.80983 22.7191 9.90116C22.6662 9.99249 22.5902 10.0683 22.4988 10.1209Z" fill="#707974"/>
</svg>
