<svg width="19" height="18" viewBox="0 0 19 18" fill="none" xmlns="http://www.w3.org/2000/svg">
<g clip-path="url(#clip0_145_1566)">
<path d="M17.3948 7.3404L16.1636 3.6459C15.985 3.10813 15.6415 2.64033 15.1818 2.30896C14.7221 1.97758 14.1697 1.7995 13.6031 1.8H11.3V0H7.7V1.8H5.3969C4.83025 1.7995 4.27785 1.97758 3.8182 2.30896C3.35854 2.64033 3.015 3.10813 2.8364 3.6459L1.6052 7.3404C1.27815 7.47763 0.998849 7.70828 0.80226 8.00349C0.605671 8.29869 0.50053 8.64533 0.5 9V13.5C0.5 14.1777 0.8807 14.7618 1.4351 15.0687C1.4234 15.1281 1.4 15.1821 1.4 15.2442V17.1C1.4 17.3387 1.49482 17.5676 1.6636 17.7364C1.83239 17.9052 2.06131 18 2.3 18H3.2C3.43869 18 3.66761 17.9052 3.8364 17.7364C4.00518 17.5676 4.1 17.3387 4.1 17.1V15.3H14.9V17.1C14.9 17.3387 14.9948 17.5676 15.1636 17.7364C15.3324 17.9052 15.5613 18 15.8 18H16.7C16.9387 18 17.1676 17.9052 17.3364 17.7364C17.5052 17.5676 17.6 17.3387 17.6 17.1V15.2442C17.6 15.1821 17.5766 15.1272 17.5649 15.0687C17.847 14.9149 18.0825 14.6882 18.247 14.4123C18.4115 14.1363 18.4989 13.8213 18.5 13.5V9C18.5 8.2539 18.0428 7.6131 17.3948 7.3404ZM2.3 13.5V9H16.7L16.7018 13.5H2.3ZM5.3969 3.6H13.6022C13.9901 3.6 14.3339 3.8466 14.4563 4.2156L15.4517 7.2H3.5483L4.5428 4.2156C4.60251 4.03631 4.71714 3.88037 4.87044 3.76988C5.02374 3.65939 5.20793 3.59995 5.3969 3.6Z" fill="#FF8C21"/>
<path d="M4.55007 12.5999C5.29566 12.5999 5.90007 11.9955 5.90007 11.2499C5.90007 10.5043 5.29566 9.8999 4.55007 9.8999C3.80449 9.8999 3.20007 10.5043 3.20007 11.2499C3.20007 11.9955 3.80449 12.5999 4.55007 12.5999Z" fill="#FF8C21"/>
<path d="M14.4499 12.5999C15.1954 12.5999 15.7999 11.9955 15.7999 11.2499C15.7999 10.5043 15.1954 9.8999 14.4499 9.8999C13.7043 9.8999 13.0999 10.5043 13.0999 11.2499C13.0999 11.9955 13.7043 12.5999 14.4499 12.5999Z" fill="#FF8C21"/>
</g>
<defs>
<clipPath id="clip0_145_1566">
<rect width="18" height="18" fill="white" transform="translate(0.5)"/>
</clipPath>
</defs>
</svg>
