<svg width="19" height="18" viewBox="0 0 19 18" fill="none" xmlns="http://www.w3.org/2000/svg">
<g clip-path="url(#clip0_145_1465)">
<path d="M2.29997 17.5499H10.9578C11.4772 17.5502 11.9905 17.438 12.4623 17.2209C12.9341 17.0039 13.3533 16.6872 13.6911 16.2926L18.2828 10.9359C18.379 10.824 18.4461 10.6901 18.4783 10.546C18.5105 10.402 18.5068 10.2522 18.4675 10.11C18.4282 9.96772 18.3545 9.8373 18.2529 9.73023C18.1514 9.62315 18.025 9.5427 17.885 9.49596L16.1138 8.90557C15.6858 8.76642 15.23 8.73494 14.7869 8.8139C14.3437 8.89286 13.9269 9.07982 13.5732 9.35826L10.7067 11.6505L10.1514 10.539C9.85396 9.9399 9.39465 9.43603 8.82553 9.08451C8.25641 8.73298 7.60022 8.54785 6.9313 8.55007H2.29997C1.30729 8.55007 0.5 9.35736 0.5 10.35V15.75C0.5 16.7426 1.30729 17.5499 2.29997 17.5499ZM2.29997 10.35H6.9313C7.61799 10.35 8.23448 10.7307 8.54137 11.3445L8.94366 12.15H4.99993V13.95H10.4124C10.5509 13.9482 10.6871 13.9143 10.8102 13.851L10.8129 13.8501L10.8165 13.8483H10.8192L10.821 13.8474H10.8246L10.8255 13.8465C10.8336 13.8492 10.8282 13.8456 10.8282 13.8456C10.8372 13.8456 10.83 13.8447 10.83 13.8447H10.8309L10.8327 13.8438L10.8354 13.8429L10.8372 13.842L10.839 13.8411L10.8417 13.8402L10.8435 13.8393C10.8462 13.8393 10.8444 13.8384 10.8453 13.8384L10.848 13.8366L10.8498 13.8357L10.8516 13.8348L10.8543 13.8339L10.8561 13.833H10.857L10.8588 13.8321H10.8597L10.8615 13.8312L10.8633 13.8303C10.8714 13.8294 10.866 13.8294 10.866 13.8294L10.8678 13.8285C10.9025 13.8076 10.9356 13.7841 10.9668 13.7583L14.6982 10.773C14.934 10.5858 15.2589 10.5273 15.5442 10.6227L16.0455 10.7901L12.3258 15.1308C12.1547 15.325 11.9443 15.4807 11.7084 15.5875C11.4726 15.6942 11.2167 15.7496 10.9578 15.75H2.29997V10.35ZM13.0998 0.450204H13.0845C12.9378 0.452004 12.1791 0.485303 11.2998 1.08469C10.4439 0.501503 9.70325 0.454704 9.52865 0.451104L9.50165 0.450204H9.49806C8.77717 0.450204 8.09858 0.731899 7.59099 1.24039C7.08159 1.75068 6.7999 2.42837 6.7999 3.15016C6.7999 3.87195 7.08159 4.54964 7.57479 5.04373L10.6473 8.27108C10.7319 8.35883 10.8333 8.42862 10.9454 8.47626C11.0576 8.52391 11.1782 8.54842 11.3 8.54834C11.4219 8.54825 11.5424 8.52357 11.6545 8.47578C11.7666 8.42798 11.8679 8.35805 11.9523 8.27018L15.0087 5.05903C15.519 4.54964 15.7998 3.87195 15.7998 3.15016C15.7998 2.42837 15.5181 1.75068 15.0096 1.24129C14.7597 0.989786 14.4624 0.790361 14.1348 0.654568C13.8073 0.518775 13.4561 0.449313 13.1016 0.450204H13.0998ZM13.9998 3.15016C13.9998 3.39046 13.9062 3.61635 13.7199 3.80265L11.2998 6.34511L8.86357 3.78645C8.69347 3.61635 8.59987 3.39046 8.59987 3.15016C8.59987 2.90986 8.69347 2.68397 8.86446 2.51297C9.02721 2.34742 9.24882 2.25296 9.48096 2.25017C9.50346 2.25107 9.93275 2.27897 10.4412 2.68667C10.5141 2.74517 10.5879 2.81177 10.6635 2.88646L11.2998 3.52275L11.9361 2.88646C12.0117 2.81177 12.0855 2.74517 12.1584 2.68667C12.6345 2.30417 13.0368 2.25647 13.1052 2.25107C13.2225 2.25105 13.3386 2.27426 13.4469 2.31937C13.5552 2.36448 13.6535 2.43058 13.7361 2.51387C13.9062 2.68397 13.9998 2.90986 13.9998 3.15016Z" fill="#FF7AE2"/>
</g>
<defs>
<clipPath id="clip0_145_1465">
<rect width="18" height="17.0997" fill="white" transform="translate(0.5 0.450195)"/>
</clipPath>
</defs>
</svg>
