<svg width="73" height="15" viewBox="0 0 73 15" fill="none" xmlns="http://www.w3.org/2000/svg">
<mask id="mask0_2_1688" style="mask-type:luminance" maskUnits="userSpaceOnUse" x="0" y="1" width="20" height="14">
<path fill-rule="evenodd" clip-rule="evenodd" d="M0.230774 1.47533L9.86187 14.5676L19.493 1.47533H0.230774Z" fill="white"/>
</mask>
<g mask="url(#mask0_2_1688)">
<path fill-rule="evenodd" clip-rule="evenodd" d="M9.86125 1.47527C1.9156 1.47527 -4.58539 7.36679 -4.58539 14.5675C-4.58539 21.7683 1.9156 27.6598 9.86125 27.6598C17.8069 27.6598 24.3079 21.7683 24.3079 14.5675C24.3079 7.36679 17.8069 1.47527 9.86125 1.47527ZM9.86125 24.3867C3.84182 24.3867 -0.973728 20.0226 -0.973728 14.5675C-0.973728 9.11242 3.84182 4.74833 9.86125 4.74833C15.8807 4.74833 20.6962 9.11242 20.6962 14.5675C20.6962 20.0226 15.8807 24.3867 9.86125 24.3867Z" fill="#3F3D56" fill-opacity="0.24"/>
<path fill-rule="evenodd" clip-rule="evenodd" d="M9.86123 4.74831C3.84179 4.74831 -0.973755 9.11239 -0.973755 14.5675C-0.973755 20.0226 3.84179 24.3867 9.86123 24.3867C15.8807 24.3867 20.6962 20.0226 20.6962 14.5675C20.6962 9.11239 15.8807 4.74831 9.86123 4.74831ZM9.86123 21.1136C5.8884 21.1136 2.63791 18.1679 2.63791 14.5675C2.63791 10.9671 5.8884 8.02137 9.86123 8.02137C13.8341 8.02137 17.0845 10.9671 17.0845 14.5675C17.0845 18.1679 13.8341 21.1136 9.86123 21.1136Z" fill="#00513D"/>
<path fill-rule="evenodd" clip-rule="evenodd" d="M9.86126 8.02136C5.88843 8.02136 2.63794 10.9671 2.63794 14.5675C2.63794 18.1679 5.88843 21.1136 9.86126 21.1136C13.8341 21.1136 17.0846 18.1679 17.0846 14.5675C17.0846 10.9671 13.8341 8.02136 9.86126 8.02136ZM9.86126 17.8406C7.81465 17.8406 6.2496 16.4222 6.2496 14.5675C6.2496 12.7128 7.81465 11.2944 9.86126 11.2944C11.9079 11.2944 13.4729 12.7128 13.4729 14.5675C13.4729 16.4222 11.9079 17.8406 9.86126 17.8406Z" fill="#00513D"/>
<path fill-rule="evenodd" clip-rule="evenodd" d="M9.86227 17.8407C11.8569 17.8407 13.4739 16.3753 13.4739 14.5676C13.4739 12.76 11.8569 11.2946 9.86227 11.2946C7.86761 11.2946 6.25061 12.76 6.25061 14.5676C6.25061 16.3753 7.86761 17.8407 9.86227 17.8407Z" fill="#00513D"/>
</g>
<mask id="mask1_2_1688" style="mask-type:luminance" maskUnits="userSpaceOnUse" x="31" y="1" width="15" height="14">
<path fill-rule="evenodd" clip-rule="evenodd" d="M45.979 14.5676V1.47533L31.5323 14.5676H45.979Z" fill="white"/>
</mask>
<g mask="url(#mask1_2_1688)">
<path fill-rule="evenodd" clip-rule="evenodd" d="M42.3673 1.47533V14.5676H45.979V1.47533H42.3673Z" fill="#3F3D56" fill-opacity="0.24"/>
<path fill-rule="evenodd" clip-rule="evenodd" d="M38.7557 1.47533V14.5676H42.3673V1.47533H38.7557Z" fill="#3F3D56" fill-opacity="0.24"/>
<path fill-rule="evenodd" clip-rule="evenodd" d="M35.144 1.47533V14.5676H38.7556V1.47533H35.144Z" fill="#00513D"/>
<path fill-rule="evenodd" clip-rule="evenodd" d="M31.5323 1.47533V14.5676H35.144V1.47533H31.5323Z" fill="#00513D"/>
</g>
<mask id="mask2_2_1688" style="mask-type:luminance" maskUnits="userSpaceOnUse" x="62" y="0" width="11" height="15">
<path fill-rule="evenodd" clip-rule="evenodd" d="M71.26 1.47541H70.0561V0.384384H65.2406V1.47541H64.0367C63.3144 1.47541 62.8328 1.91182 62.8328 2.56643V13.4767C62.8328 14.1313 63.3144 14.5677 64.0367 14.5677H71.26C71.9824 14.5677 72.4639 14.1313 72.4639 13.4767V2.56643C72.4639 1.91182 71.9824 1.47541 71.26 1.47541Z" fill="white"/>
</mask>
<g mask="url(#mask2_2_1688)">
<path fill-rule="evenodd" clip-rule="evenodd" d="M62.8328 11.2945V14.5676H72.4639V11.2945H62.8328Z" fill="#00513D"/>
<path fill-rule="evenodd" clip-rule="evenodd" d="M62.8328 8.02142V11.2945H72.4639V8.02142H62.8328Z" fill="#00513D"/>
<path fill-rule="evenodd" clip-rule="evenodd" d="M62.8328 4.74837V8.02143H72.4639V4.74837H62.8328Z" fill="#3F3D56" fill-opacity="0.24"/>
<path fill-rule="evenodd" clip-rule="evenodd" d="M62.8328 1.4753V4.74836H72.4639V1.4753H62.8328Z" fill="#3F3D56" fill-opacity="0.24"/>
<path fill-rule="evenodd" clip-rule="evenodd" d="M65.241 0.384384V1.47541H70.0565V0.384384H65.241Z" fill="#3F3D56" fill-opacity="0.24"/>
</g>
</svg>
