<svg width="24" height="24" viewBox="0 0 24 24" fill="none" xmlns="http://www.w3.org/2000/svg">
<path d="M4.80001 17.4001V13.3981L9.60961 16.1593C10.337 16.577 11.1612 16.7968 12 16.7968C12.8388 16.7968 13.663 16.577 14.3904 16.1593L19.2 13.3993V17.4001C19.2002 17.4789 19.1848 17.557 19.1547 17.6299C19.1246 17.7028 19.0805 17.769 19.0248 17.8249L19.0224 17.8261L19.02 17.8297L19.0116 17.8369L18.984 17.8633L18.888 17.9521C18.7707 18.055 18.6503 18.1542 18.5268 18.2497C18.0958 18.5806 17.6378 18.8748 17.1576 19.1293C15.5695 19.9717 13.7978 20.4086 12 20.4013C10.2023 20.4086 8.43056 19.9717 6.84241 19.1293C6.36264 18.8748 5.90504 18.5806 5.47441 18.2497C5.31606 18.1276 5.16312 17.9987 5.01601 17.8633L4.98841 17.8369C4.9296 17.7802 4.88266 17.7124 4.85032 17.6374C4.81797 17.5624 4.80087 17.4817 4.80001 17.4001ZM22.4988 10.1209L13.7928 15.1189C13.2473 15.4322 12.6291 15.597 12 15.597C11.3709 15.597 10.7528 15.4322 10.2072 15.1189L2.40001 10.6369V16.2001C2.40001 16.3592 2.3368 16.5118 2.22428 16.6243C2.11175 16.7368 1.95914 16.8001 1.80001 16.8001C1.64088 16.8001 1.48827 16.7368 1.37575 16.6243C1.26323 16.5118 1.20001 16.3592 1.20001 16.2001V9.60005C1.19995 9.49188 1.22914 9.3857 1.28449 9.29275C1.33983 9.1998 1.41928 9.12355 1.51441 9.07205L10.2072 4.08125C10.7526 3.76761 11.3708 3.60254 12 3.60254C12.6292 3.60254 13.2474 3.76761 13.7928 4.08125L22.4988 9.08045C22.5903 9.13304 22.6663 9.20882 22.7191 9.30015C22.772 9.39148 22.7998 9.49513 22.7998 9.60065C22.7998 9.70617 22.772 9.80983 22.7191 9.90116C22.6663 9.99249 22.5903 10.0683 22.4988 10.1209Z" fill="white"/>
</svg>
