<svg width="67" height="64" viewBox="0 0 67 64" fill="none" xmlns="http://www.w3.org/2000/svg">
<path d="M16.8825 16.9791C26.0331 16.9791 33.4512 13.252 33.4512 8.65446C33.4512 4.05689 26.0331 0.329834 16.8825 0.329834C7.7318 0.329834 0.313721 4.05689 0.313721 8.65446C0.313721 13.252 7.7318 16.9791 16.8825 16.9791Z" stroke="#82CAA6" stroke-width="2.97561" stroke-linecap="round" stroke-linejoin="round"/>
<path d="M0.313721 8.6543C0.313721 8.6543 0.313721 15.7112 0.313721 20.3088C0.313721 24.9063 7.73179 28.6334 16.8825 28.6334C26.033 28.6334 33.4512 24.9063 33.4512 20.3088C33.4512 17.5856 33.4512 8.6543 33.4512 8.6543" stroke="#82CAA6" stroke-width="2.97561" stroke-linecap="round" stroke-linejoin="round"/>
<path d="M0.313721 20.3086C0.313721 20.3086 0.313721 27.3655 0.313721 31.9631C0.313721 36.5606 7.73179 40.2877 16.8825 40.2877C26.033 40.2877 33.4512 36.5606 33.4512 31.9631C33.4512 29.2399 33.4512 20.3086 33.4512 20.3086" stroke="#82CAA6" stroke-width="2.97561" stroke-linecap="round" stroke-linejoin="round"/>
<path d="M0.313721 31.9634C0.313721 31.9634 0.313721 39.0203 0.313721 43.6178C0.313721 48.2154 7.73179 51.9425 16.8825 51.9425C26.033 51.9425 33.4512 48.2154 33.4512 43.6178C33.4512 40.8947 33.4512 31.9634 33.4512 31.9634" stroke="#82CAA6" stroke-width="2.97561" stroke-linecap="round" stroke-linejoin="round"/>
<path d="M0.313721 43.6177C0.313721 43.6177 0.313721 50.6746 0.313721 55.2721C0.313721 59.8697 7.73179 63.5968 16.8825 63.5968C26.033 63.5968 33.4512 59.8697 33.4512 55.2721C33.4512 52.549 33.4512 43.6177 33.4512 43.6177" stroke="#82CAA6" stroke-width="2.97561" stroke-linecap="round" stroke-linejoin="round"/>
<path d="M50.0199 40.2882C59.1706 40.2882 66.5886 36.5611 66.5886 31.9635C66.5886 27.366 59.1706 23.6389 50.0199 23.6389C40.8692 23.6389 33.4512 27.366 33.4512 31.9635C33.4512 36.5611 40.8692 40.2882 50.0199 40.2882Z" stroke="#82CAA6" stroke-width="2.97561" stroke-linecap="round" stroke-linejoin="round"/>
<path d="M33.4512 31.9634C33.4512 31.9634 33.4512 39.0203 33.4512 43.6178C33.4512 48.2154 40.8693 51.9425 50.0199 51.9425C59.1705 51.9425 66.5886 48.2154 66.5886 43.6178C66.5886 40.8947 66.5886 31.9634 66.5886 31.9634" stroke="#82CAA6" stroke-width="2.97561" stroke-linecap="round" stroke-linejoin="round"/>
<path d="M33.4512 43.6177C33.4512 43.6177 33.4512 50.6746 33.4512 55.2721C33.4512 59.8697 40.8693 63.5968 50.0199 63.5968C59.1705 63.5968 66.5886 59.8697 66.5886 55.2721C66.5886 52.549 66.5886 43.6177 66.5886 43.6177" stroke="#82CAA6" stroke-width="2.97561" stroke-linecap="round" stroke-linejoin="round"/>
</svg>
