<svg width="16" height="18" viewBox="0 0 16 18" fill="none" xmlns="http://www.w3.org/2000/svg">
<g clip-path="url(#clip0_145_1764)">
<path d="M8.43569 0.188851C8.37853 0.128988 8.31062 0.0814933 8.23586 0.049087C8.16109 0.0166808 8.08094 0 8 0C7.91906 0 7.83891 0.0166808 7.76414 0.049087C7.68938 0.0814933 7.62147 0.128988 7.56431 0.188851L0.179693 7.90264C0.122583 7.96245 0.077318 8.03343 0.0464851 8.11152C0.0156523 8.18961 -0.000143446 8.27329 9.81532e-07 8.35776V17.3572C9.81532e-07 17.5277 0.0648359 17.6912 0.180243 17.8117C0.29565 17.9323 0.452175 18 0.615385 18H6.15385C6.31706 18 6.47358 17.9323 6.58899 17.8117C6.7044 17.6912 6.76923 17.5277 6.76923 17.3572V12.2147H9.23077V17.3572C9.23077 17.5277 9.2956 17.6912 9.41101 17.8117C9.52642 17.9323 9.68294 18 9.84615 18H15.3846C15.5478 18 15.7044 17.9323 15.8198 17.8117C15.9352 17.6912 16 17.5277 16 17.3572V8.35776C16.0001 8.27329 15.9843 8.18961 15.9535 8.11152C15.9227 8.03343 15.8774 7.96245 15.8203 7.90264L14.1538 6.16318V1.9296C14.1538 1.75911 14.089 1.59561 13.9736 1.47506C13.8582 1.35451 13.7017 1.28678 13.5385 1.28678H12.3077C12.1445 1.28678 11.988 1.35451 11.8725 1.47506C11.7571 1.59561 11.6923 1.75911 11.6923 1.9296V3.59192L8.43569 0.188851ZM1.23077 16.7144V8.62388L8 1.55291L14.7692 8.62388V16.7144H10.4615V11.5718C10.4615 11.4014 10.3967 11.2379 10.2813 11.1173C10.1659 10.9967 10.0094 10.929 9.84615 10.929H6.15385C5.99064 10.929 5.83411 10.9967 5.7187 11.1173C5.6033 11.2379 5.53846 11.4014 5.53846 11.5718V16.7144H1.23077Z" fill="#FF5843"/>
<path d="M8.43569 0.188851C8.37853 0.128988 8.31062 0.0814933 8.23586 0.049087C8.16109 0.0166808 8.08094 0 8 0C7.91906 0 7.83891 0.0166808 7.76414 0.049087C7.68938 0.0814933 7.62147 0.128988 7.56431 0.188851L0.179693 7.90264C0.122583 7.96245 0.077318 8.03343 0.0464851 8.11152C0.0156523 8.18961 -0.000143446 8.27329 9.81532e-07 8.35776V17.3572C9.81532e-07 17.5277 0.0648359 17.6912 0.180243 17.8117C0.29565 17.9323 0.452175 18 0.615385 18H6.15385C6.31706 18 6.47358 17.9323 6.58899 17.8117C6.7044 17.6912 6.76923 17.5277 6.76923 17.3572V12.2147H9.23077V17.3572C9.23077 17.5277 9.2956 17.6912 9.41101 17.8117C9.52642 17.9323 9.68294 18 9.84615 18H15.3846C15.5478 18 15.7044 17.9323 15.8198 17.8117C15.9352 17.6912 16 17.5277 16 17.3572V8.35776C16.0001 8.27329 15.9843 8.18961 15.9535 8.11152C15.9227 8.03343 15.8774 7.96245 15.8203 7.90264L14.1538 6.16318V1.9296C14.1538 1.75911 14.089 1.59561 13.9736 1.47506C13.8582 1.35451 13.7017 1.28678 13.5385 1.28678H12.3077C12.1445 1.28678 11.988 1.35451 11.8725 1.47506C11.7571 1.59561 11.6923 1.75911 11.6923 1.9296V3.59192L8.43569 0.188851ZM1.23077 16.7144V8.62388L8 1.55291L14.7692 8.62388V16.7144H10.4615V11.5718C10.4615 11.4014 10.3967 11.2379 10.2813 11.1173C10.1659 10.9967 10.0094 10.929 9.84615 10.929H6.15385C5.99064 10.929 5.83411 10.9967 5.7187 11.1173C5.6033 11.2379 5.53846 11.4014 5.53846 11.5718V16.7144H1.23077Z" fill="#FF5843"/>
</g>
<defs>
<clipPath id="clip0_145_1764">
<rect width="16" height="18" fill="white"/>
</clipPath>
</defs>
</svg>
