<svg width="72" height="15" viewBox="0 0 72 15" fill="none" xmlns="http://www.w3.org/2000/svg">
<mask id="mask0_145_132" style="mask-type:luminance" maskUnits="userSpaceOnUse" x="0" y="1" width="20" height="14">
<path fill-rule="evenodd" clip-rule="evenodd" d="M0.060791 1.22876L9.56997 14.1553L19.0792 1.22876H0.060791Z" fill="white"/>
</mask>
<g mask="url(#mask0_145_132)">
<path fill-rule="evenodd" clip-rule="evenodd" d="M9.56895 1.22876C1.72387 1.22876 -4.69482 7.0457 -4.69482 14.1553C-4.69482 21.2649 1.72387 27.0818 9.56895 27.0818C17.414 27.0818 23.8327 21.2649 23.8327 14.1553C23.8327 7.0457 17.414 1.22876 9.56895 1.22876ZM9.56958 23.8502C3.62635 23.8502 -1.12825 19.5414 -1.12825 14.1553C-1.12825 8.76925 3.62635 4.46041 9.56958 4.46041C15.5128 4.46041 20.2674 8.76925 20.2674 14.1553C20.2674 19.5414 15.5128 23.8502 9.56958 23.8502Z" fill="#3F3D56" fill-opacity="0.24"/>
<path fill-rule="evenodd" clip-rule="evenodd" d="M9.56917 4.46021C3.62593 4.46021 -1.12866 8.76905 -1.12866 14.1551C-1.12866 19.5412 3.62593 23.85 9.56917 23.85C15.5124 23.85 20.267 19.5412 20.267 14.1551C20.267 8.76905 15.5124 4.46021 9.56917 4.46021ZM9.56999 20.6184C5.64745 20.6184 2.4381 17.7099 2.4381 14.1551C2.4381 10.6004 5.64745 7.69188 9.56999 7.69188C13.4925 7.69188 16.7019 10.6004 16.7019 14.1551C16.7019 17.7099 13.4925 20.6184 9.56999 20.6184Z" fill="#00513D"/>
<path fill-rule="evenodd" clip-rule="evenodd" d="M9.56768 7.69189C5.64514 7.69189 2.43579 10.6004 2.43579 14.1552C2.43579 17.71 5.64514 20.6184 9.56768 20.6184C13.4902 20.6184 16.6996 17.71 16.6996 14.1552C16.6996 10.6004 13.4902 7.69189 9.56768 7.69189ZM9.56794 17.3868C7.54724 17.3868 6.002 15.9864 6.002 14.1552C6.002 12.3239 7.54724 10.9235 9.56794 10.9235C11.5886 10.9235 13.1339 12.3239 13.1339 14.1552C13.1339 15.9864 11.5886 17.3868 9.56794 17.3868Z" fill="#00513D"/>
<path fill-rule="evenodd" clip-rule="evenodd" d="M9.57034 17.3868C11.5398 17.3868 13.1363 15.94 13.1363 14.1552C13.1363 12.3704 11.5398 10.9236 9.57034 10.9236C7.60092 10.9236 6.00439 12.3704 6.00439 14.1552C6.00439 15.94 7.60092 17.3868 9.57034 17.3868Z" fill="#00513D"/>
</g>
<mask id="mask1_145_132" style="mask-type:luminance" maskUnits="userSpaceOnUse" x="30" y="1" width="16" height="14">
<path fill-rule="evenodd" clip-rule="evenodd" d="M45.2289 14.1553V1.22876L30.9651 14.1553H45.2289Z" fill="white"/>
</mask>
<g mask="url(#mask1_145_132)">
<path fill-rule="evenodd" clip-rule="evenodd" d="M41.6626 1.22876V14.1553H45.2285V1.22876H41.6626Z" fill="#3F3D56" fill-opacity="0.24"/>
<path fill-rule="evenodd" clip-rule="evenodd" d="M38.0981 1.22876V14.1553H41.6641V1.22876H38.0981Z" fill="#3F3D56" fill-opacity="0.24"/>
<path fill-rule="evenodd" clip-rule="evenodd" d="M34.5315 1.22876V14.1553H38.0974V1.22876H34.5315Z" fill="#00513D"/>
<path fill-rule="evenodd" clip-rule="evenodd" d="M30.9651 1.22876V14.1553H34.531V1.22876H30.9651Z" fill="#00513D"/>
</g>
<mask id="mask2_145_132" style="mask-type:luminance" maskUnits="userSpaceOnUse" x="61" y="0" width="11" height="15">
<path fill-rule="evenodd" clip-rule="evenodd" d="M70.1911 1.22882H69.0025V0.151611H64.2479V1.22882H63.0593C62.3461 1.22882 61.8706 1.65971 61.8706 2.30603V13.0781C61.8706 13.7245 62.3461 14.1554 63.0593 14.1554H70.1911C70.9043 14.1554 71.3798 13.7245 71.3798 13.0781V2.30603C71.3798 1.65971 70.9043 1.22882 70.1911 1.22882Z" fill="white"/>
</mask>
<g mask="url(#mask2_145_132)">
<path fill-rule="evenodd" clip-rule="evenodd" d="M61.8711 10.9236V14.1552H71.3803V10.9236H61.8711Z" fill="#00513D"/>
<path fill-rule="evenodd" clip-rule="evenodd" d="M61.8711 7.69189V10.9235H71.3803V7.69189H61.8711Z" fill="#00513D"/>
<path fill-rule="evenodd" clip-rule="evenodd" d="M61.8711 4.46045V7.69208H71.3803V4.46045H61.8711Z" fill="#3F3D56" fill-opacity="0.24"/>
<path fill-rule="evenodd" clip-rule="evenodd" d="M61.8711 1.22876V4.46039H71.3803V1.22876H61.8711Z" fill="#3F3D56" fill-opacity="0.24"/>
<path fill-rule="evenodd" clip-rule="evenodd" d="M64.25 0.151611V1.22882H69.0046V0.151611H64.25Z" fill="#3F3D56" fill-opacity="0.24"/>
</g>
</svg>
