<svg width="16" height="16" viewBox="0 0 16 16" fill="none" xmlns="http://www.w3.org/2000/svg">
<path d="M8.49498 2.00503C8.3637 1.87375 8.18565 1.8 8 1.8C7.81435 1.8 7.6363 1.87375 7.50503 2.00503C7.37375 2.1363 7.3 2.31435 7.3 2.5V7.3H2.5C2.31435 7.3 2.1363 7.37375 2.00503 7.50503C1.87375 7.6363 1.8 7.81435 1.8 8C1.8 8.18565 1.87375 8.3637 2.00503 8.49498C2.1363 8.62625 2.31435 8.7 2.5 8.7H7.3V13.5C7.3 13.6857 7.37375 13.8637 7.50503 13.995C7.6363 14.1263 7.81435 14.2 8 14.2C8.18565 14.2 8.3637 14.1263 8.49498 13.995C8.62625 13.8637 8.7 13.6857 8.7 13.5V8.7H13.5C13.6857 8.7 13.8637 8.62625 13.995 8.49498C14.1263 8.3637 14.2 8.18565 14.2 8C14.2 7.81435 14.1263 7.6363 13.995 7.50503C13.8637 7.37375 13.6857 7.3 13.5 7.3H8.7V2.5C8.7 2.31435 8.62625 2.1363 8.49498 2.00503Z" fill="white" stroke="white" stroke-width="0.4"/>
</svg>
