<svg width="24" height="24" viewBox="0 0 24 24" fill="none" xmlns="http://www.w3.org/2000/svg">
<path d="M4.8 17.4001V13.3981L9.6096 16.1593C10.337 16.577 11.1612 16.7968 12 16.7968C12.8388 16.7968 13.663 16.577 14.3904 16.1593L19.2 13.3993V17.4001C19.2001 17.4789 19.1847 17.557 19.1547 17.6299C19.1246 17.7028 19.0805 17.769 19.0248 17.8249L19.0224 17.8261L19.02 17.8297L19.0116 17.8369L18.984 17.8633L18.888 17.9521C18.7707 18.055 18.6502 18.1542 18.5268 18.2497C18.0958 18.5806 17.6378 18.8748 17.1576 19.1293C15.5694 19.9717 13.7977 20.4086 12 20.4013C10.2023 20.4086 8.43054 19.9717 6.8424 19.1293C6.36262 18.8748 5.90502 18.5806 5.4744 18.2497C5.31605 18.1276 5.1631 17.9987 5.016 17.8633L4.9884 17.8369C4.92959 17.7802 4.88265 17.7124 4.8503 17.6374C4.81796 17.5624 4.80086 17.4817 4.8 17.4001ZM22.4988 10.1209L13.7928 15.1189C13.2472 15.4322 12.6291 15.597 12 15.597C11.3709 15.597 10.7527 15.4322 10.2072 15.1189L2.4 10.6369V16.2001C2.4 16.3592 2.33678 16.5118 2.22426 16.6243C2.11174 16.7368 1.95913 16.8001 1.8 16.8001C1.64087 16.8001 1.48825 16.7368 1.37573 16.6243C1.26321 16.5118 1.2 16.3592 1.2 16.2001V9.60005C1.19994 9.49188 1.22912 9.3857 1.28447 9.29275C1.33982 9.1998 1.41926 9.12355 1.5144 9.07205L10.2072 4.08125C10.7526 3.76761 11.3708 3.60254 12 3.60254C12.6292 3.60254 13.2474 3.76761 13.7928 4.08125L22.4988 9.08045C22.5903 9.13304 22.6663 9.20882 22.7191 9.30015C22.772 9.39148 22.7998 9.49513 22.7998 9.60065C22.7998 9.70617 22.772 9.80983 22.7191 9.90116C22.6663 9.99249 22.5903 10.0683 22.4988 10.1209Z" fill="#707974"/>
</svg>
