<svg width="24" height="24" viewBox="0 0 24 24" fill="none" xmlns="http://www.w3.org/2000/svg">
<path d="M12.6718 3.07825C12.4936 2.90009 12.252 2.8 12 2.8C11.748 2.8 11.5064 2.90009 11.3282 3.07825C11.1501 3.25641 11.05 3.49804 11.05 3.75V11.05H3.75C3.49804 11.05 3.25641 11.1501 3.07825 11.3282C2.90009 11.5064 2.8 11.748 2.8 12C2.8 12.252 2.90009 12.4936 3.07825 12.6718C3.25641 12.8499 3.49804 12.95 3.75 12.95H11.05V20.25C11.05 20.502 11.1501 20.7436 11.3282 20.9218C11.5064 21.0999 11.748 21.2 12 21.2C12.252 21.2 12.4936 21.0999 12.6718 20.9218C12.8499 20.7436 12.95 20.502 12.95 20.25V12.95H20.25C20.502 12.95 20.7436 12.8499 20.9218 12.6718C21.0999 12.4936 21.2 12.252 21.2 12C21.2 11.748 21.0999 11.5064 20.9218 11.3282C20.7436 11.1501 20.502 11.05 20.25 11.05H12.95V3.75C12.95 3.49804 12.8499 3.25641 12.6718 3.07825Z" fill="#BFC9C3" stroke="#BFC9C3" stroke-width="0.4"/>
</svg>
