<svg width="103" height="104" viewBox="0 0 103 104" fill="none" xmlns="http://www.w3.org/2000/svg">
<path d="M49.4935 0.640625C59.118 0.640625 70.5564 3.33759 78.726 8.42566C86.8955 13.5137 93.4759 20.7892 97.7206 29.4271C101.965 38.0649 103.705 47.7194 102.741 57.2955C101.778 66.8717 98.1505 75.9862 92.2702 83.6055L51.5 52.1406L49.4935 0.640625Z" fill="#CCF1E5"/>
<path d="M92.2702 83.6055C86.9845 90.4543 80.0587 95.8613 72.132 99.3271C64.2053 102.793 55.5332 104.206 46.9162 103.436C38.2992 102.666 30.0151 99.7378 22.8285 94.9214C15.6419 90.105 9.78448 83.5557 5.79688 75.8782C1.80928 68.2007 -0.17996 59.6424 0.0127828 50.9932C0.205526 42.3441 2.57404 33.8829 6.89969 26.3906C11.2253 18.8984 17.3687 12.6166 24.7627 8.12506C32.1568 3.63357 40.5631 1.07713 49.2058 0.691749L51.5 52.1406L92.2702 83.6055Z" fill="#D4EAFE" stroke="#2A96FA"/>
</svg>
