<svg width="18" height="18" viewBox="0 0 18 18" fill="none" xmlns="http://www.w3.org/2000/svg">
<g clip-path="url(#clip0_145_905)">
<path d="M1.79997 17.5499H10.4578C10.9772 17.5502 11.4905 17.438 11.9623 17.2209C12.4341 17.0039 12.8533 16.6872 13.1911 16.2926L17.7828 10.9359C17.879 10.824 17.9461 10.6901 17.9783 10.546C18.0105 10.402 18.0068 10.2522 17.9675 10.11C17.9282 9.96772 17.8545 9.8373 17.7529 9.73023C17.6514 9.62315 17.525 9.5427 17.385 9.49596L15.6138 8.90557C15.1858 8.76642 14.73 8.73494 14.2869 8.8139C13.8437 8.89286 13.4269 9.07982 13.0732 9.35826L10.2067 11.6505L9.65144 10.539C9.35396 9.9399 8.89465 9.43603 8.32553 9.08451C7.75641 8.73298 7.10022 8.54785 6.4313 8.55007H1.79997C0.807287 8.55007 0 9.35736 0 10.35V15.75C0 16.7426 0.807287 17.5499 1.79997 17.5499ZM1.79997 10.35H6.4313C7.11799 10.35 7.73448 10.7307 8.04137 11.3445L8.44366 12.15H4.49993V13.95H9.91244C10.0509 13.9482 10.1871 13.9143 10.3102 13.851L10.3129 13.8501L10.3165 13.8483H10.3192L10.321 13.8474H10.3246L10.3255 13.8465C10.3336 13.8492 10.3282 13.8456 10.3282 13.8456C10.3372 13.8456 10.33 13.8447 10.33 13.8447H10.3309L10.3327 13.8438L10.3354 13.8429L10.3372 13.842L10.339 13.8411L10.3417 13.8402L10.3435 13.8393C10.3462 13.8393 10.3444 13.8384 10.3453 13.8384L10.348 13.8366L10.3498 13.8357L10.3516 13.8348L10.3543 13.8339L10.3561 13.833H10.357L10.3588 13.8321H10.3597L10.3615 13.8312L10.3633 13.8303C10.3714 13.8294 10.366 13.8294 10.366 13.8294L10.3678 13.8285C10.4025 13.8076 10.4356 13.7841 10.4668 13.7583L14.1982 10.773C14.434 10.5858 14.7589 10.5273 15.0442 10.6227L15.5455 10.7901L11.8258 15.1308C11.6547 15.325 11.4443 15.4807 11.2084 15.5875C10.9726 15.6942 10.7167 15.7496 10.4578 15.75H1.79997V10.35ZM12.5998 0.450204H12.5845C12.4378 0.452004 11.6791 0.485303 10.7998 1.08469C9.94394 0.501503 9.20325 0.454704 9.02865 0.451104L9.00165 0.450204H8.99806C8.27717 0.450204 7.59858 0.731899 7.09099 1.24039C6.58159 1.75068 6.2999 2.42837 6.2999 3.15016C6.2999 3.87195 6.58159 4.54964 7.07479 5.04373L10.1473 8.27108C10.2319 8.35883 10.3333 8.42862 10.4454 8.47626C10.5576 8.52391 10.6782 8.54842 10.8 8.54834C10.9219 8.54825 11.0424 8.52357 11.1545 8.47578C11.2666 8.42798 11.3679 8.35805 11.4523 8.27018L14.5087 5.05903C15.019 4.54964 15.2998 3.87195 15.2998 3.15016C15.2998 2.42837 15.0181 1.75068 14.5096 1.24129C14.2597 0.989786 13.9624 0.790361 13.6348 0.654568C13.3073 0.518775 12.9561 0.449313 12.6016 0.450204H12.5998ZM13.4998 3.15016C13.4998 3.39046 13.4062 3.61635 13.2199 3.80265L10.7998 6.34511L8.36357 3.78645C8.19347 3.61635 8.09987 3.39046 8.09987 3.15016C8.09987 2.90986 8.19347 2.68397 8.36446 2.51297C8.52721 2.34742 8.74882 2.25296 8.98096 2.25017C9.00346 2.25107 9.43275 2.27897 9.94124 2.68667C10.0141 2.74517 10.0879 2.81177 10.1635 2.88646L10.7998 3.52275L11.4361 2.88646C11.5117 2.81177 11.5855 2.74517 11.6584 2.68667C12.1345 2.30417 12.5368 2.25647 12.6052 2.25107C12.7225 2.25105 12.8386 2.27426 12.9469 2.31937C13.0552 2.36448 13.1535 2.43058 13.2361 2.51387C13.4062 2.68397 13.4998 2.90986 13.4998 3.15016Z" fill="#FF7AE2"/>
</g>
<defs>
<clipPath id="clip0_145_905">
<rect width="18" height="17.0997" fill="white" transform="translate(0 0.450195)"/>
</clipPath>
</defs>
</svg>
