<svg width="40" height="40" viewBox="0 0 40 40" fill="none" xmlns="http://www.w3.org/2000/svg">
<g filter="url(#filter0_di_2_2342)">
<rect width="40" height="40" rx="20" fill="#F5F5F5" shape-rendering="crispEdges"/>
<rect x="1" y="1" width="38" height="38" rx="19" stroke="#0076E3" stroke-width="2" shape-rendering="crispEdges"/>
<path d="M27.5 15.1209H25.4285C25.9132 14.3993 26.0999 13.5182 25.9495 12.662C25.799 11.8059 25.3231 11.0411 24.6215 10.528C23.9198 10.0149 23.0468 9.79318 22.1853 9.90934C21.3238 10.0255 20.5407 10.4705 20 11.1512C19.4593 10.4705 18.6762 10.0255 17.8147 9.90934C16.9532 9.79318 16.0802 10.0149 15.3785 10.528C14.6769 11.0411 14.201 11.8059 14.0505 12.662C13.9001 13.5182 14.0868 14.3993 14.5715 15.1209H12.5C12.1023 15.1213 11.721 15.2795 11.4398 15.5607C11.1586 15.8419 11.0004 16.2232 11 16.6209V19.6209C11.0004 20.0186 11.1586 20.3999 11.4398 20.6811C11.721 20.9624 12.1023 21.1205 12.5 21.1209V28.6209C12.5004 29.0186 12.6586 29.3999 12.9398 29.6811C13.221 29.9624 13.6023 30.1205 14 30.1209H26C26.3977 30.1205 26.779 29.9624 27.0602 29.6811C27.3414 29.3999 27.4996 29.0186 27.5 28.6209V21.1209C27.8977 21.1205 28.279 20.9624 28.5602 20.6811C28.8414 20.3999 28.9996 20.0186 29 19.6209V16.6209C28.9996 16.2232 28.8414 15.8419 28.5602 15.5607C28.279 15.2795 27.8977 15.1213 27.5 15.1209ZM20.75 13.2459C20.75 12.8751 20.86 12.5126 21.066 12.2042C21.272 11.8959 21.5649 11.6556 21.9075 11.5136C22.2501 11.3717 22.6271 11.3346 22.9908 11.4069C23.3545 11.4793 23.6886 11.6579 23.9508 11.9201C24.213 12.1823 24.3916 12.5164 24.464 12.8801C24.5363 13.2438 24.4992 13.6208 24.3573 13.9634C24.2154 14.3061 23.975 14.5989 23.6667 14.8049C23.3584 15.0109 22.9958 15.1209 22.625 15.1209H20.75V13.2459ZM17.375 11.3709C17.8721 11.3715 18.3487 11.5692 18.7002 11.9207C19.0517 12.2722 19.2494 12.7488 19.25 13.2459V15.1209H17.375C16.8777 15.1209 16.4008 14.9234 16.0492 14.5717C15.6975 14.2201 15.5 13.7432 15.5 13.2459C15.5 12.7486 15.6975 12.2717 16.0492 11.9201C16.4008 11.5685 16.8777 11.3709 17.375 11.3709ZM12.5 16.6209H19.25V19.6209H12.5V16.6209ZM14 21.1209H19.25V28.6209H14V21.1209ZM26.0007 28.6209H20.75V21.1209H26L26.0007 28.6209ZM20.75 19.6209V16.6209H27.5L27.5007 19.6209H20.75Z" fill="#0076E3"/>
</g>
<defs>
<filter id="filter0_di_2_2342" x="-4" y="-4" width="48" height="48" filterUnits="userSpaceOnUse" color-interpolation-filters="sRGB">
<feFlood flood-opacity="0" result="BackgroundImageFix"/>
<feColorMatrix in="SourceAlpha" type="matrix" values="0 0 0 0 0 0 0 0 0 0 0 0 0 0 0 0 0 0 127 0" result="hardAlpha"/>
<feOffset/>
<feGaussianBlur stdDeviation="2"/>
<feComposite in2="hardAlpha" operator="out"/>
<feColorMatrix type="matrix" values="0 0 0 0 0 0 0 0 0 0 0 0 0 0 0 0 0 0 0.11 0"/>
<feBlend mode="normal" in2="BackgroundImageFix" result="effect1_dropShadow_2_2342"/>
<feBlend mode="normal" in="SourceGraphic" in2="effect1_dropShadow_2_2342" result="shape"/>
<feColorMatrix in="SourceAlpha" type="matrix" values="0 0 0 0 0 0 0 0 0 0 0 0 0 0 0 0 0 0 127 0" result="hardAlpha"/>
<feOffset dy="3"/>
<feGaussianBlur stdDeviation="2"/>
<feComposite in2="hardAlpha" operator="arithmetic" k2="-1" k3="1"/>
<feColorMatrix type="matrix" values="0 0 0 0 1 0 0 0 0 1 0 0 0 0 1 0 0 0 0.52 0"/>
<feBlend mode="normal" in2="shape" result="effect2_innerShadow_2_2342"/>
</filter>
</defs>
</svg>
