<svg width="19" height="22" viewBox="0 0 19 22" fill="none" xmlns="http://www.w3.org/2000/svg">
<g clip-path="url(#clip0_145_388)">
<path d="M5.97826 10.2174C4.94046 10.2174 3.94516 9.80513 3.21132 9.07129C2.47748 8.33745 2.06522 7.34215 2.06522 6.30435V3.17392C2.06522 2.96636 2.14767 2.7673 2.29444 2.62053C2.44121 2.47376 2.64026 2.39131 2.84783 2.39131H3.63043C3.83799 2.39131 4.03705 2.30886 4.18382 2.16209C4.33059 2.01532 4.41304 1.81626 4.41304 1.6087C4.41304 1.40114 4.33059 1.20208 4.18382 1.05531C4.03705 0.908545 3.83799 0.826092 3.63043 0.826092H2.84783C2.22514 0.826092 1.62796 1.07345 1.18766 1.51375C0.74736 1.95406 0.5 2.55123 0.5 3.17392V6.30435C0.501006 7.18849 0.716604 8.05918 1.12828 8.84163C1.53995 9.62408 2.1354 10.2949 2.86348 10.7965C3.56299 11.4132 4.13029 12.1653 4.53113 13.0073C4.93196 13.8493 5.15802 14.7639 5.19565 15.6956C5.19565 17.1486 5.77282 18.542 6.8002 19.5694C7.82757 20.5967 9.22098 21.1739 10.6739 21.1739C12.1268 21.1739 13.5203 20.5967 14.5476 19.5694C15.575 18.542 16.1522 17.1486 16.1522 15.6956V14.8035C16.8899 14.613 17.5328 14.16 17.9605 13.5294C18.3881 12.8988 18.571 12.1339 18.475 11.378C18.379 10.6221 18.0107 9.92725 17.439 9.42357C16.8673 8.9199 16.1315 8.64201 15.3696 8.64201C14.6076 8.64201 13.8719 8.9199 13.3002 9.42357C12.7285 9.92725 12.3601 10.6221 12.2641 11.378C12.1681 12.1339 12.351 12.8988 12.7787 13.5294C13.2063 14.16 13.8492 14.613 14.587 14.8035V15.6956C14.587 16.7335 14.1747 17.7288 13.4408 18.4626C12.707 19.1964 11.7117 19.6087 10.6739 19.6087C9.63611 19.6087 8.64081 19.1964 7.90697 18.4626C7.17313 17.7288 6.76087 16.7335 6.76087 15.6956C6.80048 14.7627 7.02898 13.8475 7.43254 13.0054C7.8361 12.1633 8.40632 11.4119 9.10869 10.7965C9.83388 10.2932 10.4263 9.62158 10.8352 8.83923C11.2441 8.05689 11.4573 7.1871 11.4565 6.30435V3.17392C11.4565 2.55123 11.2092 1.95406 10.7689 1.51375C10.3286 1.07345 9.73137 0.826092 9.10869 0.826092H8.32608C8.11852 0.826092 7.91946 0.908545 7.7727 1.05531C7.62593 1.20208 7.54348 1.40114 7.54348 1.6087C7.54348 1.81626 7.62593 2.01532 7.7727 2.16209C7.91946 2.30886 8.11852 2.39131 8.32608 2.39131H9.10869C9.31625 2.39131 9.51531 2.47376 9.66208 2.62053C9.80885 2.7673 9.8913 2.96636 9.8913 3.17392V6.30435C9.8913 6.81822 9.79009 7.32705 9.59344 7.80181C9.39679 8.27656 9.10856 8.70793 8.7452 9.07129C8.38184 9.43465 7.95047 9.72288 7.47571 9.91953C7.00096 10.1162 6.49213 10.2174 5.97826 10.2174ZM15.3696 13.3478C14.9544 13.3478 14.5563 13.1829 14.2628 12.8894C13.9692 12.5958 13.8043 12.1977 13.8043 11.7826C13.8043 11.3675 13.9692 10.9694 14.2628 10.6758C14.5563 10.3823 14.9544 10.2174 15.3696 10.2174C15.7847 10.2174 16.1828 10.3823 16.4763 10.6758C16.7699 10.9694 16.9348 11.3675 16.9348 11.7826C16.9348 12.1977 16.7699 12.5958 16.4763 12.8894C16.1828 13.1829 15.7847 13.3478 15.3696 13.3478Z" fill="#1ABF97"/>
</g>
<defs>
<clipPath id="clip0_145_388">
<rect width="18" height="20.3478" fill="white" transform="translate(0.5 0.826092)"/>
</clipPath>
</defs>
</svg>
