<svg width="30" height="29" viewBox="0 0 30 29" fill="none" xmlns="http://www.w3.org/2000/svg">
<path d="M7.72726 7.95461C11.7439 7.95461 15 6.32656 15 4.31825C15 2.30994 11.7439 0.681885 7.72726 0.681885C3.71064 0.681885 0.454529 2.30994 0.454529 4.31825C0.454529 6.32656 3.71064 7.95461 7.72726 7.95461Z" stroke="#707974" stroke-width="1.5" stroke-linecap="round" stroke-linejoin="round"/>
<path d="M0.454529 4.31824C0.454529 4.31824 0.454529 7.40086 0.454529 9.40915C0.454529 11.4174 3.71064 13.0455 7.72726 13.0455C11.7438 13.0455 15 11.4174 15 9.40915C15 8.21962 15 4.31824 15 4.31824" stroke="#707974" stroke-width="1.5" stroke-linecap="round" stroke-linejoin="round"/>
<path d="M0.454529 9.40918C0.454529 9.40918 0.454529 12.4918 0.454529 14.5001C0.454529 16.5084 3.71064 18.1365 7.72726 18.1365C11.7438 18.1365 15 16.5084 15 14.5001C15 13.3106 15 9.40918 15 9.40918" stroke="#707974" stroke-width="1.5" stroke-linecap="round" stroke-linejoin="round"/>
<path d="M0.454529 14.5001C0.454529 14.5001 0.454529 17.5827 0.454529 19.591C0.454529 21.5993 3.71064 23.2274 7.72726 23.2274C11.7438 23.2274 15 21.5993 15 19.591C15 18.4015 15 14.5001 15 14.5001" stroke="#707974" stroke-width="1.5" stroke-linecap="round" stroke-linejoin="round"/>
<path d="M0.454529 19.5909C0.454529 19.5909 0.454529 22.6736 0.454529 24.6819C0.454529 26.6901 3.71064 28.3182 7.72726 28.3182C11.7438 28.3182 15 26.6901 15 24.6819C15 23.4923 15 19.5909 15 19.5909" stroke="#707974" stroke-width="1.5" stroke-linecap="round" stroke-linejoin="round"/>
<path d="M22.2727 18.1364C26.2893 18.1364 29.5455 16.5083 29.5455 14.5C29.5455 12.4917 26.2893 10.8636 22.2727 10.8636C18.2561 10.8636 15 12.4917 15 14.5C15 16.5083 18.2561 18.1364 22.2727 18.1364Z" stroke="#707974" stroke-width="1.5" stroke-linecap="round" stroke-linejoin="round"/>
<path d="M15 14.5001C15 14.5001 15 17.5827 15 19.591C15 21.5993 18.2561 23.2274 22.2727 23.2274C26.2893 23.2274 29.5455 21.5993 29.5455 19.591C29.5455 18.4015 29.5455 14.5001 29.5455 14.5001" stroke="#707974" stroke-width="1.5" stroke-linecap="round" stroke-linejoin="round"/>
<path d="M15 19.5909C15 19.5909 15 22.6736 15 24.6819C15 26.6901 18.2561 28.3182 22.2727 28.3182C26.2893 28.3182 29.5455 26.6901 29.5455 24.6819C29.5455 23.4923 29.5455 19.5909 29.5455 19.5909" stroke="#707974" stroke-width="1.5" stroke-linecap="round" stroke-linejoin="round"/>
</svg>
