<svg width="28" height="32" viewBox="0 0 28 32" fill="none" xmlns="http://www.w3.org/2000/svg">
<path d="M14.6283 4.16192L14.478 4.29212L14.6283 4.16192C14.4312 3.9345 14.1573 3.8 13.8644 3.8C13.5716 3.8 13.2976 3.9345 13.1005 4.16192C12.9043 4.38844 12.7979 4.69026 12.7979 5V14.8H4.33259C4.03973 14.8 3.76578 14.9345 3.56872 15.1619C3.37243 15.3884 3.26606 15.6903 3.26606 16C3.26606 16.3097 3.37243 16.6116 3.56872 16.8381C3.76579 17.0655 4.03973 17.2 4.33259 17.2H12.7979V27C12.7979 27.3097 12.9043 27.6116 13.1005 27.8381C13.2976 28.0655 13.5716 28.2 13.8644 28.2C14.1573 28.2 14.4312 28.0655 14.6283 27.8381C14.8246 27.6116 14.931 27.3097 14.931 27V17.2H23.3962C23.6891 17.2 23.9631 17.0655 24.1601 16.8381C24.3564 16.6116 24.4628 16.3097 24.4628 16C24.4628 15.6903 24.3564 15.3884 24.1601 15.1619C23.9631 14.9345 23.6891 14.8 23.3962 14.8H14.931V5C14.931 4.69026 14.8246 4.38844 14.6283 4.16192Z" fill="#BFC9C3" stroke="#BFC9C3" stroke-width="0.4"/>
</svg>
