<svg width="25" height="26" viewBox="0 0 25 26" fill="none" xmlns="http://www.w3.org/2000/svg">
<path d="M21.2891 12.0723H7.00443L15.5542 4.65039C15.6909 4.53076 15.6079 4.30859 15.4273 4.30859H13.2666C13.1714 4.30859 13.0811 4.34277 13.0103 4.40381L3.78421 12.4092C3.69971 12.4824 3.63194 12.573 3.5855 12.6747C3.53905 12.7764 3.51501 12.887 3.51501 12.9988C3.51501 13.1106 3.53905 13.2211 3.5855 13.3229C3.63194 13.4246 3.69971 13.5151 3.78421 13.5884L13.064 21.6426C13.1006 21.6743 13.1446 21.6914 13.1909 21.6914H15.4248C15.6055 21.6914 15.6885 21.4668 15.5518 21.3496L7.00443 13.9277H21.2891C21.3965 13.9277 21.4844 13.8398 21.4844 13.7324V12.2676C21.4844 12.1602 21.3965 12.0723 21.2891 12.0723Z" fill="#707974"/>
<path d="M21.2891 12.0723H7.00443L15.5542 4.65039C15.6909 4.53076 15.6079 4.30859 15.4273 4.30859H13.2666C13.1714 4.30859 13.0811 4.34277 13.0103 4.40381L3.78421 12.4092C3.69971 12.4824 3.63194 12.573 3.5855 12.6747C3.53905 12.7764 3.51501 12.887 3.51501 12.9988C3.51501 13.1106 3.53905 13.2211 3.5855 13.3229C3.63194 13.4246 3.69971 13.5151 3.78421 13.5884L13.064 21.6426C13.1006 21.6743 13.1446 21.6914 13.1909 21.6914H15.4248C15.6055 21.6914 15.6885 21.4668 15.5518 21.3496L7.00443 13.9277H21.2891C21.3965 13.9277 21.4844 13.8398 21.4844 13.7324V12.2676C21.4844 12.1602 21.3965 12.0723 21.2891 12.0723Z" stroke="#707974"/>
</svg>
