<svg width="50" height="50" viewBox="0 0 50 50" fill="none" xmlns="http://www.w3.org/2000/svg">
<g filter="url(#filter0_di_145_908)">
<rect width="50" height="50" rx="25" fill="#F5F5F5" shape-rendering="crispEdges"/>
<rect x="1" y="1" width="48" height="48" rx="24" stroke="#0076E3" stroke-width="2" shape-rendering="crispEdges"/>
<path d="M32.5 20.1209H30.4285C30.9132 19.3993 31.0999 18.5182 30.9495 17.662C30.799 16.8059 30.3231 16.0411 29.6215 15.528C28.9198 15.0149 28.0468 14.7932 27.1853 14.9093C26.3238 15.0255 25.5407 15.4705 25 16.1512C24.4593 15.4705 23.6762 15.0255 22.8147 14.9093C21.9532 14.7932 21.0802 15.0149 20.3785 15.528C19.6769 16.0411 19.201 16.8059 19.0505 17.662C18.9001 18.5182 19.0868 19.3993 19.5715 20.1209H17.5C17.1023 20.1213 16.721 20.2795 16.4398 20.5607C16.1586 20.8419 16.0004 21.2232 16 21.6209V24.6209C16.0004 25.0186 16.1586 25.3999 16.4398 25.6811C16.721 25.9624 17.1023 26.1205 17.5 26.1209V33.6209C17.5004 34.0186 17.6586 34.3999 17.9398 34.6811C18.221 34.9624 18.6023 35.1205 19 35.1209H31C31.3977 35.1205 31.779 34.9624 32.0602 34.6811C32.3414 34.3999 32.4996 34.0186 32.5 33.6209V26.1209C32.8977 26.1205 33.279 25.9624 33.5602 25.6811C33.8414 25.3999 33.9996 25.0186 34 24.6209V21.6209C33.9996 21.2232 33.8414 20.8419 33.5602 20.5607C33.279 20.2795 32.8977 20.1213 32.5 20.1209ZM25.75 18.2459C25.75 17.8751 25.86 17.5126 26.066 17.2042C26.272 16.8959 26.5649 16.6556 26.9075 16.5136C27.2501 16.3717 27.6271 16.3346 27.9908 16.4069C28.3545 16.4793 28.6886 16.6579 28.9508 16.9201C29.213 17.1823 29.3916 17.5164 29.464 17.8801C29.5363 18.2438 29.4992 18.6208 29.3573 18.9634C29.2154 19.3061 28.975 19.5989 28.6667 19.8049C28.3584 20.0109 27.9958 20.1209 27.625 20.1209H25.75V18.2459ZM22.375 16.3709C22.8721 16.3715 23.3487 16.5692 23.7002 16.9207C24.0517 17.2722 24.2494 17.7488 24.25 18.2459V20.1209H22.375C21.8777 20.1209 21.4008 19.9234 21.0492 19.5717C20.6975 19.2201 20.5 18.7432 20.5 18.2459C20.5 17.7486 20.6975 17.2717 21.0492 16.9201C21.4008 16.5685 21.8777 16.3709 22.375 16.3709ZM17.5 21.6209H24.25V24.6209H17.5V21.6209ZM19 26.1209H24.25V33.6209H19V26.1209ZM31.0007 33.6209H25.75V26.1209H31L31.0007 33.6209ZM25.75 24.6209V21.6209H32.5L32.5007 24.6209H25.75Z" fill="#0076E3"/>
</g>
<defs>
<filter id="filter0_di_145_908" x="-4" y="-4" width="58" height="58" filterUnits="userSpaceOnUse" color-interpolation-filters="sRGB">
<feFlood flood-opacity="0" result="BackgroundImageFix"/>
<feColorMatrix in="SourceAlpha" type="matrix" values="0 0 0 0 0 0 0 0 0 0 0 0 0 0 0 0 0 0 127 0" result="hardAlpha"/>
<feOffset/>
<feGaussianBlur stdDeviation="2"/>
<feComposite in2="hardAlpha" operator="out"/>
<feColorMatrix type="matrix" values="0 0 0 0 0 0 0 0 0 0 0 0 0 0 0 0 0 0 0.11 0"/>
<feBlend mode="normal" in2="BackgroundImageFix" result="effect1_dropShadow_145_908"/>
<feBlend mode="normal" in="SourceGraphic" in2="effect1_dropShadow_145_908" result="shape"/>
<feColorMatrix in="SourceAlpha" type="matrix" values="0 0 0 0 0 0 0 0 0 0 0 0 0 0 0 0 0 0 127 0" result="hardAlpha"/>
<feOffset dy="3"/>
<feGaussianBlur stdDeviation="2"/>
<feComposite in2="hardAlpha" operator="arithmetic" k2="-1" k3="1"/>
<feColorMatrix type="matrix" values="0 0 0 0 1 0 0 0 0 1 0 0 0 0 1 0 0 0 0.52 0"/>
<feBlend mode="normal" in2="shape" result="effect2_innerShadow_145_908"/>
</filter>
</defs>
</svg>
