<svg width="18" height="22" viewBox="0 0 18 22" fill="none" xmlns="http://www.w3.org/2000/svg">
<g clip-path="url(#clip0_145_922)">
<path d="M5.47826 10.2175C4.44046 10.2175 3.44516 9.80521 2.71132 9.07137C1.97748 8.33753 1.56522 7.34223 1.56522 6.30443V3.174C1.56522 2.96644 1.64767 2.76738 1.79444 2.62061C1.94121 2.47384 2.14026 2.39139 2.34783 2.39139H3.13043C3.33799 2.39139 3.53705 2.30894 3.68382 2.16217C3.83059 2.0154 3.91304 1.81634 3.91304 1.60878C3.91304 1.40122 3.83059 1.20216 3.68382 1.05539C3.53705 0.908625 3.33799 0.826172 3.13043 0.826172H2.34783C1.72514 0.826172 1.12796 1.07353 0.687662 1.51383C0.24736 1.95414 0 2.55131 0 3.174V6.30443C0.00100598 7.18857 0.216604 8.05926 0.628278 8.84171C1.03995 9.62416 1.6354 10.295 2.36348 10.7966C3.06299 11.4133 3.63029 12.1654 4.03113 13.0074C4.43196 13.8494 4.65802 14.7639 4.69565 15.6957C4.69565 17.1487 5.27282 18.5421 6.3002 19.5694C7.32757 20.5968 8.72098 21.174 10.1739 21.174C11.6268 21.174 13.0203 20.5968 14.0476 19.5694C15.075 18.5421 15.6522 17.1487 15.6522 15.6957V14.8036C16.3899 14.6131 17.0328 14.1601 17.4605 13.5295C17.8881 12.8989 18.071 12.1339 17.975 11.3781C17.879 10.6222 17.5107 9.92733 16.939 9.42365C16.3673 8.91998 15.6315 8.64209 14.8696 8.64209C14.1076 8.64209 13.3719 8.91998 12.8002 9.42365C12.2285 9.92733 11.8601 10.6222 11.7641 11.3781C11.6681 12.1339 11.851 12.8989 12.2787 13.5295C12.7063 14.1601 13.3492 14.6131 14.087 14.8036V15.6957C14.087 16.7335 13.6747 17.7288 12.9408 18.4627C12.207 19.1965 11.2117 19.6088 10.1739 19.6088C9.13611 19.6088 8.14081 19.1965 7.40697 18.4627C6.67313 17.7288 6.26087 16.7335 6.26087 15.6957C6.30048 14.7628 6.52898 13.8476 6.93254 13.0055C7.3361 12.1634 7.90632 11.4119 8.60869 10.7966C9.33388 10.2933 9.92628 9.62166 10.3352 8.83931C10.7441 8.05697 10.9573 7.18718 10.9565 6.30443V3.174C10.9565 2.55131 10.7092 1.95414 10.2689 1.51383C9.82855 1.07353 9.23137 0.826172 8.60869 0.826172H7.82608C7.61852 0.826172 7.41946 0.908625 7.2727 1.05539C7.12593 1.20216 7.04348 1.40122 7.04348 1.60878C7.04348 1.81634 7.12593 2.0154 7.2727 2.16217C7.41946 2.30894 7.61852 2.39139 7.82608 2.39139H8.60869C8.81625 2.39139 9.01531 2.47384 9.16208 2.62061C9.30885 2.76738 9.3913 2.96644 9.3913 3.174V6.30443C9.3913 6.8183 9.29009 7.32713 9.09344 7.80189C8.89679 8.27664 8.60856 8.70801 8.2452 9.07137C7.88184 9.43473 7.45047 9.72296 6.97571 9.91961C6.50096 10.1163 5.99213 10.2175 5.47826 10.2175ZM14.8696 13.3479C14.4544 13.3479 14.0563 13.183 13.7628 12.8895C13.4692 12.5959 13.3043 12.1978 13.3043 11.7827C13.3043 11.3676 13.4692 10.9694 13.7628 10.6759C14.0563 10.3824 14.4544 10.2175 14.8696 10.2175C15.2847 10.2175 15.6828 10.3824 15.9763 10.6759C16.2699 10.9694 16.4348 11.3676 16.4348 11.7827C16.4348 12.1978 16.2699 12.5959 15.9763 12.8895C15.6828 13.183 15.2847 13.3479 14.8696 13.3479Z" fill="#1ABF97"/>
</g>
<defs>
<clipPath id="clip0_145_922">
<rect width="18" height="20.3478" fill="white" transform="translate(0 0.826172)"/>
</clipPath>
</defs>
</svg>
