<svg width="18" height="18" viewBox="0 0 18 18" fill="none" xmlns="http://www.w3.org/2000/svg">
<g clip-path="url(#clip0_145_1248)">
<path d="M1.79997 17.5498H10.4578C10.9772 17.5501 11.4905 17.4378 11.9623 17.2208C12.4341 17.0038 12.8533 16.6871 13.1911 16.2925L17.7828 10.9358C17.879 10.8238 17.9461 10.6899 17.9783 10.5459C18.0105 10.4019 18.0068 10.2521 17.9675 10.1099C17.9282 9.96759 17.8545 9.83718 17.7529 9.7301C17.6514 9.62303 17.525 9.54257 17.385 9.49584L15.6138 8.90545C15.1858 8.7663 14.73 8.73482 14.2869 8.81377C13.8437 8.89273 13.4269 9.0797 13.0732 9.35814L10.2067 11.6504L9.65144 10.5389C9.35396 9.93978 8.89465 9.43591 8.32553 9.08439C7.75641 8.73286 7.10022 8.54773 6.4313 8.54995H1.79997C0.807287 8.54995 0 9.35724 0 10.3499V15.7498C0 16.7425 0.807287 17.5498 1.79997 17.5498ZM1.79997 10.3499H6.4313C7.11799 10.3499 7.73448 10.7306 8.04137 11.3444L8.44366 12.1499H4.49993V13.9499H9.91244C10.0509 13.948 10.1871 13.9141 10.3102 13.8509L10.3129 13.85L10.3165 13.8482H10.3192L10.321 13.8473H10.3246L10.3255 13.8464C10.3336 13.8491 10.3282 13.8455 10.3282 13.8455C10.3372 13.8455 10.33 13.8446 10.33 13.8446H10.3309L10.3327 13.8437L10.3354 13.8428L10.3372 13.8419L10.339 13.841L10.3417 13.8401L10.3435 13.8392C10.3462 13.8392 10.3444 13.8383 10.3453 13.8383L10.348 13.8365L10.3498 13.8356L10.3516 13.8347L10.3543 13.8338L10.3561 13.8329H10.357L10.3588 13.832H10.3597L10.3615 13.8311L10.3633 13.8302C10.3714 13.8293 10.366 13.8293 10.366 13.8293L10.3678 13.8284C10.4025 13.8074 10.4356 13.784 10.4668 13.7582L14.1982 10.7729C14.434 10.5857 14.7589 10.5272 15.0442 10.6226L15.5455 10.79L11.8258 15.1306C11.6547 15.3249 11.4443 15.4806 11.2084 15.5874C10.9726 15.6941 10.7167 15.7495 10.4578 15.7498H1.79997V10.3499ZM12.5998 0.450082H12.5845C12.4378 0.451882 11.6791 0.485181 10.7998 1.08457C9.94394 0.501381 9.20325 0.454582 9.02865 0.450982L9.00165 0.450082H8.99806C8.27717 0.450082 7.59858 0.731777 7.09099 1.24027C6.58159 1.75056 6.2999 2.42825 6.2999 3.15004C6.2999 3.87183 6.58159 4.54952 7.07479 5.04361L10.1473 8.27096C10.2319 8.35871 10.3333 8.4285 10.4454 8.47614C10.5576 8.52378 10.6782 8.5483 10.8 8.54821C10.9219 8.54813 11.0424 8.52345 11.1545 8.47565C11.2666 8.42786 11.3679 8.35793 11.4523 8.27006L14.5087 5.05891C15.019 4.54952 15.2998 3.87183 15.2998 3.15004C15.2998 2.42825 15.0181 1.75056 14.5096 1.24117C14.2597 0.989664 13.9624 0.790239 13.6348 0.654446C13.3073 0.518653 12.9561 0.449191 12.6016 0.450082H12.5998ZM13.4998 3.15004C13.4998 3.39033 13.4062 3.61623 13.2199 3.80253L10.7998 6.34499L8.36357 3.78633C8.19347 3.61623 8.09987 3.39033 8.09987 3.15004C8.09987 2.90974 8.19347 2.68385 8.36446 2.51285C8.52721 2.3473 8.74882 2.25283 8.98096 2.25005C9.00346 2.25095 9.43275 2.27885 9.94124 2.68655C10.0141 2.74504 10.0879 2.81164 10.1635 2.88634L10.7998 3.52263L11.4361 2.88634C11.5117 2.81164 11.5855 2.74504 11.6584 2.68655C12.1345 2.30405 12.5368 2.25635 12.6052 2.25095C12.7225 2.25093 12.8386 2.27414 12.9469 2.31925C13.0552 2.36435 13.1535 2.43046 13.2361 2.51375C13.4062 2.68385 13.4998 2.90974 13.4998 3.15004Z" fill="#FF7AE2"/>
</g>
<defs>
<clipPath id="clip0_145_1248">
<rect width="18" height="17.0997" fill="white" transform="translate(0 0.450073)"/>
</clipPath>
</defs>
</svg>
