<svg width="73" height="15" viewBox="0 0 73 15" fill="none" xmlns="http://www.w3.org/2000/svg">
<mask id="mask0_41_2664" style="mask-type:luminance" maskUnits="userSpaceOnUse" x="0" y="1" width="20" height="14">
<path fill-rule="evenodd" clip-rule="evenodd" d="M0.230774 1.4751L9.86187 14.5674L19.493 1.4751H0.230774Z" fill="white"/>
</mask>
<g mask="url(#mask0_41_2664)">
<path fill-rule="evenodd" clip-rule="evenodd" d="M9.86127 1.4751C1.91562 1.4751 -4.58537 7.36662 -4.58537 14.5674C-4.58537 21.7681 1.91562 27.6596 9.86127 27.6596C17.8069 27.6596 24.3079 21.7681 24.3079 14.5674C24.3079 7.36662 17.8069 1.4751 9.86127 1.4751ZM9.86127 24.3866C3.84183 24.3866 -0.973712 20.0225 -0.973712 14.5674C-0.973712 9.11225 3.84183 4.74816 9.86127 4.74816C15.8807 4.74816 20.6962 9.11225 20.6962 14.5674C20.6962 20.0225 15.8807 24.3866 9.86127 24.3866Z" fill="#3F3D56" fill-opacity="0.24"/>
<path fill-rule="evenodd" clip-rule="evenodd" d="M9.86126 4.74805C3.84182 4.74805 -0.973724 9.11214 -0.973724 14.5672C-0.973724 20.0224 3.84182 24.3864 9.86126 24.3864C15.8807 24.3864 20.6962 20.0224 20.6962 14.5672C20.6962 9.11214 15.8807 4.74805 9.86126 4.74805ZM9.86126 21.1134C5.88843 21.1134 2.63794 18.1676 2.63794 14.5672C2.63794 10.9669 5.88843 8.02111 9.86126 8.02111C13.8341 8.02111 17.0846 10.9669 17.0846 14.5672C17.0846 18.1676 13.8341 21.1134 9.86126 21.1134Z" fill="#00513D"/>
<path fill-rule="evenodd" clip-rule="evenodd" d="M9.86123 8.021C5.8884 8.021 2.63791 10.9668 2.63791 14.5671C2.63791 18.1675 5.8884 21.1133 9.86123 21.1133C13.8341 21.1133 17.0845 18.1675 17.0845 14.5671C17.0845 10.9668 13.8341 8.021 9.86123 8.021ZM9.86123 17.8402C7.81462 17.8402 6.24957 16.4219 6.24957 14.5671C6.24957 12.7124 7.81462 11.2941 9.86123 11.2941C11.9078 11.2941 13.4729 12.7124 13.4729 14.5671C13.4729 16.4219 11.9078 17.8402 9.86123 17.8402Z" fill="#00513D"/>
<path fill-rule="evenodd" clip-rule="evenodd" d="M9.86226 17.8406C11.8569 17.8406 13.4739 16.3752 13.4739 14.5675C13.4739 12.7598 11.8569 11.2944 9.86226 11.2944C7.86759 11.2944 6.2506 12.7598 6.2506 14.5675C6.2506 16.3752 7.86759 17.8406 9.86226 17.8406Z" fill="#00513D"/>
</g>
<mask id="mask1_41_2664" style="mask-type:luminance" maskUnits="userSpaceOnUse" x="31" y="1" width="15" height="14">
<path fill-rule="evenodd" clip-rule="evenodd" d="M45.979 14.5674V1.4751L31.5323 14.5674H45.979Z" fill="white"/>
</mask>
<g mask="url(#mask1_41_2664)">
<path fill-rule="evenodd" clip-rule="evenodd" d="M42.3673 1.4751V14.5674H45.979V1.4751H42.3673Z" fill="#3F3D56" fill-opacity="0.24"/>
<path fill-rule="evenodd" clip-rule="evenodd" d="M38.7557 1.4751V14.5674H42.3673V1.4751H38.7557Z" fill="#3F3D56" fill-opacity="0.24"/>
<path fill-rule="evenodd" clip-rule="evenodd" d="M35.144 1.4751V14.5674H38.7557V1.4751H35.144Z" fill="#00513D"/>
<path fill-rule="evenodd" clip-rule="evenodd" d="M31.5323 1.4751V14.5674H35.144V1.4751H31.5323Z" fill="#00513D"/>
</g>
<mask id="mask2_41_2664" style="mask-type:luminance" maskUnits="userSpaceOnUse" x="62" y="0" width="11" height="15">
<path fill-rule="evenodd" clip-rule="evenodd" d="M71.26 1.4753H70.0562V0.384277H65.2406V1.4753H64.0367C63.3144 1.4753 62.8328 1.91171 62.8328 2.56632V13.4765C62.8328 14.1312 63.3144 14.5676 64.0367 14.5676H71.26C71.9824 14.5676 72.4639 14.1312 72.4639 13.4765V2.56632C72.4639 1.91171 71.9824 1.4753 71.26 1.4753Z" fill="white"/>
</mask>
<g mask="url(#mask2_41_2664)">
<path fill-rule="evenodd" clip-rule="evenodd" d="M62.8327 11.2944V14.5675H72.4638V11.2944H62.8327Z" fill="#00513D"/>
<path fill-rule="evenodd" clip-rule="evenodd" d="M62.8327 8.02148V11.2946H72.4638V8.02148H62.8327Z" fill="#00513D"/>
<path fill-rule="evenodd" clip-rule="evenodd" d="M62.8327 4.74805V8.02111H72.4638V4.74805H62.8327Z" fill="#3F3D56" fill-opacity="0.24"/>
<path fill-rule="evenodd" clip-rule="evenodd" d="M62.8327 1.4751V4.74816H72.4638V1.4751H62.8327Z" fill="#3F3D56" fill-opacity="0.24"/>
<path fill-rule="evenodd" clip-rule="evenodd" d="M65.241 0.384277V1.4753H70.0565V0.384277H65.241Z" fill="#3F3D56" fill-opacity="0.24"/>
</g>
</svg>
