<svg width="172" height="130" viewBox="0 0 172 130" fill="none" xmlns="http://www.w3.org/2000/svg">
<path fill-rule="evenodd" clip-rule="evenodd" d="M151.574 46.532C151.718 46.829 152.267 46.919 152.627 46.982C155.561 47.504 168.278 47.774 169.502 46.721C170.573 45.821 169.979 31.115 168.935 30.521C167.585 29.72 152.861 29.567 151.835 30.386C151.088 31.007 150.62 44.453 151.574 46.532ZM152.06 30.575C152.879 29.891 167.261 30.404 168.557 31.034C169.25 32.888 169.7 44.534 169.025 46.19C167.927 46.946 154.472 46.919 152.123 46.19C151.205 43.985 151.547 31.007 152.06 30.575ZM115.781 29C115.424 29.6106 114.942 30.1387 114.366 30.5498C113.791 30.9608 113.135 31.2455 112.442 31.385C112.42 31.3795 112.398 31.379 112.377 31.3835C112.355 31.388 112.335 31.3973 112.318 31.4107C112.3 31.4242 112.286 31.4414 112.277 31.4612C112.267 31.4809 112.262 31.5025 112.262 31.5245C112.262 31.5464 112.267 31.5681 112.277 31.5878C112.286 31.6075 112.3 31.6248 112.318 31.6382C112.335 31.6517 112.355 31.661 112.377 31.6655C112.398 31.6699 112.42 31.6694 112.442 31.664C114.026 32.078 116.087 30.638 116.087 29.054C116.094 29.0134 116.084 28.9716 116.061 28.9379C116.037 28.9041 116.001 28.8811 115.961 28.874C115.92 28.8668 115.878 28.8761 115.844 28.8997C115.811 28.9233 115.788 28.9594 115.781 29ZM108.428 20.945V21.845C108.428 21.9643 108.475 22.0788 108.559 22.1632C108.644 22.2476 108.758 22.295 108.878 22.295C108.996 22.2927 109.109 22.2445 109.193 22.1606C109.277 22.0767 109.325 21.9636 109.328 21.845V20.945C109.328 20.8256 109.28 20.7112 109.196 20.6268C109.111 20.5424 108.997 20.495 108.878 20.495C108.758 20.495 108.644 20.5424 108.559 20.6268C108.475 20.7112 108.428 20.8256 108.428 20.945ZM117.401 21.8C117.401 21.9193 117.448 22.0338 117.532 22.1182C117.617 22.2026 117.731 22.25 117.851 22.25C117.97 22.25 118.084 22.2026 118.169 22.1182C118.253 22.0338 118.301 21.9193 118.301 21.8V20.684C118.301 20.5646 118.253 20.4502 118.169 20.3658C118.084 20.2814 117.97 20.234 117.851 20.234C117.731 20.234 117.617 20.2814 117.532 20.3658C117.448 20.4502 117.401 20.5646 117.401 20.684C117.365 21.071 117.401 21.521 117.401 21.8Z" fill="#1CA380"/>
<path fill-rule="evenodd" clip-rule="evenodd" d="M169.583 86.9061C169.524 86.8057 169.44 86.7221 169.34 86.6631C168.566 86.2851 164.354 86.4741 163.481 86.5101C163.634 62.9031 151.196 48.1791 133.142 43.9581C129.83 43.1841 129.821 43.1301 129.731 43.1841L129.119 41.501C130.847 41.447 132.26 40.1151 133.844 40.3851C135.041 40.583 135.644 41.6451 136.823 42.0951C138.821 42.8511 142.376 41.69 143.465 39.791C144.023 38.801 143.528 37.775 143.879 37.091C144.509 36.542 146.3 35.66 146.813 35.021C147.866 33.7071 147.911 30.764 147.434 29.171C146.573 27.3684 145.4 25.7322 143.969 24.338C142.412 22.8382 141.032 21.1654 139.856 19.352C138.407 16.463 138.353 12.467 137.156 9.45205C135.836 6.72977 133.794 4.42268 131.252 2.78305C128.769 1.02919 125.775 0.146292 122.738 0.272046C119.903 0.452046 118.796 1.65805 117.473 2.07205C116.15 2.48605 115.871 2.07205 113.72 3.01705C112.866 3.53743 112.105 4.19762 111.47 4.97005C111.2 5.25805 111.218 5.27605 110.759 5.29405C110.264 5.25687 109.768 5.25687 109.274 5.29405C108.431 5.48107 107.625 5.80648 106.889 6.25705C101.876 9.26305 103.226 15.311 101.336 19.757C100.049 22.781 96.4667 25.6881 96.1607 28.8471C96.0523 30.2996 96.3647 31.7525 97.0607 33.0321C99.2477 36.8751 102.389 33.8601 104.018 36.209C104.531 36.9471 104.918 37.667 105.872 37.8111C107.087 37.973 108.743 37.0101 109.733 36.299C109.941 36.5416 110.176 36.7591 110.435 36.9471C111.312 37.5385 112.254 38.0277 113.243 38.405L110.957 41.6C106.673 41.114 100.094 42.5 95.8547 43.805C95.7017 42.725 94.3697 33.806 93.3617 33.3741C91.9667 32.7621 77.3237 34.463 76.4327 35.426C75.7757 36.128 76.9547 49.493 78.2327 51.4911C78.4217 51.7971 79.0697 51.806 79.4297 51.815C77.3237 53.2551 75.2897 54.7131 74.5607 55.2441C73.9937 53.2821 71.0147 42.905 69.9167 41.204C69.6017 40.709 69.3137 40.718 67.8647 41.204C67.0388 37.0832 65.9933 33.0094 64.7327 29C65.2054 28.223 65.5831 27.3921 65.8577 26.525C66.1931 25.1518 66.2421 23.7241 66.0017 22.331C67.0997 22.7001 73.6607 24.5 74.7227 23.978C75.008 23.7745 75.2195 23.484 75.3257 23.15C76.4867 20.612 78.4757 11.945 78.6287 9.20005C78.6917 8.84856 78.6313 8.48609 78.4577 8.17405C77.4047 7.07605 63.2387 2.99905 62.0417 3.53905C61.3127 3.87205 59.3417 10.343 59.1347 11.108C57.4157 16.877 58.2887 15.6081 57.3347 15.9411C56.2367 16.3281 55.2917 18.641 54.9047 19.712C54.5177 20.7831 54.1127 22.223 54.5717 23.069C54.3853 23.4131 54.3103 23.8066 54.3571 24.1951C54.4038 24.5836 54.57 24.948 54.8327 25.238C54.5465 25.5571 54.3599 25.9529 54.2959 26.3767C54.232 26.8005 54.2934 27.2338 54.4727 27.6231C54.7337 28.4421 56.3627 28.982 57.1727 29.216C56.5332 30.9394 56.0012 32.7008 55.5797 34.49C54.8618 37.2665 54.288 40.0783 53.8607 42.914C53.5945 44.2921 53.5068 45.6986 53.5997 47.0991L52.1237 47.765C52.0669 47.7911 52.0189 47.833 51.9853 47.8856C51.9518 47.9383 51.9342 47.9996 51.9347 48.062C51.9347 48.062 52.2137 58.9701 55.8047 68.0331C60.1427 79.0041 67.2797 82.6761 78.1427 78.5721C78.2406 79.4333 78.4525 80.2776 78.7727 81.0831C78.9347 81.3711 79.4837 81.4251 79.8527 81.4611C83.0478 81.5657 86.2463 81.4665 89.4287 81.1641L92.1287 98.2641C91.3997 100.37 83.1287 124.364 83.2457 126.596C83.2457 126.83 83.3357 127.01 83.7227 127.19C86.1077 128.297 108.707 131.249 109.562 128.783C109.778 128.18 110.3 124.337 110.399 123.608L123.116 122.204L135.239 123.005C135.369 124.219 135.586 125.422 135.887 126.605C135.995 126.875 136.121 127.019 136.436 126.992C137.633 126.875 144.014 125.723 145.778 125.39C152.546 124.112 152.393 124.004 152.195 123.338C151.718 121.763 147.29 109.478 145.562 103.745C148.09 104.015 150.639 104.015 153.167 103.745C153.194 103.843 153.245 103.932 153.316 104.004C153.387 104.076 153.475 104.13 153.572 104.159C155.219 104.762 169.934 103.925 171.14 102.719C172.229 101.756 170.402 88.2741 169.583 86.9061ZM62.0597 3.92605C62.1587 3.77305 62.1227 3.71005 62.9147 3.82705C66.2177 4.29505 77.0177 7.77805 77.9537 8.59705C78.1337 10.658 75.4607 21.971 74.4077 23.339C73.6427 23.6 68.5667 22.3041 67.7837 22.0971C61.8257 20.5401 62.0597 20.297 60.7007 19.982C59.9987 19.739 59.9267 19.73 59.9447 19.6311C59.9469 19.6088 59.9574 19.5881 59.974 19.5732C59.9907 19.5582 60.0123 19.5499 60.0347 19.55C60.8447 19.55 63.0137 19.487 63.5447 18.857C63.6619 18.7289 63.7494 18.5765 63.8009 18.4107C63.8523 18.2448 63.8665 18.0697 63.8425 17.8977C63.8184 17.7258 63.7566 17.5612 63.6616 17.4159C63.5665 17.2706 63.4406 17.148 63.2927 17.057C62.136 16.5936 60.9271 16.2733 59.6927 16.103C59.3237 16.031 58.8737 15.905 58.4237 15.851C59.0447 13.043 61.0967 5.42005 62.0597 3.92605ZM54.3287 46.802V45.4071C54.4097 43.6971 55.2287 39.2061 55.4717 37.973C55.8677 35.9751 55.9577 35.5251 57.1097 31.187C57.1097 31.07 57.8027 29.135 57.8027 29.135C57.8151 29.1015 57.8202 29.0656 57.8177 29.0299C57.8152 28.9941 57.8051 28.9593 57.788 28.9278C57.771 28.8963 57.7474 28.8688 57.7189 28.8471C57.6904 28.8254 57.6576 28.8101 57.6227 28.802C57.5237 28.802 55.1837 28.2261 54.9227 27.4791C54.6617 26.7321 54.6077 25.8321 55.2647 25.4361C55.2889 25.4185 55.3085 25.3955 55.3221 25.3689C55.3357 25.3423 55.3427 25.3129 55.3427 25.283C55.3427 25.2532 55.3357 25.2238 55.3221 25.1972C55.3085 25.1706 55.2889 25.1476 55.2647 25.1301C54.9771 24.8939 54.7835 24.5626 54.7192 24.1961C54.6548 23.8295 54.7238 23.4521 54.9137 23.132C55.1207 22.709 54.0137 22.916 55.3277 19.883C55.6607 19.136 56.7857 16.841 57.5507 16.589C58.2281 16.523 58.9118 16.5996 59.5577 16.814C60.6858 16.9917 61.7946 17.275 62.8697 17.66C62.9381 17.6968 62.997 17.7488 63.042 17.8121C63.087 17.8754 63.1167 17.9482 63.1289 18.0248C63.1411 18.1015 63.1354 18.1799 63.1123 18.254C63.0892 18.3281 63.0493 18.3959 62.9957 18.452C62.6003 18.6761 62.1671 18.8256 61.7177 18.893C58.8827 19.451 59.3867 18.83 59.0177 19.793C57.9347 19.7295 56.852 19.9238 55.8587 20.3601C55.4717 20.4411 55.6337 20.6931 55.9127 20.6481C57.1185 20.2529 58.4081 20.1876 59.6477 20.459C60.3669 20.5905 61.0699 20.7987 61.7447 21.08C62.3567 21.3286 62.8999 21.7206 63.3287 22.2231C63.4053 22.4134 63.4338 22.6198 63.4119 22.8238C63.3899 23.0278 63.3181 23.2233 63.2027 23.393C62.9867 23.726 61.9427 23.501 61.5467 23.393C61.0067 23.2311 60.4397 23.0961 59.9087 22.925C59.1617 22.691 59.2427 22.628 59.0087 22.646C58.1832 22.763 57.3758 22.9837 56.6057 23.303C56.5839 23.3055 56.563 23.313 56.5445 23.3248C56.526 23.3366 56.5105 23.3525 56.4991 23.3712C56.4877 23.3899 56.4807 23.411 56.4787 23.4328C56.4767 23.4547 56.4797 23.4767 56.4874 23.4972C56.4952 23.5177 56.5076 23.5361 56.5236 23.5511C56.5395 23.5661 56.5588 23.5773 56.5797 23.5837C56.6007 23.5902 56.6228 23.5918 56.6445 23.5884C56.6661 23.5849 56.6867 23.5766 56.7047 23.564C57.394 23.3697 58.0985 23.2342 58.8107 23.159C59.2157 23.159 58.9547 23.159 59.9717 23.564C60.4307 23.735 60.8717 23.87 61.3577 24.032C61.6703 24.1392 61.993 24.2146 62.3207 24.257C62.8967 24.797 63.3107 26.057 62.5367 26.282C62.2326 26.3345 61.9198 26.297 61.6367 26.1741C59.5757 25.4991 60.9707 25.0131 56.4977 25.931C56.4611 25.9356 56.4276 25.954 56.4042 25.9824C56.3807 26.0109 56.3691 26.0473 56.3717 26.084C56.3717 26.318 56.5247 26.174 58.9997 26.084C59.2989 26.054 59.6005 26.054 59.8997 26.084C60.6737 26.48 61.8257 27.1551 62.7167 26.8941C63.8057 26.543 63.7697 25.3371 63.0677 24.455C62.8157 24.149 62.7887 24.239 63.0047 24.203C63.1626 24.1859 63.3153 24.1363 63.4532 24.0573C63.591 23.9783 63.7111 23.8717 63.8057 23.744C64.0188 23.45 64.138 23.0984 64.1477 22.7354C64.1573 22.3724 64.0569 22.015 63.8597 21.7101L65.3717 22.1601C65.6711 23.554 65.6464 24.9981 65.2997 26.3811C65.2032 26.7187 65.0767 27.047 64.9217 27.3621C64.2647 28.7481 64.0217 28.7931 64.1027 29.0541C65.3533 33.1206 66.3838 37.2516 67.1897 41.429C63.7967 42.617 57.5777 45.3531 54.3287 46.802ZM125.546 109.343C129.398 109.505 137.678 109.802 141.476 109.685C141.215 110.819 141.053 111.539 141.008 111.701C139.199 111.701 127.508 109.676 125.546 109.343ZM142.934 108.884C140.522 109.451 109.211 108.227 106.529 107.084C106.808 105.068 109.436 93.7371 109.967 91.4241C112.329 92.1472 114.786 92.5112 117.257 92.5041C118.157 92.9721 119.642 93.7821 120.533 94.2051C120.434 94.9701 120.191 96.7791 120.731 97.3191C121.271 97.8591 133.7 102.422 144.599 103.7C144.159 105.463 143.603 107.195 142.934 108.884ZM109.679 87.2211C109.264 87.0953 108.881 86.8837 108.554 86.6001C108.32 86.3481 108.401 85.5831 108.554 85.2231C108.637 85.0481 108.786 84.9125 108.968 84.8451C109.187 84.7495 109.422 84.6917 109.661 84.6741C109.732 84.6724 109.801 84.6489 109.859 84.6068C109.917 84.5647 109.961 84.506 109.984 84.4385C110.008 84.3709 110.01 84.2978 109.991 84.229C109.971 84.1601 109.932 84.0987 109.877 84.0531C109.35 83.6095 108.984 83.0057 108.833 82.3341C108.833 81.8391 109.022 81.3261 109.814 80.8761C110.714 80.9481 113.414 83.1801 114.665 81.8931C115.916 80.6061 114.44 77.5911 115.835 77.3391C117.23 77.0871 117.932 81.2811 118.175 81.7401C118.985 83.3151 121.163 84.4401 122.405 85.7361C121.655 88.4188 121.054 91.1409 120.605 93.8901C118.805 92.9271 117.473 92.0901 117.338 92.0901C115.457 92.0271 110.408 91.5051 109.094 90.1641C108.86 89.9835 108.7 89.7241 108.644 89.4342C108.587 89.1444 108.639 88.8439 108.788 88.5891C108.883 88.4199 109.013 88.272 109.167 88.1544C109.322 88.0368 109.499 87.952 109.688 87.9051C109.765 87.8862 109.833 87.8418 109.882 87.779C109.93 87.7162 109.956 87.6389 109.955 87.5595C109.954 87.4801 109.926 87.4034 109.876 87.3419C109.826 87.2805 109.756 87.2379 109.679 87.2211ZM119.705 57.251C118.033 57.0911 116.353 57.025 114.674 57.0531C114.458 57.0531 114.278 57.161 114.215 57.368C114.062 57.944 111.515 76.6641 111.389 77.5821C110.849 68.5821 110.291 59.1051 109.877 52.1571C113.009 57.1521 113.279 57.6471 113.774 57.2961C115.443 55.9236 117.021 54.4445 118.499 52.868C118.769 53.867 119.201 55.4961 119.705 57.251ZM127.94 54.092C127.328 53.192 126.725 52.2921 126.5 51.9591L129.407 44.642L127.94 54.092ZM130.037 43.7601C133.441 44.462 136.76 45.5271 139.937 46.937C139.802 47.3601 138.065 52.6701 135.986 59.0061C135.032 58.8891 129.569 58.2231 127.886 58.0431L130.037 43.7601ZM126.356 52.9581L127.778 55.1001L127.328 57.9801L125.933 57.8001C126.14 55.847 126.284 53.9931 126.356 52.9581ZM151.205 62.4531C151.193 63.6248 151.079 64.7934 150.863 65.9451C147.776 65.1531 120.848 58.5291 118.112 60.0861C116.744 60.8781 112.244 79.3461 111.812 81.0111L111.488 80.8491C112.91 70.8501 114.8 57.737 114.8 57.701C117.869 57.3501 147.434 60.6981 151.205 62.4531ZM135.5 81.2721C133.484 81.1371 125.483 80.7411 123.8 81.8571C123.539 82.0371 123.431 82.0731 122.504 85.4031C121.307 84.1341 119.3 82.9371 118.625 81.5241C118.319 80.9031 117.824 76.3671 115.727 76.7181C112.901 77.1951 116.51 83.0181 112.334 81.2181C112.604 80.0751 117.032 61.0131 118.265 60.3111C120.875 58.8261 149.342 66.0711 152.942 67.0881C152.735 69.2841 150.089 81.0021 149.603 83.1441C144.942 82.2485 140.233 81.6234 135.5 81.2721ZM121.64 18.3171C122.144 18.659 122.126 19.4781 122.036 20.0721C121.406 24.0951 117.374 26.534 114.575 22.682C113.936 21.782 113.441 18.92 113.873 18.29C114.161 17.921 116.483 17.903 116.951 17.903C117.815 17.912 121.19 18.0471 121.604 18.3171H121.64ZM110.921 18.965C110.921 20.657 110.354 23.465 108.851 24.275C106.43 25.535 103.973 23.5371 103.91 20.9361C103.817 19.9865 103.863 19.0286 104.045 18.0921L104.135 18.0471C103.991 17.795 110.318 17.714 110.885 18.281C110.904 18.5086 110.904 18.7375 110.885 18.965H110.921ZM114.053 38.5581C115.61 39.0081 118.121 38.7921 119.327 37.5591C119.352 37.5323 119.366 37.4969 119.366 37.4601C119.366 37.4232 119.352 37.3878 119.327 37.361C119.12 37.1091 119.327 37.5951 116.987 37.9461C114.647 38.2971 113.234 37.9461 110.867 36.4071C109.779 35.4075 108.964 34.1467 108.5 32.7441C107.531 30.3702 106.924 27.8642 106.7 25.3101C107.547 25.4488 108.416 25.3065 109.175 24.9051C109.911 24.4744 110.482 23.8088 110.795 23.015C110.491 23.9661 110.242 24.9337 110.048 25.913C110.006 26.0384 109.999 26.1731 110.029 26.3019C110.06 26.4307 110.125 26.5485 110.219 26.6421C110.841 27.0224 111.574 27.181 112.298 27.0921C112.319 27.0975 112.341 27.098 112.363 27.0935C112.384 27.0891 112.404 27.0798 112.422 27.0663C112.439 27.0528 112.453 27.0356 112.463 27.0159C112.472 26.9962 112.477 26.9745 112.477 26.9525C112.477 26.9306 112.472 26.9089 112.463 26.8892C112.453 26.8695 112.439 26.8523 112.422 26.8388C112.404 26.8253 112.384 26.816 112.363 26.8116C112.341 26.8071 112.319 26.8076 112.298 26.813C111.764 26.7536 111.248 26.5818 110.786 26.309C110.579 26.165 110.669 26.255 110.732 25.958C110.795 25.661 111.965 21.368 112.028 21.0981C112.307 21.0981 113.369 20.9541 113.369 20.6931C113.369 20.432 112.523 20.36 112.208 20.378C112.208 20.261 112.262 20.1621 112.289 20.0721C112.303 20.0362 112.303 19.9962 112.287 19.9608C112.272 19.9253 112.243 19.8974 112.208 19.883C112.172 19.8687 112.132 19.8692 112.096 19.8844C112.061 19.8996 112.033 19.9282 112.019 19.964C111.704 20.576 111.92 20.351 111.497 20.459C111.659 19.6269 111.659 18.7712 111.497 17.939C110.984 17.147 107.897 17.327 106.889 17.39C107.402 14.375 109.4 12.89 110.624 10.478C110.967 9.9182 111.424 9.43677 111.965 9.06505C112.235 8.99305 112.766 9.66805 113.09 9.83005C113.414 9.99205 113.72 10.883 113.99 11.189C114.839 12.1557 115.817 13.0006 116.897 13.7C117.797 14.339 119.201 14.438 119.813 15.257C120.071 15.9535 120.196 16.6923 120.182 17.4351C119.021 17.3631 114.179 17.291 113.603 18.119C113.081 18.785 113.306 21.8271 114.071 22.9971C115.997 25.9131 118.958 26.093 121.271 23.465C121.519 23.1548 121.731 22.8165 121.901 22.457C123.629 25.157 124.988 26.768 125.051 29.936C125.123 33.9501 123.989 40.601 128.336 41.438L129.083 43.4991C125.483 52.5531 125.672 51.986 125.672 52.076C125.672 52.166 125.501 54.7761 125.186 57.764C123.458 57.584 121.847 57.431 120.416 57.314C120.308 56.945 118.967 52.175 118.994 52.076C119.129 51.626 118.454 50.7441 117.932 49.9611C115.974 47.1269 113.837 44.4214 111.533 41.861L114.053 38.5581ZM110.885 42.104C111.038 42.338 117.518 49.4661 118.31 52.0851C116.854 53.699 115.28 55.2031 113.603 56.5851C113 55.7931 111.371 53.1831 109.823 50.7441C109.544 46.0371 109.355 42.761 109.31 42.077C109.814 42.041 110.381 42.068 110.849 42.104H110.885ZM78.7457 51.104C77.7197 49.304 76.2977 37.604 76.6307 35.804C76.6307 35.642 76.6307 35.588 77.3867 35.381C80.6087 34.544 91.9127 33.5811 93.1007 33.986C94.0007 35.7411 95.9717 47.1981 95.5037 48.9621C94.5857 49.7001 81.3917 51.563 78.7097 51.104H78.7457ZM79.3757 80.7141C78.3407 78.6801 77.5757 65.6391 78.0887 65.1441C78.8537 64.4061 93.2177 63.7761 94.5767 64.3071C95.4767 66.1971 96.7547 77.8071 96.2237 79.3821C94.9997 80.3001 81.4997 81.2001 79.3397 80.7141H79.3757ZM99.9227 65.6301C100.571 65.4591 105.089 64.3071 105.629 63.9831C106.016 63.7581 106.457 64.4871 98.8877 43.715C99.7877 42.887 107.654 41.8251 108.896 42.2121C108.896 42.7071 110.075 63.7131 111.002 80.5701C110.561 80.3541 109.922 80.0211 109.517 80.2461C107.825 81.1461 107.717 82.6401 108.968 84.0981C108.734 84.1553 108.517 84.2666 108.334 84.4229C108.151 84.5792 108.008 84.7762 107.915 84.9981C107.77 85.3359 107.709 85.7033 107.736 86.0696C107.762 86.436 107.876 86.7906 108.068 87.1041C108.278 87.305 108.517 87.472 108.779 87.5991C108.51 87.7792 108.298 88.032 108.167 88.3281C108.049 88.5831 107.979 88.8577 107.96 89.1381L99.9227 65.6301ZM122.324 121.637L110.57 122.942C110.624 122.51 111.947 112.079 112.37 108.542C114.818 108.758 117.77 108.947 120.929 109.118C121.451 115.607 122.369 120.089 122.288 121.637H122.324ZM122.945 121.565C123.071 119.513 121.379 109.226 121.37 109.136L122.27 109.181C125.33 109.748 133.214 111.143 134.069 111.287C134.357 114.185 135.077 120.935 135.248 122.321C121.829 121.457 123.278 121.529 122.9 121.565H122.945ZM170.699 102.305C169.799 103.025 156.578 104.231 153.851 103.637C152.798 101.594 152.051 88.5621 152.564 88.0671C153.338 87.3201 167.702 86.7081 169.043 87.2301C169.889 89.1111 171.194 100.766 170.663 102.305H170.699Z" fill="#1CA380"/>
<path fill-rule="evenodd" clip-rule="evenodd" d="M79.3938 95.6901C79.3218 95.3661 79.2228 94.8981 78.9618 94.7901C78.0618 94.2501 72.1308 94.1421 71.0778 94.1241C70.8438 89.8311 70.4298 84.8721 69.7548 83.5401C69.3138 82.6401 40.2258 82.5501 39.2268 82.5411C39.2988 77.6991 39.3078 70.3191 39.2268 65.4411C40.4958 65.4411 46.8318 65.4411 47.7048 64.7211C48.8208 63.8211 48.0738 51.8061 47.5698 49.4211C47.4978 49.0971 47.3898 48.6291 47.1378 48.5211C45.8238 47.7381 31.0818 47.5491 30.0378 48.3861C29.4888 48.8451 29.2818 54.4701 29.2548 55.1811C27.1938 55.1811 14.4498 54.9201 9.89583 55.0281V47.6751C11.0748 47.6751 17.9958 47.8641 18.8958 47.1081C19.9848 46.2081 19.6248 31.5021 18.5898 30.9081C17.5548 30.3141 11.0928 30.1251 9.97683 30.0981C9.97683 28.8201 9.87783 25.5981 9.86883 25.5171C14.0358 25.3641 25.0158 25.7151 29.5428 25.7151C29.5428 27.1281 29.4618 32.1591 30.0558 33.4461C30.1998 33.7521 30.7488 33.8421 31.1088 33.9051C33.9708 34.4091 46.7328 34.7061 47.9838 33.6441C49.2348 32.5821 48.3618 19.1271 47.6328 17.6781C47.5845 17.5739 47.5101 17.484 47.4168 17.4171C46.0578 16.6161 31.3338 16.5171 30.3168 17.2821C29.7318 17.7771 29.5338 24.2211 29.5158 24.9951C24.9168 24.9951 14.0988 24.6441 9.81483 24.7971C9.81483 23.0601 9.72483 21.3051 9.72483 19.5771C11.0028 19.5771 18.7248 19.4601 19.6878 18.6141C20.6508 17.7681 19.6878 4.13309 18.9138 2.65709C18.8657 2.55249 18.7873 2.46472 18.6888 2.40509C17.3208 1.6401 2.59683 1.87409 1.58883 2.72009C0.823829 3.38609 0.688828 16.8411 1.71483 18.9201C1.78551 19.0362 1.89334 19.125 2.02083 19.1721C3.04683 19.6041 7.83483 19.6131 8.95983 19.6131C8.95983 23.6361 9.13983 26.9031 9.17583 30.1161C8.27583 30.1161 2.13783 29.9811 1.45383 30.5301C0.769829 31.0791 -0.0581713 44.5251 0.895829 46.7301C1.03083 47.0271 1.57983 47.1351 1.93983 47.1981C4.32505 47.5425 6.73009 47.7319 9.13983 47.7651V61.0491C8.28483 61.0491 2.42583 60.9411 1.76883 61.4721C1.11183 62.0031 0.247829 75.4671 1.20183 77.6721C1.33683 77.9781 1.88583 78.0771 2.24583 78.1491C5.16183 78.7071 17.8698 79.1931 19.1208 78.1491C20.3718 77.1051 19.7238 63.6141 19.0398 62.1831C18.9911 62.0767 18.917 61.9839 18.8238 61.9131C17.8428 61.3191 11.0208 61.1211 9.82383 61.0941V55.8921C14.4858 55.7751 26.7078 56.0361 29.1738 56.0451C29.1738 57.5661 29.0298 63.2991 29.6778 64.6941C29.7367 64.8149 29.8398 64.9084 29.9658 64.9551C31.1268 65.4861 37.1658 65.5941 38.3988 65.6031C38.5158 70.4991 38.5068 77.8971 38.3988 82.7031C26.3028 82.6401 13.7568 82.7661 11.2278 83.2791C10.9578 83.3331 10.5168 83.4231 10.4988 83.8011C10.4988 83.8011 10.0128 91.5771 9.78783 94.2501C8.98683 94.2501 3.72183 94.2501 3.10983 94.7901C2.49783 95.3301 1.82283 108.812 2.81283 110.99C2.94783 111.287 3.49683 111.386 3.85683 111.449C6.72783 111.953 19.4808 112.25 20.7318 111.188C21.9828 110.126 21.1008 96.6441 20.3808 95.2221C20.4169 95.1361 20.4285 95.0418 20.4142 94.9496C20.3999 94.8575 20.3603 94.7711 20.2998 94.7001C19.2648 94.0791 11.8758 94.0251 10.6518 94.0161C10.8678 91.3161 11.3358 83.8011 11.3358 83.8011C14.4138 82.9011 65.6148 83.0091 69.1968 83.9181C69.7458 85.2321 70.0968 89.7411 70.3848 94.0521C69.4848 94.0521 62.6448 93.9981 61.9338 94.5921C61.2228 95.1861 60.6828 108.695 61.6368 110.792C61.7 110.913 61.8059 111.006 61.9338 111.053C63.5268 111.773 78.2598 112.097 79.5558 110.99C79.7786 110.72 79.9081 110.386 79.9248 110.036C80.3478 107.3 79.9788 98.3901 79.3938 95.6901ZM30.5058 17.3901C31.3068 16.7241 45.6708 17.2011 47.0028 17.8491C47.3371 19.2696 47.53 20.7196 47.5788 22.1781C41.8098 21.5931 34.0158 22.0431 30.0378 22.1781C30.0558 21.6381 30.1998 17.6061 30.5058 17.3631V17.3901ZM30.0288 22.6731C36.5808 22.8801 44.3568 22.5381 47.6058 22.5741C47.7048 24.1671 48.0558 31.6281 47.4708 33.0051C46.8048 33.4641 41.5578 33.5451 40.7568 33.5541C38.8218 33.5541 32.4408 33.5541 30.5688 33.0141C29.9208 31.4391 29.9838 24.4461 30.0288 22.6461V22.6731ZM1.82283 2.79209C2.62383 2.09009 17.0148 2.22509 18.3288 2.79209C18.6241 3.79524 18.8112 4.82712 18.8868 5.87009C13.073 5.69867 7.25491 5.99966 1.48983 6.77009C1.49883 6.44609 1.56183 3.02609 1.82283 2.79209ZM2.29983 18.4071C1.57083 16.7781 1.47183 9.20009 1.48983 7.07609C2.24583 6.98609 18.5898 6.17609 18.9228 6.17609C19.1208 7.97609 19.8228 16.3731 19.1928 17.9481C17.9868 18.8211 4.44183 18.9921 2.29983 18.4071ZM1.67883 30.5841C2.49783 29.9271 16.8528 30.6381 18.1758 31.3041C18.4702 32.6471 18.633 34.0155 18.6618 35.3901C18.7518 35.3901 5.93583 34.8861 1.15683 35.0391C1.18383 34.5081 1.39983 30.8001 1.67883 30.5841ZM18.6438 77.3841C17.6538 78.0321 4.37883 77.9511 1.75083 77.1141C1.10283 75.5031 1.30083 68.1141 1.39083 66.2331C1.48083 66.2331 13.7838 67.1871 18.9318 66.5841C19.0218 68.2311 19.2648 75.9801 18.6438 77.3751V77.3841ZM18.4278 62.2101C18.7208 63.5566 18.8866 64.9276 18.9228 66.3051C19.0128 66.3051 6.22383 65.8011 1.40883 65.9451C1.44894 64.4983 1.60241 63.0569 1.86783 61.6341C1.93083 61.4541 1.86783 61.4181 2.67783 61.3281C5.89983 60.9681 17.2758 61.6251 18.4278 62.2011V62.2101ZM1.48983 46.1991C0.850829 44.5881 1.04883 37.2531 1.13883 35.3271C1.24683 35.3271 13.5138 36.2811 18.6798 35.6781C18.7698 37.3341 19.0218 45.0381 18.3918 46.4781C17.1768 47.2701 3.65883 46.8921 1.48983 46.1991ZM20.4978 99.8841C20.6058 101.558 20.9478 109.001 20.3628 110.414C19.4088 111.08 6.07983 111.215 3.46083 110.414C2.81283 108.848 2.87583 101.801 2.92083 99.9201C8.72583 100.145 13.9998 99.8841 20.4978 99.8841ZM19.8948 95.2581C20.2278 96.676 20.4237 98.1227 20.4798 99.5781C14.7558 99.0021 6.69183 99.4611 2.92983 99.6321C2.92983 99.0651 3.10083 95.0421 3.39783 94.7991C4.20783 94.1331 18.5628 94.6101 19.8948 95.2581ZM30.1998 48.5031C31.0278 47.8101 45.3918 48.3321 46.6968 48.9621C47.0391 50.4395 47.2381 51.9465 47.2908 53.4621C43.3848 53.2551 33.6648 52.6341 29.7408 53.1201C29.7858 52.6071 29.9388 48.7461 30.1998 48.5031ZM30.2898 64.1001C29.6328 62.5251 29.7048 55.3251 29.7588 53.4441C31.0278 53.3181 40.2078 53.8941 44.4738 53.8581C45.5628 53.8581 46.5438 53.8131 47.3358 53.7861C47.4348 55.3881 47.7678 62.7051 47.1918 64.0911C46.0128 64.9281 32.4768 64.7931 30.2898 64.1001ZM62.0868 94.7991C62.8968 94.1331 77.2518 94.6101 78.5928 95.2581C78.9227 96.6794 79.1156 98.129 79.1688 99.5871C73.4988 99.0111 65.2908 99.4701 61.6278 99.5871C61.6368 99.1101 61.7898 95.0691 62.0868 94.8261V94.7991ZM79.0608 110.414C78.0798 111.08 64.7508 111.215 62.1588 110.414C61.5018 108.857 61.5648 101.783 61.6188 99.9111C67.6758 100.145 72.2208 99.9111 79.1868 99.9111C79.2948 101.567 79.6368 109.037 79.0608 110.441V110.414Z" fill="#1CA380"/>
</svg>
