<svg width="23" height="23" viewBox="0 0 23 23" fill="none" xmlns="http://www.w3.org/2000/svg">
<path d="M22.7092 14.9699C22.319 6.49799 22.9117 4.50295 19.7889 4.02582C19.1529 3.9246 19.1384 3.9246 19.1384 3.36084C19.1384 1.01873 14.541 0.512869 14.4976 2.85476C14.4832 3.24526 14.5555 3.79455 14.5555 3.79455L10.0014 3.95355V3.34637C10.0159 2.14647 8.93169 0.960938 7.34141 0.960938C6.64748 0.960938 5.89576 1.35133 5.85234 2.11752C5.79454 3.05719 5.83786 5.08119 5.79454 5.51489C5.66438 6.64263 6.58958 7.27866 7.39919 7.19192C8.07864 7.13413 8.83047 6.72926 9.10517 5.63058L9.20628 5.1245H15.1627L15.206 5.81854C14.9602 8.05933 18.0252 7.72684 18.1408 6.23777C18.1553 5.96307 18.1842 5.44263 18.2131 5.00892C18.6757 5.00892 20.3961 5.34141 20.5551 5.47158C20.8009 5.6739 20.7142 7.53888 20.7287 8.50751C20.0347 8.46419 17.6059 8.17502 13.2254 8.11723C7.97754 8.04485 3.5826 8.31955 2.88867 8.31955C2.00667 8.31955 3.00425 5.96307 4.13199 5.356C5.34636 4.71975 5.18736 4.28604 3.84282 4.54626C1.15374 5.05235 0.647769 6.04992 0.344117 11.4713C0.0261074 17.0083 0.373068 20.1165 1.37065 20.7237C2.90314 21.649 14.3965 22.0393 16.1313 22.0393C16.9987 22.0393 22.2466 17.5288 22.2322 17.5433C22.5936 17.2541 22.796 16.8204 22.7671 16.3577L22.7092 14.9699ZM8.02086 5.9486C8.02086 6.13655 7.87632 6.28119 7.68837 6.29556L7.24019 6.33899C7.02339 6.36794 6.8498 6.19446 6.83532 5.97755C6.77753 4.43068 6.53178 2.53675 7.4571 1.95851C7.65953 1.82835 7.93412 1.97299 7.94859 2.20426C8.03533 3.24515 8.02086 3.15841 8.02086 5.9486ZM16.7385 6.80164C16.059 6.81612 15.9 3.40416 16.5505 2.95609C16.9699 2.66692 17.2589 3.04272 17.2589 4.64748C17.2734 6.4402 17.0277 6.78717 16.7385 6.80164ZM13.5434 20.2322C12.7628 20.5647 2.96093 20.2178 2.59949 19.8563C1.92004 19.1769 2.5417 9.24486 2.5417 9.24486C2.5417 9.24486 7.7172 9.15812 13.2543 9.31713C18.1408 9.46166 20.1648 9.70751 20.7432 9.73636C20.9022 9.75083 21.5671 14.247 21.4226 15.8228C20.6563 15.4181 19.4854 14.9699 18.9215 14.8252C17.6059 14.4783 16.4783 14.6517 16.247 15.3746C15.6542 17.3119 14.1651 19.972 13.5434 20.2322ZM15.206 20.319C15.4084 19.972 15.3796 20.2033 16.6229 17.8468C17.924 15.3458 17.6637 15.5915 18.748 15.953C19.2395 16.112 20.3672 16.4879 21.0756 16.6757C19.5431 18.1504 17.4614 19.2202 15.206 20.319Z" fill="#BFC9C3"/>
<path d="M11.8519 10.9652C10.5798 10.9652 9.14848 10.9074 8.67147 10.8496C7.70284 10.7339 6.74858 10.864 7.21123 11.9627C7.64494 12.9892 9.17733 13.7265 8.98948 12.8157L8.9171 12.4109C13.4855 12.4109 13.8904 12.3675 13.1965 12.8157C12.7772 13.0904 10.9267 15.5191 10.4208 16.4589C10.2039 16.8637 9.87136 17.3263 9.66893 17.4853C9.23523 17.8468 9.32197 18.0637 10.0014 18.3527C11.0568 18.8009 12.0833 18.5696 12.0833 17.9045C12.0833 16.9359 13.3122 15.0854 15.1048 13.394L15.4952 13.0181C15.7987 12.7289 15.7843 12.2519 15.4807 11.9627C14.3097 10.9507 14.3964 10.9796 11.8519 10.9652Z" fill="#BFC9C3"/>
</svg>
