<svg width="18" height="18" viewBox="0 0 18 18" fill="none" xmlns="http://www.w3.org/2000/svg">
<g clip-path="url(#clip0_145_1845)">
<path d="M16.8948 7.3404L15.6636 3.6459C15.485 3.10813 15.1415 2.64033 14.6818 2.30896C14.2221 1.97758 13.6697 1.7995 13.1031 1.8H10.8V0H7.2V1.8H4.8969C4.33025 1.7995 3.77785 1.97758 3.3182 2.30896C2.85854 2.64033 2.515 3.10813 2.3364 3.6459L1.1052 7.3404C0.778151 7.47763 0.498849 7.70828 0.30226 8.00349C0.105671 8.29869 0.00053018 8.64533 0 9V13.5C0 14.1777 0.3807 14.7618 0.9351 15.0687C0.9234 15.1281 0.9 15.1821 0.9 15.2442V17.1C0.9 17.3387 0.994821 17.5676 1.1636 17.7364C1.33239 17.9052 1.56131 18 1.8 18H2.7C2.93869 18 3.16761 17.9052 3.3364 17.7364C3.50518 17.5676 3.6 17.3387 3.6 17.1V15.3H14.4V17.1C14.4 17.3387 14.4948 17.5676 14.6636 17.7364C14.8324 17.9052 15.0613 18 15.3 18H16.2C16.4387 18 16.6676 17.9052 16.8364 17.7364C17.0052 17.5676 17.1 17.3387 17.1 17.1V15.2442C17.1 15.1821 17.0766 15.1272 17.0649 15.0687C17.347 14.9149 17.5825 14.6882 17.747 14.4123C17.9115 14.1363 17.9989 13.8213 18 13.5V9C18 8.2539 17.5428 7.6131 16.8948 7.3404ZM1.8 13.5V9H16.2L16.2018 13.5H1.8ZM4.8969 3.6H13.1022C13.4901 3.6 13.8339 3.8466 13.9563 4.2156L14.9517 7.2H3.0483L4.0428 4.2156C4.10251 4.03631 4.21714 3.88037 4.37044 3.76988C4.52374 3.65939 4.70793 3.59995 4.8969 3.6Z" fill="#FF8C21"/>
<path d="M4.05007 12.5999C4.79566 12.5999 5.40007 11.9955 5.40007 11.2499C5.40007 10.5043 4.79566 9.8999 4.05007 9.8999C3.30449 9.8999 2.70007 10.5043 2.70007 11.2499C2.70007 11.9955 3.30449 12.5999 4.05007 12.5999Z" fill="#FF8C21"/>
<path d="M13.9499 12.5999C14.6954 12.5999 15.2999 11.9955 15.2999 11.2499C15.2999 10.5043 14.6954 9.8999 13.9499 9.8999C13.2043 9.8999 12.5999 10.5043 12.5999 11.2499C12.5999 11.9955 13.2043 12.5999 13.9499 12.5999Z" fill="#FF8C21"/>
</g>
<defs>
<clipPath id="clip0_145_1845">
<rect width="18" height="18" fill="white"/>
</clipPath>
</defs>
</svg>
