<svg width="32" height="32" viewBox="0 0 32 32" fill="none" xmlns="http://www.w3.org/2000/svg">
<path d="M16.8485 4.15147C16.6235 3.92643 16.3183 3.8 16 3.8C15.6817 3.8 15.3765 3.92643 15.1515 4.15147C14.9264 4.37652 14.8 4.68174 14.8 5V14.8H5C4.68174 14.8 4.37652 14.9264 4.15147 15.1515C3.92643 15.3765 3.8 15.6817 3.8 16C3.8 16.3183 3.92643 16.6235 4.15147 16.8485C4.37652 17.0736 4.68174 17.2 5 17.2H14.8V27C14.8 27.3183 14.9264 27.6235 15.1515 27.8485C15.3765 28.0736 15.6817 28.2 16 28.2C16.3183 28.2 16.6235 28.0736 16.8485 27.8485C17.0736 27.6235 17.2 27.3183 17.2 27V17.2H27C27.3183 17.2 27.6235 17.0736 27.8485 16.8485C28.0736 16.6235 28.2 16.3183 28.2 16C28.2 15.6817 28.0736 15.3765 27.8485 15.1515C27.6235 14.9264 27.3183 14.8 27 14.8H17.2V5C17.2 4.68174 17.0736 4.37652 16.8485 4.15147Z" fill="#BFC9C3" stroke="#BFC9C3" stroke-width="0.4"/>
</svg>
