<svg width="50" height="17" viewBox="0 0 50 17" fill="none" xmlns="http://www.w3.org/2000/svg">
<g clip-path="url(#clip0_145_492)">
<path d="M25.8588 5.55615C25.8303 7.80537 27.8633 9.06045 29.3947 9.80674C30.9682 10.5724 31.4967 11.0634 31.4904 11.7481C31.4787 12.796 30.2354 13.2585 29.0719 13.2765C27.042 13.3079 25.8617 12.7284 24.9234 12.2901L24.1922 15.7118C25.1336 16.1456 26.8768 16.5239 28.6844 16.5405C32.9275 16.5405 35.7035 14.446 35.7186 11.1985C35.7352 7.07705 30.0178 6.84893 30.0568 5.00674C30.0703 4.44814 30.6033 3.85205 31.7713 3.70049C32.3494 3.62393 33.9453 3.56533 35.7547 4.39853L36.4648 1.08799C35.4918 0.733692 34.2412 0.394434 32.6842 0.394434C28.6904 0.394434 25.8814 2.51748 25.8588 5.55615ZM43.2887 0.67959C42.5139 0.67959 41.8609 1.13154 41.5695 1.8251L35.5084 16.2974H39.7484L40.5922 13.9655H45.7734L46.2629 16.2974H50L46.7389 0.67959H43.2887ZM43.8818 4.89854L45.1055 10.7632H41.7543L43.8818 4.89854ZM20.718 0.679785L17.3758 16.2972H21.4162L24.7568 0.679395H20.718V0.679785ZM14.7408 0.679395L10.5354 11.3097L8.83418 2.27119C8.63457 1.26221 7.84629 0.67959 6.9709 0.67959H0.0962891L0 1.13311C1.41133 1.43935 3.01484 1.9333 3.98633 2.46182C4.58086 2.78467 4.75039 3.06689 4.9457 3.83408L8.16777 16.2974H12.4375L18.9836 0.67959H14.7408" fill="url(#paint0_linear_145_492)"/>
</g>
<defs>
<linearGradient id="paint0_linear_145_492" x1="22.987" y1="16.8644" x2="23.4544" y2="0.282144" gradientUnits="userSpaceOnUse">
<stop stop-color="#222357"/>
<stop offset="1" stop-color="#254AA5"/>
</linearGradient>
<clipPath id="clip0_145_492">
<rect width="50" height="16.2109" fill="white" transform="translate(0 0.394531)"/>
</clipPath>
</defs>
</svg>
