<svg width="50" height="39" viewBox="0 0 50 39" fill="none" xmlns="http://www.w3.org/2000/svg">
<g clip-path="url(#clip0_145_1591)">
<path d="M9.08982 38.7404V36.168C9.08982 35.1816 8.48943 34.5387 7.46033 34.5387C6.94587 34.5387 6.38845 34.7102 6.00251 35.2676C5.70251 34.7959 5.2738 34.5387 4.63064 34.5387C4.20173 34.5387 3.77322 34.6672 3.43005 35.1389V34.6244H2.52966V38.7404H3.43005V36.468C3.43005 35.7393 3.81599 35.3961 4.41638 35.3961C5.01638 35.3961 5.31677 35.782 5.31677 36.468V38.7404H6.21716V36.468C6.21716 35.7393 6.64568 35.3961 7.2031 35.3961C7.80349 35.3961 8.10349 35.782 8.10349 36.468V38.7404H9.08982ZM22.424 34.6244H20.9664V33.3811H20.066V34.6244H19.2513V35.4389H20.0658V37.3256C20.0658 38.2689 20.4517 38.8262 21.4808 38.8262C21.8668 38.8262 22.2953 38.6977 22.5957 38.5262L22.3383 37.7543C22.081 37.9258 21.781 37.9687 21.5666 37.9687C21.1379 37.9687 20.9664 37.7115 20.9664 37.2826V35.4389H22.424V34.6244ZM30.056 34.5385C29.5416 34.5385 29.1986 34.7959 28.9842 35.1389V34.6244H28.0838V38.7404H28.9842V36.4252C28.9842 35.7393 29.2842 35.3533 29.8416 35.3533C30.0131 35.3533 30.2275 35.3963 30.399 35.4391L30.6562 34.5816C30.4847 34.5387 30.2275 34.5387 30.056 34.5387V34.5385ZM18.5224 34.9674C18.0935 34.6672 17.4933 34.5387 16.8502 34.5387C15.8213 34.5387 15.1353 35.0531 15.1353 35.8678C15.1353 36.5539 15.6498 36.9396 16.5502 37.0684L16.9789 37.1113C17.4506 37.1969 17.7078 37.3256 17.7078 37.54C17.7078 37.84 17.3648 38.0545 16.7644 38.0545C16.1642 38.0545 15.6926 37.84 15.3924 37.6258L14.9636 38.3117C15.4353 38.6547 16.0785 38.8262 16.7215 38.8262C17.922 38.8262 18.6082 38.2689 18.6082 37.4971C18.6082 36.7682 18.0508 36.3822 17.1931 36.2537L16.7644 36.2107C16.3785 36.1678 16.0785 36.0822 16.0785 35.825C16.0785 35.5248 16.3785 35.3533 16.8502 35.3533C17.3648 35.3533 17.8793 35.5676 18.1365 35.6963L18.5224 34.9674ZM42.4472 34.5387C41.9326 34.5387 41.5896 34.7959 41.3752 35.1389V34.6244H40.4748V38.7404H41.3752V36.4252C41.3752 35.7393 41.6754 35.3533 42.2326 35.3533C42.4043 35.3533 42.6187 35.3963 42.7902 35.4391L43.0474 34.5816C42.876 34.5387 42.6187 34.5387 42.4472 34.5387ZM30.9564 36.6824C30.9564 37.9258 31.8138 38.8262 33.1431 38.8262C33.7433 38.8262 34.172 38.6977 34.6008 38.3547L34.172 37.6258C33.8291 37.883 33.4861 38.0115 33.1002 38.0115C32.3713 38.0115 31.8568 37.4971 31.8568 36.6824C31.8568 35.9107 32.3713 35.3961 33.1002 35.3533C33.4861 35.3533 33.8291 35.4818 34.172 35.7393L34.6008 35.0104C34.172 34.6672 33.7433 34.5387 33.1431 34.5387C31.8138 34.5387 30.9564 35.4391 30.9564 36.6824ZM39.2744 36.6824V34.6244H38.374V35.1389C38.0738 34.7531 37.6451 34.5387 37.0877 34.5387C35.9301 34.5387 35.0297 35.4391 35.0297 36.6824C35.0297 37.9258 35.9301 38.8262 37.0877 38.8262C37.6879 38.8262 38.1168 38.6119 38.374 38.226V38.7404H39.2744V36.6824ZM35.9728 36.6824C35.9728 35.9535 36.4445 35.3533 37.2162 35.3533C37.9451 35.3533 38.4597 35.9107 38.4597 36.6824C38.4597 37.4113 37.9451 38.0115 37.2162 38.0115C36.4445 37.9686 35.9728 37.4113 35.9728 36.6824ZM25.2111 34.5387C24.0105 34.5387 23.1529 35.3961 23.1529 36.6824C23.1529 37.9687 24.0103 38.8262 25.2539 38.8262C25.8541 38.8262 26.4545 38.6547 26.9261 38.2689L26.4972 37.6258C26.1543 37.883 25.7256 38.0545 25.2969 38.0545C24.7394 38.0545 24.182 37.7973 24.0533 37.0682H27.0976V36.7254C27.1406 35.3961 26.3687 34.5387 25.2109 34.5387H25.2111ZM25.2111 35.3104C25.7683 35.3104 26.1545 35.6535 26.24 36.2967H24.0963C24.182 35.7393 24.5679 35.3104 25.2111 35.3104ZM47.5494 36.6824V32.9951H46.649V35.1389C46.3488 34.7531 45.9201 34.5387 45.3627 34.5387C44.2051 34.5387 43.3047 35.4391 43.3047 36.6824C43.3047 37.9258 44.2051 38.8262 45.3627 38.8262C45.9631 38.8262 46.3918 38.6119 46.649 38.226V38.7404H47.5494V36.6824ZM44.248 36.6824C44.248 35.9535 44.7195 35.3533 45.4914 35.3533C46.2203 35.3533 46.7347 35.9107 46.7347 36.6824C46.7347 37.4113 46.2203 38.0115 45.4914 38.0115C44.7195 37.9686 44.248 37.4113 44.248 36.6824ZM14.149 36.6824V34.6244H13.2486V35.1389C12.9484 34.7531 12.5197 34.5387 11.9623 34.5387C10.8047 34.5387 9.90427 35.4391 9.90427 36.6824C9.90427 37.9258 10.8047 38.8262 11.9623 38.8262C12.5627 38.8262 12.9914 38.6119 13.2486 38.226V38.7404H14.149V36.6824ZM10.8047 36.6824C10.8047 35.9535 11.2763 35.3533 12.048 35.3533C12.7769 35.3533 13.2916 35.9107 13.2916 36.6824C13.2916 37.4113 12.7769 38.0115 12.048 38.0115C11.2763 37.9686 10.8047 37.4113 10.8047 36.6824Z" fill="#747875"/>
<path d="M18.2223 3.36768H31.7281V27.6355H18.2223V3.36768Z" fill="#FF5F00"/>
<path d="M19.0799 15.5018C19.0799 10.5711 21.3951 6.19766 24.9537 3.36777C22.3385 1.30977 19.0371 0.0664062 15.4355 0.0664062C6.90293 0.0664062 0 6.96934 0 15.5018C0 24.034 6.90293 30.9371 15.4354 30.9371C19.0369 30.9371 22.3383 29.6938 24.9537 27.6355C21.3951 24.8486 19.0799 20.4324 19.0799 15.5018Z" fill="#EB001B"/>
<path d="M49.9504 15.5018C49.9504 24.034 43.0475 30.9371 34.5151 30.9371C30.9135 30.9371 27.6121 29.6938 24.9967 27.6355C28.5983 24.8059 30.8707 20.4324 30.8707 15.5018C30.8707 10.5711 28.5553 6.19766 24.9967 3.36777C27.6119 1.30977 30.9135 0.0664062 34.5151 0.0664062C43.0475 0.0664062 49.9506 7.0123 49.9506 15.5018H49.9504Z" fill="#F79E1B"/>
</g>
<defs>
<clipPath id="clip0_145_1591">
<rect width="50" height="38.8672" fill="white" transform="translate(0 0.0664062)"/>
</clipPath>
</defs>
</svg>
