<svg width="23" height="14" viewBox="0 0 23 14" fill="none" xmlns="http://www.w3.org/2000/svg">
<path d="M18.1454 0.0909424H2.87268C1.66769 0.0909424 0.690857 1.06778 0.690857 2.27276V11C0.690857 12.205 1.66769 13.1819 2.87268 13.1819H18.1454C19.3504 13.1819 20.3272 12.205 20.3272 11V2.27276C20.3272 1.06778 19.3504 0.0909424 18.1454 0.0909424Z" stroke="#FF897D" stroke-width="2" stroke-linecap="round" stroke-linejoin="round"/>
<path d="M20.3272 4.45459H21.9636C22.1082 4.45459 22.247 4.51206 22.3493 4.61435C22.4516 4.71664 22.509 4.85538 22.509 5.00004V8.27277C22.509 8.41743 22.4516 8.55617 22.3493 8.65847C22.247 8.76076 22.1082 8.81823 21.9636 8.81823H20.3272V4.45459Z" stroke="#FF897D" stroke-width="2" stroke-linecap="round" stroke-linejoin="round"/>
</svg>
