<svg width="17" height="18" viewBox="0 0 17 18" fill="none" xmlns="http://www.w3.org/2000/svg">
<g clip-path="url(#clip0_145_312)">
<path d="M8.93569 0.188851C8.87853 0.128988 8.81062 0.0814933 8.73586 0.049087C8.66109 0.0166808 8.58094 0 8.5 0C8.41906 0 8.33891 0.0166808 8.26414 0.049087C8.18938 0.0814933 8.12147 0.128988 8.06431 0.188851L0.679693 7.90264C0.622583 7.96245 0.577318 8.03343 0.546485 8.11152C0.515652 8.18961 0.499857 8.27329 0.500001 8.35776V17.3572C0.500001 17.5277 0.564836 17.6912 0.680243 17.8117C0.79565 17.9323 0.952175 18 1.11539 18H6.65385C6.81706 18 6.97358 17.9323 7.08899 17.8117C7.2044 17.6912 7.26923 17.5277 7.26923 17.3572V12.2147H9.73077V17.3572C9.73077 17.5277 9.7956 17.6912 9.91101 17.8117C10.0264 17.9323 10.1829 18 10.3462 18H15.8846C16.0478 18 16.2044 17.9323 16.3198 17.8117C16.4352 17.6912 16.5 17.5277 16.5 17.3572V8.35776C16.5001 8.27329 16.4843 8.18961 16.4535 8.11152C16.4227 8.03343 16.3774 7.96245 16.3203 7.90264L14.6538 6.16318V1.9296C14.6538 1.75911 14.589 1.59561 14.4736 1.47506C14.3582 1.35451 14.2017 1.28678 14.0385 1.28678H12.8077C12.6445 1.28678 12.488 1.35451 12.3725 1.47506C12.2571 1.59561 12.1923 1.75911 12.1923 1.9296V3.59192L8.93569 0.188851ZM1.73077 16.7144V8.62388L8.5 1.55291L15.2692 8.62388V16.7144H10.9615V11.5718C10.9615 11.4014 10.8967 11.2379 10.7813 11.1173C10.6659 10.9967 10.5094 10.929 10.3462 10.929H6.65385C6.49064 10.929 6.33411 10.9967 6.2187 11.1173C6.1033 11.2379 6.03846 11.4014 6.03846 11.5718V16.7144H1.73077Z" fill="#FF5843"/>
<path d="M8.93569 0.188851C8.87853 0.128988 8.81062 0.0814933 8.73586 0.049087C8.66109 0.0166808 8.58094 0 8.5 0C8.41906 0 8.33891 0.0166808 8.26414 0.049087C8.18938 0.0814933 8.12147 0.128988 8.06431 0.188851L0.679693 7.90264C0.622583 7.96245 0.577318 8.03343 0.546485 8.11152C0.515652 8.18961 0.499857 8.27329 0.500001 8.35776V17.3572C0.500001 17.5277 0.564836 17.6912 0.680243 17.8117C0.79565 17.9323 0.952175 18 1.11539 18H6.65385C6.81706 18 6.97358 17.9323 7.08899 17.8117C7.2044 17.6912 7.26923 17.5277 7.26923 17.3572V12.2147H9.73077V17.3572C9.73077 17.5277 9.7956 17.6912 9.91101 17.8117C10.0264 17.9323 10.1829 18 10.3462 18H15.8846C16.0478 18 16.2044 17.9323 16.3198 17.8117C16.4352 17.6912 16.5 17.5277 16.5 17.3572V8.35776C16.5001 8.27329 16.4843 8.18961 16.4535 8.11152C16.4227 8.03343 16.3774 7.96245 16.3203 7.90264L14.6538 6.16318V1.9296C14.6538 1.75911 14.589 1.59561 14.4736 1.47506C14.3582 1.35451 14.2017 1.28678 14.0385 1.28678H12.8077C12.6445 1.28678 12.488 1.35451 12.3725 1.47506C12.2571 1.59561 12.1923 1.75911 12.1923 1.9296V3.59192L8.93569 0.188851ZM1.73077 16.7144V8.62388L8.5 1.55291L15.2692 8.62388V16.7144H10.9615V11.5718C10.9615 11.4014 10.8967 11.2379 10.7813 11.1173C10.6659 10.9967 10.5094 10.929 10.3462 10.929H6.65385C6.49064 10.929 6.33411 10.9967 6.2187 11.1173C6.1033 11.2379 6.03846 11.4014 6.03846 11.5718V16.7144H1.73077Z" fill="#FF5843"/>
</g>
<defs>
<clipPath id="clip0_145_312">
<rect width="16" height="18" fill="white" transform="translate(0.5)"/>
</clipPath>
</defs>
</svg>
