<svg width="24" height="24" viewBox="0 0 24 24" fill="none" xmlns="http://www.w3.org/2000/svg">
<path d="M4.80001 17.4V13.398L9.60961 16.1592C10.337 16.5769 11.1612 16.7968 12 16.7968C12.8388 16.7968 13.663 16.5769 14.3904 16.1592L19.2 13.3992V17.4C19.2002 17.4788 19.1848 17.5569 19.1547 17.6298C19.1246 17.7027 19.0805 17.769 19.0248 17.8248L19.0224 17.826L19.02 17.8296L19.0116 17.8368L18.984 17.8632L18.888 17.952C18.7707 18.0549 18.6503 18.1542 18.5268 18.2496C18.0958 18.5805 17.6378 18.8748 17.1576 19.1292C15.5695 19.9716 13.7978 20.4086 12 20.4012C10.2023 20.4086 8.43056 19.9716 6.84241 19.1292C6.36264 18.8747 5.90504 18.5805 5.47441 18.2496C5.31606 18.1275 5.16312 17.9986 5.01601 17.8632L4.98841 17.8368C4.9296 17.7801 4.88266 17.7123 4.85032 17.6373C4.81797 17.5623 4.80087 17.4817 4.80001 17.4ZM22.4988 10.1208L13.7928 15.1188C13.2473 15.4321 12.6291 15.597 12 15.597C11.3709 15.597 10.7528 15.4321 10.2072 15.1188L2.40001 10.6368V16.2C2.40001 16.3591 2.3368 16.5117 2.22428 16.6243C2.11175 16.7368 1.95914 16.8 1.80001 16.8C1.64088 16.8 1.48827 16.7368 1.37575 16.6243C1.26323 16.5117 1.20001 16.3591 1.20001 16.2V9.6C1.19995 9.49182 1.22914 9.38564 1.28449 9.2927C1.33983 9.19975 1.41928 9.12349 1.51441 9.072L10.2072 4.0812C10.7526 3.76755 11.3708 3.60249 12 3.60249C12.6292 3.60249 13.2474 3.76755 13.7928 4.0812L22.4988 9.0804C22.5903 9.13298 22.6663 9.20876 22.7191 9.30009C22.772 9.39143 22.7998 9.49508 22.7998 9.6006C22.7998 9.70612 22.772 9.80978 22.7191 9.90111C22.6663 9.99244 22.5903 10.0682 22.4988 10.1208Z" fill="#707974"/>
</svg>
