<svg width="24" height="24" viewBox="0 0 24 24" fill="none" xmlns="http://www.w3.org/2000/svg">
<g clip-path="url(#clip0_145_430)">
<path d="M11.9461 2.2905C7.48056 2.2905 3.58956 4.8465 2.46605 8.478H1.64105C1.42237 8.47824 1.20638 8.52629 1.00822 8.61879C0.810064 8.7113 0.634528 8.84601 0.493911 9.01349C0.353295 9.18097 0.251 9.37717 0.194193 9.58835C0.137386 9.79953 0.127441 10.0206 0.165055 10.236L0.546055 12.426C0.636851 12.9481 0.909017 13.4214 1.31459 13.7625C1.72017 14.1036 2.23312 14.2906 2.76305 14.2905H3.15756C3.60755 15.06 4.18956 15.7575 4.87505 16.3635L3.78155 20.079C3.74867 20.1909 3.74233 20.3089 3.76302 20.4236C3.78372 20.5384 3.83089 20.6467 3.90078 20.7401C3.97067 20.8334 4.06136 20.9091 4.16565 20.9613C4.26994 21.0134 4.38495 21.0406 4.50155 21.0405H7.50156C7.65631 21.0405 7.80728 20.9927 7.93376 20.9035C8.06025 20.8144 8.15606 20.6883 8.20806 20.5425L8.93106 18.516C9.88356 18.7755 10.8961 18.9165 11.9476 18.9165C13.0081 18.9165 14.0296 18.774 14.9896 18.5085L15.8041 20.5665C15.8594 20.7063 15.9555 20.8263 16.0799 20.9108C16.2043 20.9953 16.3512 21.0405 16.5016 21.0405H19.5016C19.6186 21.0404 19.734 21.0129 19.8385 20.9602C19.943 20.9075 20.0337 20.8311 20.1034 20.7371C20.173 20.643 20.2197 20.534 20.2397 20.4187C20.2598 20.3034 20.2525 20.185 20.2186 20.073L19.0771 16.314C20.7151 14.8425 21.7501 12.8385 21.7501 10.6035C21.7501 10.386 21.7396 10.1685 21.7201 9.957C22.1116 9.792 22.4821 9.558 22.7776 9.291C23.2501 9.75 24.0001 9.75 24.0001 8.6655C24.0001 9 23.2501 9 23.3086 8.6265C23.3716 8.50609 23.417 8.37729 23.4436 8.244C23.4788 8.07027 23.4695 7.89043 23.4166 7.72126C23.3636 7.55208 23.2686 7.39908 23.1406 7.2765C23.0055 7.13727 22.8277 7.04719 22.6356 7.02055C22.4434 6.99392 22.2479 7.03227 22.0801 7.1295C21.9257 7.21479 21.7941 7.33586 21.6962 7.48254C21.5983 7.62922 21.5371 7.79724 21.5176 7.9725C21.4816 8.337 21.6406 8.6925 21.9976 8.9535C21.8737 9.03914 21.7438 9.11583 21.6091 9.183C20.8081 5.187 16.6831 2.2905 11.9461 2.2905ZM22.7056 8.1045C22.6788 8.21853 22.6288 8.32579 22.5586 8.4195C22.5361 8.4078 22.5141 8.39529 22.4926 8.382C22.2736 8.247 22.2571 8.1195 22.2646 8.0475C22.2719 7.99368 22.2916 7.94228 22.322 7.89728C22.3525 7.85228 22.3929 7.81489 22.4401 7.788C22.5136 7.7475 22.5601 7.7565 22.6096 7.806C22.6513 7.84227 22.6822 7.88925 22.6992 7.94187C22.7161 7.99448 22.7183 8.05072 22.7056 8.1045ZM9.20706 7.1295C9.11097 7.16211 9.00926 7.17487 8.9081 7.16703C8.80693 7.15919 8.70841 7.1309 8.61849 7.08387C8.52858 7.03685 8.44914 6.97207 8.38498 6.89345C8.32083 6.81484 8.2733 6.72402 8.24526 6.6265C8.21722 6.52899 8.20927 6.42679 8.22187 6.32611C8.23448 6.22542 8.26738 6.12835 8.31859 6.04075C8.3698 5.95315 8.43826 5.87685 8.51981 5.81648C8.60137 5.75611 8.69432 5.71291 8.79306 5.6895C9.81838 5.3965 10.8797 5.24857 11.9461 5.25C13.0906 5.25 14.1916 5.415 15.2161 5.7225C15.3104 5.75077 15.3983 5.79734 15.4746 5.85957C15.551 5.92179 15.6143 5.99844 15.6611 6.08515C15.7078 6.17186 15.737 6.26692 15.747 6.36491C15.757 6.4629 15.7476 6.5619 15.7193 6.65625C15.691 6.75061 15.6445 6.83847 15.5822 6.91482C15.52 6.99118 15.4434 7.05453 15.3567 7.10126C15.27 7.14799 15.1749 7.17719 15.0769 7.18718C14.9789 7.19717 14.8799 7.18777 14.7856 7.1595C13.8639 6.8859 12.9074 6.74795 11.9461 6.75C10.9861 6.75 10.0636 6.885 9.20706 7.131V7.1295ZM7.50006 9.375C7.50006 9.67337 7.38153 9.95952 7.17055 10.1705C6.95957 10.3815 6.67342 10.5 6.37506 10.5C6.07669 10.5 5.79054 10.3815 5.57956 10.1705C5.36858 9.95952 5.25005 9.67337 5.25005 9.375C5.25005 9.07663 5.36858 8.79048 5.57956 8.57951C5.79054 8.36853 6.07669 8.25 6.37506 8.25C6.67342 8.25 6.95957 8.36853 7.17055 8.57951C7.38153 8.79048 7.50006 9.07663 7.50006 9.375Z" fill="white"/>
</g>
<defs>
<clipPath id="clip0_145_430">
<rect width="24" height="24" fill="white"/>
</clipPath>
</defs>
</svg>
